<svg width="54" height="66" viewBox="0 0 54 66" fill="none" xmlns="http://www.w3.org/2000/svg">
<g id="Group 1321314022">
<path id="Vector 121" d="M46.6192 0.408025L51.7986 3.05666C51.1791 2.82952 49.1792 2.98377 47.296 4.37141C44.9419 6.10596 16.4458 22.3364 13.5961 24.009C10.7465 25.6816 5.91457 28.9648 6.03846 33.7968C6.12962 37.3521 6.03846 50.401 6.03846 57.8327C6.03846 60.8721 7.33285 61.7165 8.0838 62.1646C5.18711 60.4361 2.12564 58.7612 1.48216 58.3629C0.216568 57.5794 0.00130463 55.8464 0.00130463 54.3552C0.00130463 53.181 0.0882874 37.7425 0.00130463 31.6972C-0.0856781 25.652 4.19955 22.5822 5.63475 21.7559C7.06995 20.9296 39.7354 2.16753 42.0839 0.775818C43.9627 -0.337551 45.8364 -0.055879 46.6192 0.408025Z" fill="#3FCBFF"/>
<path id="Vector 122" d="M53.4112 8.81202C53.4112 12.6479 53.3655 27.8087 53.4111 32.1012M53.4112 8.81202C53.4111 4.97616 52.0719 1.69437 47.8362 4.20442C45.4877 5.59613 13.101 24.3118 11.6658 25.1382C10.2306 25.9645 5.94537 29.0343 6.03236 35.0795M53.4112 8.81202L49.2884 14.6473L45.1656 20.4826L40.4927 27.0964L32.1666 38.625L6.03236 35.0795M6.03236 35.0795C6.11934 41.1248 6.03236 56.5633 6.03236 57.7376M6.03236 57.7376V57.7376C6.03236 61.0601 9.65004 63.1185 12.5062 61.421L43.7938 42.8268L47.703 40.5035C50.6545 38.6588 53.4568 36.3937 53.4111 32.1012M6.03236 57.7376L22.1658 39.3943M53.4111 32.1012L42.5746 27.903" stroke="black" stroke-linejoin="bevel"/>
</g>
</svg>
