<svg width="64" height="64" viewBox="0 0 64 64" fill="none" xmlns="http://www.w3.org/2000/svg">
<g id=" bell_w" clip-path="url(#clip0_3873_40850)">
<g id="Group">
<path id="Vector" d="M37.6035 12.1943L43.5738 -2.35536L39.0215 -4.89795L25.2069 2.35501L12.8305 39.4937L16.9458 41.7911L20.4676 39.7542L14.1737 60.5745L18.7696 63.2918L43.5466 15.6608L37.6035 12.1943Z" fill="#3FCBFF"/>
<path id="Vector 106" d="M34.2218 20.8576L37.7789 12.2883L43.4569 15.5296L34.2218 20.8576Z" fill="black"/>
<path id="Vector_2" d="M26.4839 17.5173L26.2618 17.8933L32.8993 21.8336L33.1213 21.4576L26.4839 17.5173Z" fill="#3FCBFF"/>
<path id="Vector_3" d="M21.9306 32.4512L21.7106 32.8284L26.8642 35.85L27.0841 35.4729L21.9306 32.4512Z" fill="#3FCBFF"/>
<path id="Vector_4" d="M43.4084 15.7757L34.2352 20.8332L43.6682 -2.4104L29.5548 4.9036L17.2521 41.6432L26.6215 36.0942L19.0453 62.8261L43.4084 15.7757Z" fill="white"/>
<path id="Vector_5" d="M16.9645 41.8755L29.1927 5.64002L29.4542 4.98463L43.3124 -2.39941" stroke="black" stroke-linejoin="bevel"/>
<path id="Vector_6" d="M43.6609 -2.31175L34.2042 20.889L43.5444 15.5449L18.7958 63.3925L26.6719 35.9823L17.7473 41.3496" stroke="black" stroke-linejoin="bevel"/>
</g>
</g>
<defs>
<clipPath id="clip0_3873_40850">
<rect width="64" height="64" fill="white"/>
</clipPath>
</defs>
</svg>
