<svg width="64" height="64" viewBox="0 0 64 64" fill="none" xmlns="http://www.w3.org/2000/svg">
<g id="nn_64x64">
<g id="Group 277131848">
<g id="Group">
<path id="Vector" d="M14.0125 20.4994L13.7824 59.1891C13.7824 59.8649 14.0582 60.3339 14.4725 60.4905L17.9228 62.3388L50.188 3.41048L46.6756 1.45915C46.4046 1.33833 46.0687 1.35648 45.7095 1.54551L15.6226 17.5551C14.7485 18.0611 14.0125 19.3492 14.0125 20.4994Z" fill="black" stroke="black"/>
<path id="Vector_2" d="M49.3902 3.54844C50.2643 3.0884 51.0004 3.64045 51.0004 4.74456L50.7703 43.4343C50.7703 44.5844 50.0343 45.8726 49.1602 46.3786L19.0733 62.3882C18.1992 62.8482 17.4631 62.2962 17.4631 61.1921L17.6931 22.5023C17.6931 21.3522 18.4292 20.0641 19.3033 19.558L49.3902 3.54844Z" fill="white"/>
<path id="Vector_3" d="M51.0004 13.5736V4.74456C51.0004 3.64045 50.2643 3.0884 49.3902 3.54844L19.3033 19.558C18.4292 20.064 17.6931 21.3522 17.6931 22.5023L17.4631 61.1921C17.4631 62.2962 18.1992 62.8482 19.0733 62.3882L49.1602 46.3786C50.0343 45.8726 50.7703 44.5844 50.7703 43.4343V18.7598" stroke="black"/>
</g>
<g id="Group_2">
<path id="Vector_4" d="M34.9199 15.1576C37.8476 13.6023 40.2263 15.4321 40.2263 19.2747C40.2263 22.0194 38.9455 25.1758 37.0242 27.3258L36.155 28.3322L37.0699 28.0577C40.0434 27.2343 42.7881 28.2864 44.2062 30.8024C44.1525 31.3367 43.7261 32.6074 43.2214 33.6843C41.4646 37.4333 36.4753 40.2716 35.4231 40.8663C35.3316 40.912 35.2401 40.9578 35.1487 41.0035L35.0114 41.095C34.9657 41.095 34.9199 41.1408 34.8742 41.1865C34.8284 41.2323 34.7369 41.2323 34.6912 41.278C32.1752 42.5131 30.1625 42.4674 28.9273 42.2386C27.555 41.9642 26.5486 41.3695 26.0454 40.8663C26.6401 39.311 27.555 37.4354 28.2412 36.2461C28.5156 35.6971 29.2476 34.5077 29.888 33.6843C30.7571 32.4492 31.8093 31.3513 32.9072 30.3907L33.8221 29.5673L32.9529 29.613C30.9401 29.6588 29.6135 27.7832 29.6135 24.9471C29.6135 24.9013 29.6135 24.9013 29.6135 24.8556C29.6135 22.98 30.2082 20.9672 31.2146 19.0917C32.1752 17.3077 33.5018 15.8896 34.9199 15.1576Z" fill="#3FCBFF"/>
<path id="Vector 1" d="M25.9969 50.4241L44.1527 40.6479M25.9969 54.1484L35.3076 49.0275" stroke="#3FCBFF"/>
</g>
</g>
</g>
</svg>
