<svg width="63" height="64" viewBox="0 0 63 64" fill="none" xmlns="http://www.w3.org/2000/svg">
<g clip-path="url(#clip0_4163_1736)">
<path d="M15.31 19.342L1.02598 35.6248L31.2452 63.1877L17.9314 45.2637L28.8281 27.0818L15.31 19.342Z" fill="#3FCBFF"/>
<path d="M31.8294 63.6012L45.939 45.2637L34.9925 27.0942L28.8281 27.0818" stroke="black" stroke-miterlimit="10" stroke-linejoin="bevel"/>
<path d="M17.9314 45.2637H43.4097" stroke="black" stroke-miterlimit="10" stroke-linejoin="bevel"/>
<path d="M28.8281 7.86621H35.1855L45.939 9.61591L51.1972 12.6402M31.9385 63.4136L62.6327 35.6247V19.2174L53.9439 14.22" stroke="black" stroke-miterlimit="10" stroke-linejoin="bevel"/>
<path d="M35.5591 26.6459L48.3487 19.342V15.7243L35.1855 7.86621" stroke="black" stroke-miterlimit="10" stroke-linejoin="bevel"/>
<path d="M62.405 19.1512L49.5456 16.018" stroke="black" stroke-miterlimit="10" stroke-linejoin="bevel"/>
<path d="M49.0337 19.8464L62.4703 35.6662" stroke="black" stroke-miterlimit="10" stroke-linejoin="bevel"/>
<path d="M46.7298 44.7967L62.6327 35.6248" stroke="black" stroke-miterlimit="10" stroke-linejoin="bevel"/>
<path d="M31.8356 63.6012L17.7259 45.2637L28.6662 27.0942" stroke="black" stroke-miterlimit="10" stroke-linejoin="bevel"/>
<path d="M1.02598 35.6248V19.2175L17.7259 9.61599L27.122 8.08423" stroke="black" stroke-miterlimit="10" stroke-linejoin="bevel"/>
<path d="M28.0996 26.646L15.31 19.3421V15.7244L26.4682 9.26733" stroke="black" stroke-miterlimit="10" stroke-linejoin="bevel"/>
<path d="M2.58265 18.7194L14.625 15.9111" stroke="black" stroke-miterlimit="10" stroke-linejoin="bevel"/>
<path d="M14.625 19.8464L1.39958 35.1267" stroke="black" stroke-miterlimit="10" stroke-linejoin="bevel"/>
<path d="M16.9351 44.7967L1.02598 35.6248" stroke="white" stroke-miterlimit="10" stroke-linejoin="bevel"/>
</g>
<path d="M55.2916 4.68747L59.2293 1L58.0361 6.43937" stroke="black" stroke-linejoin="round"/>
<path d="M58.5531 7.3584L62.0135 11.5545L56.9091 10.2829" stroke="black" stroke-linejoin="round"/>
<path d="M55.6894 11.0446L51.7517 14.7321L52.945 9.29272" stroke="black" stroke-linejoin="round"/>
<path d="M52.4941 8.1204L49.0337 3.92432L54.1381 5.19586" stroke="black" stroke-linejoin="round"/>
<defs>
<clipPath id="clip0_4163_1736">
<rect width="62.2294" height="56.2331" fill="white" transform="translate(0.714647 7.55493)"/>
</clipPath>
</defs>
</svg>
