<svg width="64" height="69" viewBox="0 0 64 69" fill="none" xmlns="http://www.w3.org/2000/svg">
<path d="M12.722 41.5691C13.0537 42.1611 13.3855 42.753 13.7836 43.345C16.5702 47.6203 20.7502 50.3828 25.5937 51.3036L17.2337 67.8787L13.7172 57.2233L2.96869 61.0382L12.722 41.5691Z" fill="#3FCBFF" stroke="#3FCBFF" stroke-linejoin="round"/>
<path d="M7.48799 27.2709C6.22736 33.4537 7.28894 39.4391 10.4073 44.109C11.9625 46.438 15.9786 50.3741 18.5658 51.1086L16.5506 49.4555C15.6098 48.5451 14.7545 47.5195 13.9971 46.3852C10.8787 41.7152 9.81714 35.7298 11.0778 29.547C13.2009 18.497 22.0917 9.81485 31.9777 8.4336C33.4374 8.23628 34.9634 8.23628 36.4231 8.36782C38.6857 8.56119 40.7878 9.14617 42.6869 10.0574L42.3807 9.83328C39.7393 7.74443 36.4967 6.40476 32.8333 6.09168C31.3736 5.96013 29.8476 5.96013 28.3879 6.15745C18.5019 7.53871 9.61116 16.2209 7.48799 27.2709Z" fill="black" stroke="black"/>
<path d="M51.1834 35.2139L60.9195 52.0369L50.1899 51.2421L46.6134 62.9652L38.3344 48.7252C43.7654 46.076 48.4679 41.241 51.1834 35.2139Z" fill="#3FCBFF" stroke="#3FCBFF" stroke-linejoin="round"/>
<path d="M36.4235 8.36756C47.9682 9.35417 55.3329 20.5357 52.878 33.2301C50.6885 44.2802 41.7977 52.8966 31.9117 54.2778C30.452 54.4751 28.926 54.5409 27.4663 54.4094C21.893 53.8832 17.1159 51.0549 13.9975 46.3849C10.8791 41.715 9.81751 35.7295 11.0781 29.5468C13.2013 18.4968 22.0921 9.81459 31.9781 8.43333C33.4377 8.23601 34.9638 8.23601 36.4235 8.36756Z" fill="white" stroke="black"/>
<path d="M42.1783 14.3016C40.2848 13.1407 38.0988 12.3962 35.6929 12.1824C34.4323 12.1166 33.1716 12.1166 31.9774 12.2481C23.7501 13.3663 16.319 20.5357 14.5276 29.744C12.4708 40.3336 18.5749 49.6078 28.1955 50.4628C29.4561 50.5944 30.7167 50.5944 31.911 50.397C40.1383 49.2789 47.5694 42.1095 49.3608 32.9012C50.413 27.5177 49.3295 22.444 46.7322 18.6575" stroke="black"/>
<path d="M31.9785 15.7991C32.1775 15.7991 32.3766 15.8648 32.5093 16.0622L36.1585 23.4946C36.2248 23.6919 36.4239 23.7577 36.6229 23.7577L44.8502 23.8893C45.3146 23.8893 45.5137 24.4812 45.1819 24.9417L39.2105 31.9795C39.0778 32.1768 39.0115 32.3741 39.0115 32.5714L40.4048 41.1221C40.4711 41.5167 40.1394 41.9113 39.8077 41.9113C39.7413 41.9113 39.6086 41.9113 39.5423 41.8456L32.1775 38.7542C32.1112 38.6884 31.9785 38.6884 31.9121 38.6884C31.8458 38.6884 31.7131 38.7542 31.6467 38.82L24.282 43.9503C24.2156 44.0161 24.0829 44.0819 24.0166 44.0819C23.6849 44.1477 23.3531 43.8188 23.4195 43.4241L24.8128 34.4789C24.8128 34.2816 24.8128 34.0842 24.6137 33.9527L18.7087 28.5592C18.3769 28.2304 18.576 27.5726 19.0404 27.4411L27.2677 25.0074C27.4667 24.9417 27.5994 24.8101 27.7321 24.6128L31.4477 16.2595C31.5804 15.9964 31.7794 15.8648 31.9785 15.7991Z" fill="#3FCBFF"/>
</svg>
