<svg width="595" height="355" viewBox="0 0 595 355" fill="none" xmlns="http://www.w3.org/2000/svg">
<path d="M233.235 30.0897C233.235 30.0897 233.255 30.1032 233.264 30.11C233.313 30.1439 233.625 30.3393 234.11 30.589C234.152 30.6112 234.195 30.6334 234.237 30.6556C234.297 30.6831 234.359 30.7189 234.429 30.7532C236.022 31.5197 237.721 31.9555 239.437 32.0554C239.437 32.0554 239.442 32.0588 239.45 32.0573C239.636 32.0707 239.824 32.0709 240.008 32.0761C240.903 32.0896 241.802 32.0127 242.685 31.8448C243.098 31.7702 243.584 31.6525 243.972 31.5313C244.236 31.4539 244.501 31.3634 244.761 31.2694C244.773 31.2631 244.79 31.2601 244.801 31.2537L244.833 31.2395C244.881 31.2223 244.921 31.2065 244.969 31.1893C245.137 31.1249 245.312 31.0591 245.498 30.9785C245.498 30.9785 245.51 30.9722 245.518 30.9707C245.61 30.9329 245.7 30.8868 245.794 30.8441C245.838 30.8235 245.881 30.8029 245.924 30.7823C245.959 30.7632 245.995 30.7523 246.034 30.7283C246.065 30.7141 246.089 30.7013 246.12 30.6871C246.657 30.4237 247.174 30.1171 247.676 29.779C247.81 29.6909 247.909 29.6219 247.965 29.5818L248.052 29.5192L248.139 29.4565L248.146 29.4468L248.159 29.4273C248.206 29.4018 248.263 29.3617 248.303 29.3245L248.317 29.305C248.317 29.305 248.337 29.2972 248.34 29.2923L248.434 29.2199C248.47 29.1876 248.519 29.149 248.557 29.125L248.661 29.038C248.661 29.038 248.698 29.0058 248.717 28.9896C248.72 28.9847 248.723 28.9799 248.735 28.9735C248.738 28.9686 248.745 28.9589 248.753 28.9574C248.76 28.9476 248.775 28.9364 248.787 28.93L248.897 28.8332C248.928 28.8107 248.96 28.7751 248.99 28.7526C249.02 28.7301 249.048 28.6993 249.078 28.6768C249.078 28.6768 249.115 28.6446 249.134 28.6284C249.167 28.6011 249.207 28.5639 249.236 28.5331L249.31 28.4686C249.343 28.4413 249.375 28.4056 249.409 28.3782C249.412 28.3734 249.419 28.3636 249.422 28.3587C249.448 28.3328 249.469 28.3118 249.495 28.2859L249.538 28.2439L249.589 28.1922C249.589 28.1922 249.592 28.1873 249.595 28.1824L249.609 28.1629C249.609 28.1629 249.636 28.1453 249.643 28.1355C249.668 28.1096 249.693 28.0837 249.718 28.0578C249.732 28.0383 249.75 28.0222 249.769 28.0061C249.797 27.9753 249.822 27.9494 249.851 27.9187L249.923 27.8459C249.923 27.8459 249.947 27.8117 249.962 27.8005C249.979 27.7761 250.001 27.7551 250.026 27.7292C250.043 27.7048 250.065 27.6838 250.087 27.6628C250.119 27.6271 250.154 27.5866 250.186 27.551L250.279 27.4489C250.279 27.4489 250.296 27.4245 250.306 27.4099L250.313 27.4001C250.336 27.366 250.365 27.3352 250.393 27.3044C250.427 27.2557 250.474 27.2088 250.513 27.1634C250.54 27.1243 250.569 27.0936 250.598 27.0628C250.625 27.0238 250.652 26.9847 250.684 26.9491C250.711 26.9101 250.746 26.8695 250.773 26.8305C250.79 26.8061 250.807 26.7817 250.828 26.7524L250.875 26.6841C250.875 26.6841 250.899 26.65 250.912 26.6305C250.926 26.611 250.939 26.5914 250.953 26.5719C251.106 26.3524 251.258 26.1328 251.406 25.9099C251.44 25.8611 251.474 25.8123 251.499 25.765C251.533 25.7162 251.562 25.664 251.591 25.6119C251.612 25.5826 251.635 25.5484 251.647 25.5207C251.693 25.4441 251.736 25.3724 251.774 25.2973C251.791 25.2729 251.808 25.2485 251.82 25.2207C251.881 25.1115 251.939 25.0072 251.989 24.9043C252.015 24.857 252.04 24.8097 252.064 24.7541C252.064 24.7541 252.061 24.759 252.058 24.7639L252.064 24.7541C252.071 24.7444 252.078 24.7346 252.085 24.7249C252.126 24.6449 252.163 24.5698 252.198 24.4996C252.225 24.4392 252.254 24.387 252.282 24.3266C252.344 24.1959 252.392 24.0848 252.422 24.0112C252.579 23.65 252.717 23.2836 252.842 22.907C252.917 22.6843 252.975 22.4861 253.045 22.2303C253.329 21.1763 253.487 20.0853 253.51 18.9801C253.512 18.8731 253.513 18.7578 253.51 18.6473C253.512 18.6342 253.509 18.6176 253.511 18.6045C253.507 18.4133 253.502 18.2221 253.493 18.0275C253.49 18.0109 253.492 17.9978 253.489 17.9813L253.486 17.9647C253.486 17.9647 253.484 17.9565 253.483 17.9482C253.486 17.9433 253.48 17.9317 253.483 17.9268C253.483 17.9268 253.485 17.9136 253.48 17.9103C253.475 17.8558 253.474 17.8047 253.469 17.7502C253.462 17.6447 253.451 17.5357 253.442 17.435C253.436 17.3805 253.429 17.3178 253.424 17.2633C253.411 17.1461 253.395 17.0338 253.384 16.9248C253.384 16.9248 253.383 16.9165 253.381 16.9083L253.378 16.8917C253.378 16.8917 253.37 16.8422 253.365 16.8174C253.285 16.2557 253.199 15.8915 253.194 15.8667C253.157 15.6815 253.106 15.4944 253.055 15.3072C253.023 15.1765 252.982 15.0389 252.943 14.8965C252.942 14.8882 252.935 14.8766 252.934 14.8683L252.926 14.8484C252.841 14.565 252.734 14.2516 252.597 13.8964L252.587 13.8897C252.587 13.8897 252.583 13.8863 252.585 13.8731C252.522 13.7138 252.443 13.536 252.359 13.3548C252.288 13.197 252.219 13.0474 252.16 12.9128L251.898 12.4267C251.814 12.267 251.731 12.1155 251.655 11.9757C251.509 11.7076 251.298 11.3873 251.059 11.0549C250.853 10.7676 250.625 10.4717 250.402 10.2006L250.392 10.1938L250.386 10.1821C250.096 9.82903 249.804 9.51048 249.563 9.28515C248.656 8.43762 248.58 8.37028 247.914 7.89308C247.077 7.29733 246.42 6.96364 246.097 6.80431C245.179 6.34706 244.406 6.10676 244.152 6.02453C243.249 5.74385 242.669 5.65218 242.111 5.56092C241.764 5.50824 241.52 5.47561 241.222 5.45681C240.863 5.43192 240.498 5.41679 240.132 5.42307C240.089 5.42226 240.046 5.42145 239.999 5.41725C239.622 5.40849 239.115 5.44013 238.741 5.49072C238.461 5.52829 238.09 5.57401 237.817 5.62323C237.544 5.67245 237.182 5.74635 236.909 5.81699C236.603 5.89359 236.48 5.92423 236.215 6.01478C235.887 6.11239 235.567 6.22992 235.26 6.34935C235.16 6.38866 235.061 6.42797 234.962 6.47555C234.848 6.52611 234.733 6.57667 234.635 6.62425C234.584 6.64634 234.509 6.68118 234.427 6.72577C234.416 6.73214 234.404 6.73851 234.392 6.74488C234.306 6.78609 234.204 6.83855 234.099 6.89588C234.076 6.90862 234.053 6.92136 234.029 6.9341C233.71 7.10272 233.31 7.3242 232.91 7.5885C232.818 7.64773 232.699 7.72458 232.559 7.82244C232.517 7.85131 232.479 7.8753 232.437 7.90417L232.233 8.0519C232.192 8.08077 232.14 8.12428 232.095 8.15803L232.046 8.19666C232.046 8.19666 232.043 8.20153 232.039 8.20641L231.964 8.26266C231.927 8.29492 231.879 8.33355 231.84 8.35754L231.722 8.4558C231.722 8.4558 231.718 8.46068 231.715 8.46556C231.258 8.84248 230.845 9.22847 230.488 9.61716L230.461 9.6562C230.427 9.68357 230.387 9.72071 230.352 9.76123L230.345 9.77099C230.313 9.80663 230.284 9.8374 230.256 9.86816L230.06 10.0869C229.976 10.1875 229.865 10.3271 229.78 10.4276C229.699 10.5233 229.61 10.6419 229.527 10.7507C229.486 10.8093 229.446 10.8678 229.412 10.9166C229.307 11.0678 229.168 11.2679 229.063 11.4191C228.954 11.5753 228.831 11.7937 228.728 11.9532C228.53 12.3004 228.278 12.7768 228.105 13.1409C227.972 13.4251 227.807 13.8092 227.702 14.1054C227.677 14.1824 227.653 14.2594 227.625 14.3412C227.548 14.5771 227.467 14.8177 227.402 15.0258L227.336 15.2766C227.281 15.47 227.233 15.675 227.186 15.8669L227.161 15.9653C227.104 16.1932 227.055 16.4922 227.017 16.7551C227.004 16.8685 226.982 16.9834 226.968 17.0969C226.929 17.4026 226.883 17.7906 226.881 18.0854C226.877 18.0903 226.88 18.1069 226.882 18.1151C226.87 18.3818 226.868 18.6553 226.869 18.9239C226.871 18.9832 226.869 19.0392 226.866 19.0952L226.886 19.3987C226.888 19.4795 226.895 19.5636 226.905 19.6429L226.937 20.1065C226.951 20.2831 226.981 20.6148 227.081 21.1258C227.078 21.1307 227.084 21.1423 227.086 21.1506L227.1 21.2036C227.152 21.4715 227.222 21.7875 227.313 22.155C227.318 22.1584 227.316 22.1715 227.318 22.1798C227.404 22.5439 227.594 23.1753 227.927 23.9559C227.932 23.9593 227.933 23.9676 227.935 23.9758C228.013 24.1536 228.094 24.3397 228.192 24.531C228.232 24.6092 228.273 24.6956 228.317 24.7772C228.376 24.8904 228.431 25.0084 228.487 25.105C228.506 25.14 228.524 25.1667 228.543 25.2016C228.638 25.3764 228.742 25.5497 228.851 25.7264C229.001 25.9682 229.156 26.2133 229.302 26.4088C229.542 26.7495 229.804 27.0905 230.1 27.4339C230.279 27.6449 230.461 27.8509 230.642 28.0274C230.831 28.2237 231.036 28.4171 231.246 28.6138C231.293 28.6608 231.339 28.6996 231.389 28.7417C231.682 28.996 231.987 29.244 232.316 29.4875C232.326 29.4942 232.341 29.5044 232.35 29.5112L232.375 29.5281C232.638 29.711 232.911 29.9007 233.194 30.0758L233.235 30.0897Z" fill="url(#paint0_radial_4446_110)"/>
<path d="M237.449 31.8164C237.534 31.8395 237.627 31.861 237.716 31.8792C237.631 31.8561 237.542 31.838 237.449 31.8164Z" fill="url(#paint1_linear_4446_110)"/>
<path d="M245.995 6.59587C246.069 6.62526 246.139 6.65954 246.204 6.69043C246.134 6.65615 246.069 6.62526 245.995 6.59587Z" fill="url(#paint2_linear_4446_110)"/>
<path d="M233.003 25.5441C234.557 27.9988 242.604 30.8478 245.088 24.7754C246.455 18.9389 238.653 15.1455 237.068 16.2294C236.818 16.4026 236.733 16.597 236.662 16.772C236.274 18.1948 235.742 19.6264 235.081 20.9617C234.378 22.3901 233.614 23.5307 232.86 24.3452C232.784 24.4657 232.559 24.8306 233.006 25.5392M246.677 28.585C247.909 28.5803 249.763 27.4306 250.618 25.5866C251.413 23.5058 249.87 22.4914 248.144 23.2596C245.768 24.3071 244.365 27.7093 245.996 28.4519C246.172 28.531 246.451 28.5873 246.677 28.585Z" fill="white"/>
<path d="M2.04756 325.414L0 328.8L11.6778 337.243L13.7254 333.854L2.04756 325.414Z" fill="url(#paint3_linear_4446_110)"/>
<path d="M23.044 339.584L20.9964 342.969L27.6125 339.93L29.6601 336.54L23.044 339.584Z" fill="url(#paint4_linear_4446_110)"/>
<path d="M36 350.988L23.0439 339.584L29.66 336.54L15.3271 321.373L2.04755 325.414L13.7254 333.854L5.27472 337.947L36 350.988Z" fill="url(#paint5_linear_4446_110)"/>
<path style="mix-blend-mode:overlay" opacity="0.7" d="M36 350.988L23.04 339.584L29.66 336.544L15.3271 321.373L2.04755 325.414L13.7254 333.858L5.27472 337.951L36 350.988ZM2.31188 325.458L15.2916 321.508L29.4628 336.5L22.8269 339.548L35.3688 350.587L5.56272 337.939L13.9581 333.874L2.31188 325.458Z" fill="url(#paint6_linear_4446_110)"/>
<path d="M5.27473 337.947L3.22717 341.336L33.9524 354.373L36 350.988L5.27473 337.947Z" fill="url(#paint7_linear_4446_110)"/>
<g filter="url(#filter0_f_4446_110)">
<path d="M590.692 100.572L592 102.726L584.539 108.099L583.231 105.942L590.692 100.572Z" fill="url(#paint8_linear_4446_110)"/>
<path d="M577.277 109.589L578.586 111.743L574.359 109.809L573.051 107.652L577.277 109.589Z" fill="url(#paint9_linear_4446_110)"/>
<path d="M569 116.846L577.277 109.589L573.051 107.652L582.208 98L590.692 100.572L583.231 105.942L588.63 108.547L569 116.846Z" fill="url(#paint10_linear_4446_110)"/>
<path style="mix-blend-mode:overlay" opacity="0.7" d="M569 116.846L577.28 109.589L573.051 107.654L582.208 98L590.692 100.572L583.231 105.945L588.63 108.549L569 116.846ZM590.523 100.599L582.23 98.086L573.177 107.626L577.416 109.566L569.403 116.59L588.446 108.542L583.082 105.955L590.523 100.599Z" fill="url(#paint11_linear_4446_110)"/>
<path d="M588.63 108.547L589.938 110.704L570.308 119L569 116.846L588.63 108.547Z" fill="url(#paint12_linear_4446_110)"/>
</g>
<path d="M136.353 51.5884C136.353 51.5884 136.377 51.5719 136.391 51.5625C136.513 51.4864 136.622 51.4071 136.725 51.3263C136.732 51.3216 136.739 51.3169 136.746 51.3122C136.839 51.2321 136.93 51.1482 137.007 51.0673C137.018 51.0603 137.023 51.0454 137.031 51.0344C137.061 50.9967 137.092 50.959 137.119 50.9174C137.161 50.8664 137.203 50.8154 137.239 50.7628C137.251 50.7432 137.257 50.722 137.269 50.7024C137.298 50.6545 137.32 50.6051 137.345 50.5596C137.367 50.5164 137.395 50.4748 137.414 50.4277C137.437 50.3783 137.456 50.3249 137.473 50.2739L138.155 48.1751C138.122 48.2771 138.076 48.3658 138.028 48.4608C138.005 48.5102 137.98 48.5557 137.952 48.6036C137.906 48.6797 137.856 48.748 137.802 48.8186C137.772 48.8563 137.747 48.8956 137.713 48.9356C137.627 49.0337 137.532 49.1263 137.428 49.2134C137.421 49.2181 137.414 49.2228 137.407 49.2275C137.296 49.3193 137.167 49.4064 137.033 49.4857C136.994 49.5116 136.944 49.5343 136.903 49.5563C136.803 49.612 136.701 49.6638 136.59 49.7101C136.532 49.7375 136.472 49.761 136.412 49.7846C136.304 49.8285 136.19 49.8709 136.072 49.9054C136.005 49.9273 135.939 49.9493 135.866 49.9697C135.737 50.005 135.606 50.0364 135.472 50.0701C135.396 50.0865 135.327 50.1046 135.252 50.121C135.04 50.161 134.822 50.1994 134.586 50.2331C134.408 50.2558 134.216 50.2715 134.026 50.2911C133.952 50.295 133.884 50.3067 133.81 50.3106C133.689 50.3185 133.555 50.3231 133.427 50.3294C133.28 50.3372 133.139 50.3466 132.983 50.3489C132.913 50.3505 132.834 50.3465 132.764 50.3481C132.538 50.3519 132.313 50.3495 132.076 50.344C131.993 50.3424 131.908 50.3369 131.823 50.3313C131.564 50.3234 131.3 50.3077 131.029 50.2903C130.912 50.2832 130.797 50.2699 130.68 50.2628C130.388 50.2368 130.091 50.2092 129.787 50.1739C129.638 50.155 129.487 50.1424 129.334 50.1196C129.241 50.1086 129.144 50.0936 129.05 50.0826C128.801 50.0512 128.546 50.0118 128.291 49.9725C128.222 49.9615 128.15 49.9529 128.079 49.9379C127.753 49.8837 127.421 49.8279 127.086 49.7681C127.006 49.754 126.925 49.7398 126.842 49.7218C126.609 49.6785 126.381 49.633 126.146 49.5858C125.704 49.4954 125.256 49.4035 124.797 49.2958C124.769 49.2919 124.745 49.2856 124.714 49.2777C124.277 49.1787 123.834 49.0719 123.382 48.9595C123.167 48.9045 122.946 48.8479 122.729 48.789C122.539 48.7403 122.348 48.6916 122.155 48.6389C121.928 48.5808 121.699 48.5125 121.47 48.4504C121.277 48.3978 121.084 48.3451 120.888 48.2885C120.68 48.2288 120.464 48.1636 120.253 48.1C120.03 48.0332 119.804 47.9688 119.581 47.902C119.499 47.8777 119.414 47.8494 119.329 47.8211C118.804 47.6609 118.272 47.4888 117.739 47.3168C117.594 47.2665 117.447 47.2225 117.302 47.1722C116.737 46.9821 116.166 46.7905 115.593 46.5886C115.541 46.5721 115.49 46.5493 115.439 46.5328C114.932 46.3545 114.427 46.1699 113.915 45.9838C113.671 45.8919 113.426 45.8 113.181 45.7081C113.018 45.6468 112.858 45.5832 112.695 45.5219C112.305 45.3735 111.919 45.2227 111.525 45.0664C111.455 45.0389 111.392 45.0129 111.323 44.9854C110.907 44.8205 110.488 44.6516 110.067 44.4788C110.025 44.4616 109.989 44.4459 109.947 44.4286C109.517 44.2503 109.087 44.072 108.66 43.8913C108.612 43.8725 108.567 43.8513 108.519 43.8324C108.096 43.6494 107.669 43.4688 107.247 43.2795C107.19 43.2552 107.133 43.2308 107.08 43.2041C106.66 43.0188 106.238 42.8295 105.819 42.6379C105.76 42.6096 105.696 42.5837 105.637 42.5554C105.227 42.3693 104.82 42.1808 104.411 41.9884C104.375 41.9727 104.339 41.9569 104.307 41.9389C103.898 41.7465 103.492 41.5517 103.084 41.353C102.965 41.2965 102.849 41.2376 102.736 41.1826C102.372 41.0051 102.015 40.8292 101.652 40.6454C101.59 40.6132 101.521 40.5794 101.456 40.5496C101.031 40.3336 100.606 40.1177 100.182 39.8954C100.063 39.8326 99.9473 39.7737 99.8287 39.7109C99.5232 39.5514 99.215 39.3881 98.9129 39.2263C98.7531 39.1399 98.5872 39.052 98.4274 38.9656C98.1551 38.818 97.8829 38.6703 97.6142 38.5203C97.4518 38.43 97.2832 38.3381 97.1207 38.2478C96.8581 38.0994 96.5955 37.951 96.333 37.8026C96.1617 37.7068 95.9878 37.607 95.8201 37.5089C95.4196 37.2764 95.0191 37.044 94.6221 36.8092C94.4895 36.733 94.3639 36.6521 94.2313 36.5759C93.9405 36.4008 93.6524 36.2296 93.3713 36.0537C93.251 35.9807 93.1368 35.9092 93.0226 35.8378C92.7116 35.6477 92.4077 35.453 92.1063 35.2622C92.0334 35.2143 91.957 35.1687 91.8841 35.1208C91.5011 34.8766 91.1277 34.6316 90.763 34.3921C90.6813 34.3387 90.6058 34.2869 90.5241 34.2335C90.1076 33.9547 89.7034 33.6791 89.3053 33.4051C89.2939 33.3957 89.2763 33.3847 89.2649 33.3752C88.7745 33.0321 88.2999 32.6897 87.8403 32.3544C87.8086 32.3301 87.7735 32.3081 87.7418 32.2838C87.4615 32.0788 87.1907 31.8731 86.9235 31.665C86.8575 31.6124 86.7942 31.5637 86.731 31.5151C86.5323 31.3635 86.3371 31.2096 86.1454 31.0534C86.0654 30.9874 85.9819 30.9238 85.9019 30.8578C85.6988 30.6922 85.501 30.5343 85.3075 30.3679C85.2362 30.3074 85.165 30.247 85.0964 30.1904C84.8458 29.9769 84.5978 29.7672 84.3656 29.5584C84.3401 29.5356 84.3146 29.5128 84.289 29.4901C84.0823 29.304 83.8756 29.1179 83.6812 28.9349C83.6161 28.8761 83.5518 28.8109 83.4867 28.752C83.3205 28.5958 83.1664 28.4427 83.0089 28.2919C82.9588 28.2401 82.9025 28.1867 82.8523 28.1349C82.6569 27.9354 82.4668 27.7439 82.2863 27.5515C82.2529 27.517 82.2229 27.4801 82.1895 27.4455C82.0424 27.2877 81.9016 27.1315 81.7703 26.9744C81.721 26.9163 81.6716 26.8582 81.6223 26.8001C81.499 26.6549 81.3792 26.5073 81.2646 26.3676C81.2294 26.3228 81.1968 26.282 81.1615 26.2372C81.0205 26.0582 80.8892 25.8784 80.7639 25.7002C80.7375 25.661 80.711 25.6217 80.6846 25.5825C80.5919 25.4451 80.4993 25.3077 80.4128 25.1719C80.3784 25.1208 80.3475 25.0674 80.3192 25.018C80.2362 24.8798 80.1594 24.7432 80.0886 24.6082C80.0701 24.5807 80.0524 24.5469 80.0348 24.5132C79.9517 24.3522 79.8747 24.1929 79.81 24.0367C79.7932 23.9966 79.7763 23.9566 79.763 23.9142C79.7151 23.798 79.6742 23.6771 79.6352 23.5664C79.6192 23.5201 79.6058 23.4777 79.596 23.433C79.5594 23.3035 79.529 23.1755 79.5048 23.0491C79.5038 23.0326 79.4967 23.0146 79.4958 22.9981C79.4732 22.8592 79.4568 22.7218 79.4552 22.5915C79.4542 22.5522 79.4558 22.5169 79.4538 22.4839C79.4542 22.3866 79.4581 22.2869 79.4673 22.1951C79.4724 22.1574 79.474 22.1221 79.479 22.0844C79.4986 21.9627 79.5243 21.8426 79.5587 21.7281L78.8763 23.8269C78.8383 23.9438 78.8161 24.0615 78.7966 24.1832C78.7915 24.2209 78.7899 24.2562 78.7848 24.2939C78.7757 24.3857 78.7718 24.4854 78.7714 24.5827C78.7698 24.6181 78.7709 24.6573 78.7728 24.6903C78.7804 24.8221 78.7907 24.9579 78.8133 25.0969C78.8142 25.1134 78.8213 25.1314 78.8249 25.1518C78.8492 25.2782 78.8796 25.4062 78.9161 25.5357C78.9295 25.5781 78.9455 25.6244 78.9553 25.6692C78.9909 25.7822 79.0353 25.9007 79.0831 26.0169C79.1 26.057 79.1107 26.0954 79.1302 26.1394C79.1948 26.2956 79.2692 26.451 79.3549 26.6159C79.3734 26.6434 79.3911 26.6771 79.4088 26.7109C79.4795 26.8459 79.5564 26.9825 79.6394 27.1207C79.6738 27.1717 79.7021 27.2212 79.733 27.2746C79.8195 27.4104 79.906 27.5462 80.0047 27.6852C80.0312 27.7244 80.0576 27.7637 80.0841 27.8029C80.2067 27.9772 80.3416 28.1547 80.4817 28.3399C80.5108 28.3831 80.5496 28.4255 80.5848 28.4703C80.6985 28.6163 80.8192 28.7576 80.9425 28.9029C80.9918 28.961 81.0411 29.0191 81.0905 29.0772C81.2252 29.2318 81.3661 29.3881 81.5131 29.5459C81.5466 29.5804 81.5765 29.6173 81.61 29.6519C81.7905 29.8442 81.9797 30.0421 82.1759 30.2352C82.2261 30.2871 82.2824 30.3405 82.3326 30.3923C82.4866 30.5454 82.6468 30.7001 82.8104 30.8524C82.8755 30.9113 82.9371 30.9725 83.0048 31.0353C83.1993 31.2183 83.406 31.4043 83.6127 31.5904C83.6382 31.6132 83.6611 31.632 83.6866 31.6548C83.9223 31.8613 84.1668 32.0733 84.4174 32.2869C84.4887 32.3473 84.5573 32.4039 84.6285 32.4643C84.8228 32.6245 85.0198 32.7886 85.2229 32.9543C85.2686 32.992 85.3143 33.0297 85.3627 33.0713C85.3944 33.0956 85.4287 33.1239 85.463 33.1522C85.652 33.3045 85.8506 33.456 86.0485 33.6139C86.1144 33.6665 86.1777 33.7151 86.241 33.7638C86.5056 33.968 86.7798 34.1714 87.0594 34.3826C87.0708 34.392 87.0822 34.4014 87.0937 34.4108C87.1139 34.4258 87.1341 34.4407 87.1569 34.4595C87.6131 34.7972 88.0877 35.1395 88.5816 35.4803C88.5816 35.4803 88.5842 35.4842 88.5869 35.4882C88.5983 35.4976 88.6071 35.5031 88.622 35.5102C89.0166 35.7866 89.4243 36.0598 89.8407 36.3386C89.8873 36.37 89.9339 36.4014 89.9804 36.4328C90.0121 36.4572 90.0446 36.4752 90.0797 36.4972C90.447 36.7406 90.8177 36.9817 91.2008 37.2259C91.2183 37.2369 91.2359 37.2479 91.2535 37.2589C91.3088 37.2958 91.3677 37.3304 91.423 37.3673C91.7243 37.5581 92.0318 37.7505 92.3419 37.9468C92.4008 37.9813 92.4561 38.0182 92.5115 38.0552C92.5703 38.0897 92.6318 38.1282 92.6906 38.1627C92.9752 38.3363 93.2625 38.5138 93.5532 38.6889C93.6235 38.7328 93.6911 38.7729 93.7649 38.8145C93.8237 38.8491 93.8852 38.8875 93.9441 38.9221C94.2849 39.1263 94.6292 39.3281 94.9769 39.5275C95.0331 39.5582 95.0893 39.5888 95.1447 39.6257C95.3159 39.7215 95.4898 39.8212 95.6576 39.9194C95.8315 40.0191 96.008 40.1228 96.1854 40.2202C96.2741 40.2689 96.3628 40.3176 96.4453 40.3647C96.6078 40.455 96.7729 40.5492 96.9388 40.6372C97.0749 40.711 97.2137 40.7887 97.3498 40.8626C97.4859 40.9364 97.6194 41.0063 97.7555 41.0801C97.9153 41.1665 98.0777 41.2568 98.241 41.3408C98.3332 41.3871 98.4246 41.4398 98.5132 41.4885C98.7266 41.6015 98.94 41.7146 99.1568 41.8254C99.2754 41.8882 99.3913 41.9471 99.5098 42.0099C99.5484 42.0295 99.5871 42.0492 99.6257 42.0688C99.9909 42.2565 100.356 42.4442 100.721 42.6319C100.742 42.6405 100.763 42.6555 100.784 42.6641C100.846 42.6963 100.915 42.7301 100.98 42.7599C101.227 42.8848 101.474 43.0096 101.721 43.1282C101.835 43.1832 101.948 43.2382 102.061 43.2932C102.18 43.3497 102.296 43.4086 102.416 43.4651C102.52 43.5146 102.621 43.5665 102.728 43.6199C103.014 43.7581 103.304 43.894 103.594 44.0298C103.609 44.0369 103.624 44.044 103.639 44.051C103.674 44.0667 103.71 44.0824 103.743 44.1005C103.979 44.2097 104.212 44.3212 104.448 44.4304C104.618 44.5097 104.795 44.5906 104.968 44.6675C105.028 44.6958 105.091 44.7217 105.151 44.75C105.193 44.7673 105.232 44.7869 105.274 44.8042C105.516 44.9149 105.762 45.0233 106.004 45.1341C106.142 45.1953 106.277 45.2527 106.411 45.3163C106.468 45.3406 106.522 45.3673 106.579 45.3917C106.63 45.4144 106.681 45.4372 106.732 45.46C106.971 45.5668 107.214 45.6713 107.457 45.7757C107.586 45.8315 107.722 45.8888 107.851 45.9446C107.899 45.9634 107.944 45.9846 107.995 46.0074C108.045 46.0302 108.094 46.049 108.145 46.0718C108.373 46.1692 108.601 46.2666 108.83 46.3577C108.98 46.4221 109.134 46.4842 109.281 46.5446C109.323 46.5619 109.359 46.5776 109.401 46.5949C109.437 46.6106 109.473 46.6263 109.513 46.6397C109.765 46.7434 110.024 46.8486 110.277 46.9523C110.403 47.0041 110.533 47.0536 110.657 47.1015C110.726 47.129 110.789 47.1549 110.859 47.1824C110.925 47.206 110.991 47.2358 111.061 47.2633C111.323 47.3662 111.579 47.4675 111.839 47.5665C111.902 47.5924 111.966 47.6121 112.029 47.638C112.192 47.6992 112.352 47.7629 112.515 47.8241C112.691 47.8885 112.869 47.9569 113.041 48.0236C113.11 48.0511 113.18 48.0723 113.25 48.0998C113.758 48.2884 114.269 48.4745 114.773 48.6489C114.815 48.6662 114.86 48.6811 114.903 48.6984C114.909 48.7 114.918 48.7054 114.927 48.7047C115.5 48.9065 116.074 49.1021 116.636 49.2883C116.7 49.3079 116.763 49.3339 116.827 49.3535C116.912 49.3818 116.989 49.4046 117.074 49.4328C117.609 49.6088 118.139 49.7769 118.663 49.9372C118.721 49.9552 118.785 49.9749 118.843 49.993C118.867 49.9992 118.892 50.0055 118.917 50.0118C119.142 50.0825 119.366 50.143 119.588 50.2098C119.778 50.2648 119.966 50.3261 120.153 50.3771C120.178 50.3834 120.199 50.3921 120.223 50.3983C120.419 50.4549 120.612 50.5075 120.805 50.5602C121.006 50.6183 121.212 50.6741 121.411 50.7283C121.435 50.7346 121.466 50.7425 121.491 50.7487C121.683 50.8014 121.874 50.8501 122.064 50.8988C122.254 50.9475 122.447 51.0002 122.638 51.0489C122.662 51.0552 122.693 51.063 122.717 51.0693C123.169 51.1817 123.612 51.2885 124.049 51.3875C124.049 51.3875 124.059 51.3868 124.061 51.3907C124.086 51.397 124.108 51.3993 124.132 51.4056C124.588 51.5093 125.039 51.6052 125.481 51.6956C125.54 51.7074 125.598 51.7192 125.654 51.7333C125.83 51.7687 126.003 51.8001 126.177 51.8316C126.257 51.8457 126.341 51.8638 126.421 51.8779C126.734 51.9353 127.038 51.9872 127.34 52.0352C127.365 52.0414 127.39 52.0414 127.414 52.0477C127.486 52.0564 127.555 52.0674 127.626 52.0823C127.881 52.1216 128.136 52.1609 128.386 52.1924C128.479 52.2034 128.576 52.2184 128.669 52.2294C128.747 52.2396 128.828 52.2537 128.907 52.2577C128.979 52.2663 129.048 52.2711 129.123 52.2774C129.427 52.3128 129.724 52.3403 130.016 52.3663C130.092 52.3726 130.17 52.3828 130.245 52.3891C130.289 52.3938 130.327 52.3907 130.371 52.3954C130.642 52.4127 130.906 52.4285 131.166 52.4364C131.235 52.4412 131.307 52.4435 131.377 52.4483C131.392 52.449 131.402 52.4483 131.418 52.449C131.655 52.4546 131.88 52.457 132.106 52.4531C132.173 52.4539 132.245 52.4563 132.316 52.4548C132.316 52.4548 132.322 52.4501 132.329 52.4516C132.481 52.4517 132.625 52.4399 132.773 52.4321C132.897 52.4282 133.027 52.4259 133.143 52.4165C133.143 52.4165 133.146 52.4142 133.153 52.4157C133.226 52.4118 133.294 52.4001 133.368 52.3962C133.541 52.3821 133.715 52.368 133.879 52.3484C133.895 52.3492 133.912 52.3437 133.927 52.3445C134.134 52.3194 134.329 52.2849 134.518 52.2489C134.544 52.2426 134.567 52.2387 134.59 52.2348C134.665 52.2183 134.737 52.2042 134.809 52.1838C134.901 52.1618 135.002 52.1454 135.087 52.1218C135.13 52.1101 135.164 52.0991 135.204 52.0834C135.276 52.063 135.343 52.0411 135.409 52.0191C135.469 52.0018 135.528 51.9846 135.585 51.9634C135.642 51.9422 135.692 51.9195 135.747 51.8944C135.807 51.8708 135.871 51.845 135.925 51.8198C135.956 51.8049 135.992 51.7916 136.023 51.7767C136.101 51.7414 136.163 51.699 136.235 51.6621C136.277 51.6339 136.327 51.6174 136.365 51.5915L136.353 51.5884Z" fill="url(#paint13_linear_4446_110)"/>
<path d="M123.074 33.0893C108.856 24.6491 90.9595 18.6382 83.1001 19.6661C75.2407 20.694 80.3892 28.3682 94.6065 36.8084C108.826 45.2525 126.723 51.2634 134.583 50.2355C142.442 49.2076 137.294 41.5334 123.074 33.0893Z" fill="url(#paint14_linear_4446_110)"/>
<path style="mix-blend-mode:overlay" opacity="0.7" d="M123.074 33.0893C108.856 24.6491 90.9595 18.6382 83.1001 19.6661C75.2407 20.694 80.3892 28.3682 94.6065 36.8084C108.826 45.2525 126.723 51.2634 134.583 50.2355C142.442 49.2076 137.294 41.5334 123.074 33.0893ZM134.557 50.0989C126.733 51.1198 108.834 45.105 94.6637 36.6899C87.8225 32.6292 82.8601 28.6208 80.6926 25.4059C79.679 23.9024 79.3375 22.6653 79.6806 21.7203C80.0531 20.6983 81.2103 20.0495 83.1296 19.8003C90.9532 18.7795 108.846 24.7927 123.016 33.2078C129.86 37.2724 134.823 41.2808 136.99 44.4957C138.004 45.9992 138.345 47.2363 138.002 48.1813C137.633 49.2009 136.472 49.8521 134.553 50.1013L134.557 50.0989Z" fill="url(#paint15_linear_4446_110)"/>
<path d="M115.03 33.5048C106.789 28.6117 97.3406 25.0072 93.9186 25.453C90.4965 25.8988 94.4061 30.2288 102.646 35.1219C105.195 36.6351 107.859 38.0252 110.427 39.2119C110.939 39.8596 111.744 40.6078 112.815 41.3985C112.608 40.933 112.609 40.55 112.8 40.2611C117.57 42.2749 121.734 43.4416 123.764 43.1753C127.186 42.7295 123.276 38.3995 115.03 33.5048ZM104.031 31.579C103.517 31.6456 102.313 31.23 101.328 30.6434C100.344 30.0568 99.9603 29.5332 100.471 29.4626C100.985 29.396 102.192 29.8155 103.177 30.4021C104.161 30.9887 104.542 31.5084 104.031 31.579ZM110.458 35.3939C109.944 35.4605 108.734 35.0433 107.749 34.4567C106.77 33.878 106.387 33.348 106.898 33.2775C107.412 33.2109 108.619 33.6304 109.601 34.2131C110.585 34.7997 110.972 35.3273 110.461 35.3915L110.458 35.3939ZM116.878 39.2072C116.365 39.2738 115.16 38.8582 114.176 38.2716C113.191 37.685 112.807 37.1614 113.319 37.0909C113.832 37.0243 115.039 37.4437 116.024 38.0303C117.009 38.6169 117.39 39.1367 116.878 39.2072Z" fill="url(#paint16_linear_4446_110)"/>
<defs>
<filter id="filter0_f_4446_110" x="566" y="95" width="29" height="27" filterUnits="userSpaceOnUse" color-interpolation-filters="sRGB">
<feFlood flood-opacity="0" result="BackgroundImageFix"/>
<feBlend mode="normal" in="SourceGraphic" in2="BackgroundImageFix" result="shape"/>
<feGaussianBlur stdDeviation="1.5" result="effect1_foregroundBlur_4446_110"/>
</filter>
<radialGradient id="paint0_radial_4446_110" cx="0" cy="0" r="1" gradientUnits="userSpaceOnUse" gradientTransform="translate(238.037 18.1455) rotate(124.564) scale(15.3221 15.3091)">
<stop offset="0.01" stop-color="#33CAFF"/>
<stop offset="0.68" stop-color="#33CAFF"/>
<stop offset="0.73" stop-color="#42CDFF"/>
<stop offset="0.83" stop-color="#6AD6FF"/>
<stop offset="0.97" stop-color="#AAE6FF"/>
<stop offset="1" stop-color="#BBEAFF"/>
</radialGradient>
<linearGradient id="paint1_linear_4446_110" x1="237.603" y1="31.8038" x2="237.545" y2="31.8866" gradientUnits="userSpaceOnUse">
<stop stop-color="#19B79C"/>
<stop offset="0.4" stop-color="#1DBB9D"/>
<stop offset="0.82" stop-color="#29C7A2"/>
<stop offset="1" stop-color="#31CFA6"/>
</linearGradient>
<linearGradient id="paint2_linear_4446_110" x1="246.104" y1="6.62514" x2="246.081" y2="6.65924" gradientUnits="userSpaceOnUse">
<stop stop-color="#19B79C"/>
<stop offset="0.4" stop-color="#1DBB9D"/>
<stop offset="0.82" stop-color="#29C7A2"/>
<stop offset="1" stop-color="#31CFA6"/>
</linearGradient>
<linearGradient id="paint3_linear_4446_110" x1="-1.61799" y1="323.905" x2="11.879" y2="335.55" gradientUnits="userSpaceOnUse">
<stop stop-color="#F2F9FF"/>
<stop offset="0.15" stop-color="#D2E4F2"/>
<stop offset="0.29" stop-color="#B9D4E9"/>
<stop offset="0.43" stop-color="#ABCAE3"/>
<stop offset="0.54" stop-color="#A6C7E2"/>
<stop offset="0.78" stop-color="#A0C4DF"/>
<stop offset="1" stop-color="#88ADCF"/>
</linearGradient>
<linearGradient id="paint4_linear_4446_110" x1="34.4272" y1="334.315" x2="22.737" y2="341.212" gradientUnits="userSpaceOnUse">
<stop stop-color="#F2F9FF"/>
<stop offset="0.59" stop-color="#B4D0E7"/>
<stop offset="0.72" stop-color="#A6C7E2"/>
<stop offset="0.78" stop-color="#A0C4DF"/>
<stop offset="0.9" stop-color="#88ADCF"/>
</linearGradient>
<linearGradient id="paint5_linear_4446_110" x1="23.9598" y1="323.561" x2="15.7329" y2="347.636" gradientUnits="userSpaceOnUse">
<stop stop-color="#F2F9FF"/>
<stop offset="0.8" stop-color="#C0D6F2"/>
<stop offset="1" stop-color="#B3CDEC"/>
</linearGradient>
<linearGradient id="paint6_linear_4446_110" x1="23.9598" y1="323.561" x2="15.7329" y2="347.636" gradientUnits="userSpaceOnUse">
<stop offset="0.08" stop-color="white"/>
<stop offset="1" stop-color="white" stop-opacity="0"/>
</linearGradient>
<linearGradient id="paint7_linear_4446_110" x1="11.4688" y1="368.01" x2="20.8576" y2="343.203" gradientUnits="userSpaceOnUse">
<stop stop-color="#F2F9FF"/>
<stop offset="0.59" stop-color="#B4D0E7"/>
<stop offset="0.72" stop-color="#A6C7E2"/>
<stop offset="0.78" stop-color="#A0C4DF"/>
<stop offset="0.9" stop-color="#88ADCF"/>
</linearGradient>
<linearGradient id="paint8_linear_4446_110" x1="593.034" y1="99.6112" x2="584.44" y2="107.055" gradientUnits="userSpaceOnUse">
<stop stop-color="#F2F9FF"/>
<stop offset="0.15" stop-color="#D2E4F2"/>
<stop offset="0.29" stop-color="#B9D4E9"/>
<stop offset="0.43" stop-color="#ABCAE3"/>
<stop offset="0.54" stop-color="#A6C7E2"/>
<stop offset="0.78" stop-color="#A0C4DF"/>
<stop offset="1" stop-color="#88ADCF"/>
</linearGradient>
<linearGradient id="paint9_linear_4446_110" x1="570.005" y1="106.236" x2="577.458" y2="110.65" gradientUnits="userSpaceOnUse">
<stop stop-color="#F2F9FF"/>
<stop offset="0.59" stop-color="#B4D0E7"/>
<stop offset="0.72" stop-color="#A6C7E2"/>
<stop offset="0.78" stop-color="#A0C4DF"/>
<stop offset="0.9" stop-color="#88ADCF"/>
</linearGradient>
<linearGradient id="paint10_linear_4446_110" x1="576.692" y1="99.3922" x2="581.911" y2="114.725" gradientUnits="userSpaceOnUse">
<stop stop-color="#F2F9FF"/>
<stop offset="0.8" stop-color="#C0D6F2"/>
<stop offset="1" stop-color="#B3CDEC"/>
</linearGradient>
<linearGradient id="paint11_linear_4446_110" x1="576.692" y1="99.3922" x2="581.911" y2="114.725" gradientUnits="userSpaceOnUse">
<stop offset="0.08" stop-color="white"/>
<stop offset="1" stop-color="white" stop-opacity="0"/>
</linearGradient>
<linearGradient id="paint12_linear_4446_110" x1="584.673" y1="127.678" x2="578.716" y2="111.876" gradientUnits="userSpaceOnUse">
<stop stop-color="#F2F9FF"/>
<stop offset="0.59" stop-color="#B4D0E7"/>
<stop offset="0.72" stop-color="#A6C7E2"/>
<stop offset="0.78" stop-color="#A0C4DF"/>
<stop offset="0.9" stop-color="#88ADCF"/>
</linearGradient>
<linearGradient id="paint13_linear_4446_110" x1="77.4498" y1="26.5471" x2="138.47" y2="46.2751" gradientUnits="userSpaceOnUse">
<stop stop-color="#27BCF5"/>
<stop offset="0.16" stop-color="#0794D7"/>
<stop offset="0.17" stop-color="#0C90D3"/>
<stop offset="0.23" stop-color="#1889CC"/>
<stop offset="0.3" stop-color="#1F86C8"/>
<stop offset="0.5" stop-color="#2185C7"/>
<stop offset="0.58" stop-color="#228AD3"/>
<stop offset="0.69" stop-color="#248FDD"/>
<stop offset="0.83" stop-color="#2591E1"/>
<stop offset="0.89" stop-color="#2AA9ED"/>
<stop offset="0.96" stop-color="#30C1FA"/>
<stop offset="1" stop-color="#33CAFF"/>
</linearGradient>
<linearGradient id="paint14_linear_4446_110" x1="105.026" y1="51.3436" x2="115.465" y2="22.1586" gradientUnits="userSpaceOnUse">
<stop offset="0.02" stop-color="#33A0FF"/>
<stop offset="0.33" stop-color="#33BFFF"/>
<stop offset="0.43" stop-color="#33CAFF"/>
<stop offset="1" stop-color="#7BEEFF"/>
</linearGradient>
<linearGradient id="paint15_linear_4446_110" x1="111.252" y1="26.0775" x2="104.099" y2="44.0819" gradientUnits="userSpaceOnUse">
<stop offset="0.08" stop-color="white"/>
<stop offset="1" stop-color="white" stop-opacity="0"/>
</linearGradient>
<linearGradient id="paint16_linear_4446_110" x1="112.803" y1="20.372" x2="103.218" y2="43.7452" gradientUnits="userSpaceOnUse">
<stop stop-color="#F2F9FF"/>
<stop offset="0.8" stop-color="#C0D6F2"/>
<stop offset="1" stop-color="#B3CDEC"/>
</linearGradient>
</defs>
</svg>
