<svg width="612" height="288" viewBox="0 0 612 288" fill="none" xmlns="http://www.w3.org/2000/svg">
<g filter="url(#filter0_f_4446_108)">
<path d="M591.715 282.39C591.715 282.39 591.731 282.401 591.736 282.404C591.773 282.428 592.022 282.572 592.406 282.749C592.438 282.77 592.477 282.779 592.508 282.799C592.554 282.821 592.608 282.841 592.659 282.866C593.914 283.412 595.243 283.691 596.574 283.71C596.574 283.71 596.574 283.71 596.58 283.713C596.726 283.717 596.87 283.711 597.011 283.712C597.707 283.691 598.396 283.6 599.076 283.442C599.397 283.37 599.769 283.264 600.065 283.16C600.267 283.088 600.47 283.015 600.67 282.933C600.674 282.928 600.691 282.924 600.7 282.922L600.724 282.907C600.724 282.907 600.795 282.878 600.824 282.867C600.954 282.815 601.085 282.749 601.225 282.681C601.225 282.681 601.237 282.673 601.242 282.677C601.307 282.644 601.382 282.609 601.451 282.571C601.484 282.554 601.516 282.538 601.549 282.521C601.573 282.507 601.603 282.495 601.63 282.476C601.651 282.466 601.675 282.452 601.696 282.443C602.106 282.218 602.497 281.966 602.877 281.685C602.975 281.613 603.049 281.555 603.092 281.522L603.157 281.467L603.219 281.416C603.219 281.416 603.222 281.411 603.226 281.406L603.236 281.39C603.272 281.368 603.315 281.336 603.346 281.31L603.356 281.294C603.356 281.294 603.368 281.287 603.377 281.285L603.445 281.224C603.476 281.199 603.511 281.169 603.538 281.149L603.619 281.08C603.619 281.08 603.65 281.055 603.665 281.043C603.665 281.043 603.672 281.032 603.675 281.027C603.679 281.021 603.682 281.016 603.685 281.011C603.692 281 603.699 280.989 603.708 280.988L603.795 280.909C603.795 280.909 603.845 280.866 603.867 280.842C603.889 280.819 603.908 280.801 603.93 280.778C603.93 280.778 603.961 280.753 603.972 280.737C603.994 280.714 604.028 280.683 604.05 280.66L604.107 280.606C604.129 280.583 604.155 280.554 604.177 280.531C604.18 280.526 604.184 280.521 604.187 280.515C604.201 280.494 604.225 280.479 604.238 280.458L604.262 280.421L604.309 280.383C604.309 280.383 604.309 280.383 604.312 280.378L604.322 280.362C604.322 280.362 604.338 280.349 604.344 280.339C604.358 280.317 604.385 280.298 604.399 280.276C604.409 280.26 604.425 280.248 604.435 280.232C604.435 280.232 604.479 280.185 604.496 280.159L604.551 280.096C604.551 280.096 604.568 280.07 604.583 280.057C604.597 280.036 604.616 280.018 604.631 280.005C604.645 279.984 604.655 279.968 604.674 279.95C604.694 279.918 604.72 279.89 604.745 279.861L604.814 279.778C604.814 279.778 604.827 279.756 604.834 279.746L604.837 279.74C604.837 279.74 604.877 279.691 604.902 279.662C604.929 279.619 604.958 279.586 604.991 279.546C605.011 279.514 605.028 279.488 605.05 279.465C605.071 279.433 605.091 279.401 605.111 279.369C605.132 279.337 605.152 279.305 605.181 279.271C605.195 279.25 605.208 279.229 605.219 279.213L605.252 279.16C605.252 279.16 605.269 279.133 605.28 279.117C605.29 279.101 605.3 279.085 605.31 279.069C605.422 278.894 605.534 278.718 605.646 278.543C605.67 278.505 605.693 278.468 605.717 278.431C605.741 278.394 605.768 278.351 605.787 278.311C605.804 278.284 605.817 278.263 605.831 278.242C605.868 278.183 605.891 278.123 605.923 278.061C605.937 278.04 605.947 278.024 605.955 277.999C605.996 277.913 606.041 277.83 606.078 277.749C606.102 277.711 606.112 277.673 606.13 277.632C606.13 277.632 606.13 277.632 606.127 277.637C606.127 277.637 606.13 277.632 606.134 277.627C606.137 277.621 606.144 277.611 606.147 277.605C606.174 277.54 606.203 277.484 606.226 277.424C606.248 277.378 606.265 277.329 606.286 277.283C606.332 277.177 606.363 277.092 606.383 277.038C606.493 276.749 606.59 276.458 606.677 276.17C606.73 275.994 606.769 275.84 606.816 275.638C607.01 274.811 607.102 273.957 607.084 273.1C607.079 273.015 607.08 272.933 607.078 272.842C607.076 272.833 607.078 272.819 607.076 272.81C607.066 272.662 607.057 272.514 607.048 272.366C607.049 272.352 607.047 272.343 607.049 272.329L607.056 272.319C607.056 272.319 607.045 272.312 607.048 272.307C607.048 272.307 607.047 272.298 607.045 272.289C607.045 272.289 607.048 272.284 607.046 272.275C607.042 272.235 607.038 272.195 607.034 272.155C607.025 272.075 607.012 271.992 607.004 271.911C606.994 271.868 606.993 271.823 606.984 271.779C606.969 271.687 606.955 271.604 606.941 271.52C606.941 271.52 606.941 271.52 606.94 271.511L606.943 271.506C606.943 271.506 606.934 271.463 606.925 271.442C606.85 271.013 606.77 270.73 606.766 270.712C606.731 270.57 606.687 270.43 606.646 270.284C606.615 270.182 606.584 270.08 606.545 269.965C606.545 269.965 606.541 269.948 606.536 269.945L606.532 269.927C606.457 269.707 606.37 269.472 606.247 269.199C606.247 269.199 606.242 269.196 606.237 269.192C606.237 269.192 606.231 269.189 606.229 269.18C606.175 269.056 606.11 268.925 606.044 268.785C605.986 268.666 605.925 268.552 605.88 268.448L605.663 268.078C605.592 267.958 605.525 267.841 605.466 267.736C605.344 267.531 605.17 267.292 604.98 267.044C604.811 266.831 604.626 266.609 604.445 266.403L604.429 266.393C604.19 266.128 603.962 265.893 603.766 265.723C603.038 265.094 602.977 265.04 602.452 264.698C601.789 264.26 601.27 264.026 601.014 263.915C600.294 263.59 599.685 263.427 599.488 263.376C598.778 263.185 598.33 263.131 597.893 263.084C597.622 263.053 597.432 263.037 597.204 263.034C596.929 263.023 596.644 263.028 596.361 263.042C596.324 263.041 596.293 263.043 596.256 263.042C595.962 263.049 595.571 263.092 595.287 263.142C595.073 263.186 594.787 263.227 594.57 263.276C594.362 263.323 594.081 263.391 593.874 263.46C593.644 263.531 593.545 263.557 593.344 263.639C593.095 263.727 592.848 263.824 592.611 263.927C592.537 263.962 592.457 263.993 592.383 264.028C592.297 264.071 592.211 264.113 592.133 264.153C592.091 264.172 592.034 264.203 591.974 264.239C591.967 264.25 591.953 264.248 591.941 264.255C591.876 264.288 591.803 264.332 591.719 264.383C591.698 264.392 591.683 264.405 591.662 264.414C591.416 264.556 591.119 264.741 590.808 264.962C590.741 265.008 590.652 265.079 590.545 265.153C590.514 265.178 590.486 265.198 590.456 265.223L590.304 265.344C590.274 265.369 590.231 265.401 590.2 265.426L590.165 265.457C590.165 265.457 590.165 265.457 590.162 265.462L590.109 265.511C590.078 265.536 590.044 265.566 590.016 265.586L589.929 265.665C589.929 265.665 589.925 265.67 589.922 265.676C589.575 265.986 589.274 266.295 589.001 266.607L588.981 266.639C588.953 266.659 588.924 266.693 588.904 266.725C588.904 266.725 588.9 266.73 588.897 266.735C588.877 266.767 588.854 266.79 588.832 266.814L588.689 266.992C588.624 267.07 588.544 267.184 588.479 267.262C588.423 267.338 588.357 267.431 588.29 267.523C588.26 267.571 588.233 267.614 588.206 267.656C588.128 267.778 588.026 267.938 587.948 268.06C587.87 268.183 587.78 268.358 587.708 268.483C587.568 268.761 587.381 269.135 587.257 269.423C587.16 269.645 587.045 269.953 586.972 270.184C586.957 270.242 586.939 270.305 586.921 270.368C586.87 270.553 586.812 270.748 586.764 270.904L586.721 271.101C586.681 271.255 586.651 271.408 586.622 271.569L586.603 271.647C586.569 271.827 586.536 272.053 586.514 272.263C586.501 272.353 586.497 272.44 586.485 272.529C586.459 272.767 586.438 273.068 586.447 273.298C586.444 273.304 586.446 273.312 586.447 273.321C586.447 273.531 586.447 273.74 586.461 273.951C586.462 273.996 586.463 274.042 586.467 274.082L586.492 274.322C586.496 274.385 586.501 274.448 586.511 274.514L586.548 274.874C586.564 275.012 586.596 275.264 586.691 275.662L586.695 275.679L586.708 275.717C586.753 275.925 586.818 276.161 586.899 276.453C586.899 276.453 586.907 276.465 586.903 276.47C586.986 276.747 587.142 277.236 587.425 277.828C587.425 277.828 587.436 277.835 587.432 277.84C587.494 277.977 587.566 278.12 587.646 278.261C587.682 278.321 587.714 278.387 587.75 278.447C587.797 278.537 587.847 278.621 587.895 278.697C587.91 278.721 587.924 278.745 587.943 278.772C588.022 278.905 588.11 279.035 588.197 279.166C588.318 279.348 588.445 279.534 588.567 279.679C588.76 279.937 588.974 280.193 589.215 280.444C589.359 280.603 589.506 280.757 589.652 280.888C589.806 281.031 589.97 281.18 590.138 281.325C590.177 281.357 590.216 281.389 590.249 281.418C590.48 281.603 590.725 281.789 590.991 281.966C591.002 281.973 591.012 281.98 591.017 281.983L591.033 281.993C591.244 282.128 591.455 282.262 591.684 282.393L591.715 282.39Z" fill="url(#paint0_radial_4446_108)"/>
<mask id="mask0_4446_108" style="mask-type:luminance" maskUnits="userSpaceOnUse" x="586" y="262" width="22" height="22">
<path d="M597.108 283.699C597.108 283.699 597.103 283.695 597.098 283.692C597.098 283.692 597.093 283.689 597.084 283.691C596.948 283.694 596.799 283.696 596.647 283.689C596.515 283.687 596.383 283.685 596.273 283.682L595.851 283.645C595.712 283.631 595.578 283.62 595.457 283.611C595.226 283.59 594.932 283.538 594.621 283.467C594.354 283.408 594.075 283.335 593.812 283.257L593.796 283.247C593.457 283.15 593.142 283.039 592.911 282.936C592.031 282.547 591.961 282.517 591.421 282.188C590.741 281.777 590.307 281.41 590.095 281.23C589.493 280.719 589.085 280.241 588.95 280.08C588.474 279.523 588.237 279.139 588.006 278.767C587.861 278.54 587.764 278.366 587.662 278.166C587.536 277.921 587.417 277.666 587.305 277.4C587.289 277.367 587.278 277.338 587.261 277.305C587.144 277.035 587.009 276.665 586.935 276.386C586.876 276.176 586.796 275.893 586.751 275.685C586.7 275.473 586.644 275.19 586.616 274.977C586.577 274.736 586.565 274.638 586.546 274.424C586.515 274.157 586.504 273.896 586.498 273.638C586.498 273.556 586.493 273.47 586.494 273.388C586.496 273.292 586.498 273.196 586.501 273.109C586.501 273.063 586.505 272.999 586.512 272.929C586.519 272.918 586.512 272.906 586.513 272.892C586.516 272.818 586.525 272.734 586.53 272.633C586.53 272.61 586.535 272.591 586.534 272.568C586.559 272.285 586.597 271.935 586.662 271.565C586.676 271.484 586.697 271.37 586.725 271.246C586.735 271.207 586.741 271.174 586.751 271.135L586.796 270.947C586.806 270.909 586.818 270.856 586.827 270.817L586.841 270.773C586.841 270.773 586.841 270.773 586.844 270.768L586.86 270.696C586.87 270.657 586.883 270.614 586.89 270.58L586.924 270.468C586.924 270.468 586.928 270.462 586.931 270.457C587.058 270.014 587.215 269.605 587.382 269.226L587.403 269.194C587.409 269.161 587.428 269.12 587.443 269.085C587.443 269.085 587.446 269.08 587.449 269.074C587.47 269.042 587.476 269.009 587.493 268.982L587.594 268.778C587.638 268.686 587.702 268.562 587.751 268.474C587.797 268.39 587.852 268.291 587.908 268.192C587.939 268.144 587.966 268.102 587.993 268.059C588.071 267.937 588.173 267.777 588.251 267.655C588.329 267.533 588.445 267.375 588.528 267.256C588.715 267.009 588.976 266.681 589.185 266.447C589.345 266.266 589.571 266.028 589.749 265.865C589.796 265.827 589.84 265.781 589.89 265.738C590.03 265.61 590.183 265.476 590.31 265.37L590.47 265.247C590.594 265.146 590.722 265.049 590.848 264.957L590.91 264.907C591.058 264.792 591.254 264.67 591.435 264.561C591.511 264.512 591.583 264.468 591.664 264.423C591.869 264.299 592.133 264.153 592.344 264.056C592.347 264.05 592.356 264.048 592.364 264.046C592.554 263.958 592.744 263.87 592.936 263.79C592.978 263.772 593.019 263.753 593.06 263.735L593.284 263.653C593.342 263.63 593.401 263.608 593.465 263.589L593.803 263.467C593.934 263.424 594.176 263.347 594.575 263.257L594.593 263.253L594.633 263.249C594.841 263.202 595.085 263.156 595.375 263.109C595.375 263.109 595.389 263.11 595.392 263.105C595.682 263.058 596.188 262.999 596.845 262.992C596.845 262.992 596.856 262.998 596.859 262.993C597.009 262.991 597.169 262.996 597.334 263.004C597.408 263.006 597.477 263.013 597.55 263.015C597.651 263.02 597.749 263.03 597.833 263.038C597.861 263.041 597.888 263.044 597.922 263.05C598.075 263.065 598.228 263.081 598.389 263.109C598.609 263.136 598.827 263.178 599.009 263.219C599.323 263.285 599.646 263.372 599.982 263.474C600.187 263.537 600.388 263.606 600.567 263.675C600.764 263.749 600.964 263.831 601.168 263.931C601.213 263.953 601.259 263.974 601.299 263.992C601.568 264.119 601.84 264.262 602.112 264.429C602.123 264.435 602.133 264.442 602.138 264.446L602.154 264.456C602.369 264.585 602.576 264.725 602.795 264.872C602.8 264.875 602.81 264.882 602.816 264.885C602.853 264.909 603.089 265.074 603.415 265.342C603.447 265.362 603.471 265.393 603.503 265.413C603.542 265.446 603.586 265.481 603.627 265.522C604.658 266.419 605.474 267.501 606.065 268.694C606.065 268.694 606.065 268.694 606.07 268.697C606.135 268.828 605.449 267.575 605.506 267.708L606.251 269.089C606.529 269.723 606.745 270.385 606.894 271.071C606.964 271.392 607.027 271.769 607.064 272.085C607.092 272.297 607.102 272.513 607.113 272.729C607.109 272.735 607.113 272.752 607.115 272.761L607.112 272.789C607.112 272.789 607.115 272.865 607.117 272.897C607.125 273.036 607.129 273.181 607.123 273.342C607.123 273.342 607.121 273.356 607.127 273.359C607.124 273.433 607.124 273.515 607.118 273.593C607.117 273.63 607.116 273.667 607.115 273.703C607.112 273.731 607.114 273.763 607.108 273.796C607.108 273.819 607.105 273.847 607.105 273.87C607.078 274.331 607.02 274.795 606.93 275.262C606.906 275.381 606.89 275.475 606.874 275.525L606.854 275.602L606.834 275.679C606.834 275.679 606.831 275.685 606.828 275.69L606.817 275.706C606.813 275.748 606.801 275.801 606.792 275.839L606.782 275.855C606.782 275.855 606.785 275.873 606.782 275.878L606.755 275.966C606.746 276.004 606.732 276.048 606.726 276.082L606.698 276.184C606.698 276.184 606.688 276.222 606.683 276.242C606.683 276.242 606.677 276.252 606.673 276.258C606.67 276.263 606.667 276.268 606.663 276.273C606.656 276.284 606.655 276.298 606.651 276.303L606.617 276.416C606.617 276.416 606.599 276.479 606.587 276.509C606.575 276.539 606.567 276.564 606.561 276.597C606.561 276.597 606.551 276.636 606.541 276.652C606.529 276.682 606.516 276.726 606.504 276.756L606.479 276.83C606.467 276.859 606.452 276.895 606.446 276.928C606.443 276.933 606.439 276.939 606.436 276.944C606.422 276.965 606.419 276.993 606.411 277.018L606.387 277.055L606.372 277.113C606.372 277.113 606.372 277.113 606.369 277.118L606.359 277.134C606.359 277.134 606.354 277.154 606.352 277.168C606.339 277.189 606.332 277.222 606.319 277.244C606.309 277.26 606.304 277.279 606.299 277.298C606.299 277.298 606.276 277.358 606.259 277.385L606.225 277.461C606.225 277.461 606.208 277.487 606.203 277.506C606.19 277.528 606.181 277.552 606.176 277.572C606.163 277.593 606.158 277.612 606.15 277.637C606.129 277.669 606.119 277.707 606.099 277.739L606.052 277.837C606.052 277.837 606.038 277.858 606.032 277.868L606.028 277.874C606.028 277.874 606 277.93 605.985 277.966C605.957 278.008 605.939 278.049 605.917 278.095C605.897 278.127 605.88 278.153 605.868 278.183C605.848 278.215 605.827 278.247 605.812 278.282C605.792 278.314 605.772 278.346 605.753 278.387C605.739 278.408 605.726 278.429 605.716 278.445L605.682 278.498C605.682 278.498 605.665 278.525 605.655 278.541C605.644 278.557 605.634 278.573 605.624 278.589C605.512 278.764 605.4 278.94 605.288 279.115C605.265 279.152 605.241 279.19 605.217 279.227C605.193 279.264 605.166 279.307 605.137 279.34C605.12 279.367 605.107 279.388 605.093 279.41C605.056 279.468 605.011 279.515 604.974 279.573C604.96 279.594 604.95 279.61 604.937 279.632C604.88 279.708 604.819 279.781 604.761 279.849C604.737 279.886 604.703 279.916 604.677 279.945C604.677 279.945 604.677 279.945 604.681 279.94C604.681 279.94 604.677 279.945 604.674 279.95C604.67 279.956 604.664 279.966 604.66 279.972C604.618 280.027 604.573 280.073 604.534 280.123C604.502 280.162 604.469 280.201 604.431 280.237C604.355 280.323 604.291 280.387 604.252 280.437C604.042 280.662 603.819 280.871 603.594 281.072C603.457 281.194 603.339 281.298 603.176 281.426C602.512 281.954 601.779 282.406 600.996 282.76C600.917 282.791 600.839 282.831 600.759 282.863C600.756 282.868 600.739 282.872 600.73 282.874C600.592 282.928 600.455 282.991 600.315 283.036C600.303 283.043 600.294 283.045 600.282 283.052L600.276 283.063C600.276 283.063 600.265 283.056 600.262 283.062C600.262 283.062 600.253 283.064 600.244 283.065C600.244 283.065 600.241 283.071 600.232 283.073C600.194 283.086 600.156 283.099 600.118 283.112C600.042 283.138 599.96 283.161 599.884 283.188C599.841 283.197 599.799 283.216 599.756 283.226C599.666 283.25 599.581 283.279 599.503 283.296C599.503 283.296 599.503 283.296 599.495 283.298L599.491 283.303C599.491 283.303 599.448 283.313 599.425 283.314C599.004 283.427 598.716 283.482 598.694 283.483C598.55 283.511 598.4 283.535 598.255 283.555C598.149 283.569 598.043 283.584 597.928 283.601C597.928 283.601 597.911 283.605 597.906 283.601" fill="white"/>
</mask>
<g mask="url(#mask0_4446_108)">
<path d="M600.938 263.732C600.998 263.755 601.052 263.775 601.103 263.8C601.052 263.775 600.992 263.752 600.938 263.732Z" fill="url(#paint1_linear_4446_108)"/>
<path d="M593.535 273.592C591.691 271.653 591.961 269.356 592.439 265.186C593.157 264.829 593.588 264.618 594.507 264.261C601.162 261.787 604.948 266.5 604.293 268.573C604.228 268.776 604.05 269.04 603.76 269.363C603.026 269.838 602.174 270.057 600.396 269.574C601.573 273.722 597.782 275.801 594.997 274.615C594.256 274.299 593.724 273.795 593.535 273.592Z" fill="white"/>
</g>
</g>
<path d="M32.0345 142.802C32.0345 142.802 32.0345 142.774 32.0345 142.76C32.0345 142.691 32.0137 142.261 31.9304 141.631C31.9234 141.576 31.9165 141.52 31.9095 141.465C31.8956 141.389 31.8887 141.305 31.8748 141.215C31.5484 139.179 30.8331 137.26 29.7845 135.549C29.7845 135.549 29.7845 135.542 29.7776 135.535C29.6665 135.348 29.5415 135.167 29.4234 134.987C28.8401 134.121 28.1665 133.311 27.4165 132.577C27.0693 132.23 26.6318 131.842 26.2568 131.551C26.0068 131.35 25.7429 131.156 25.479 130.969C25.4651 130.962 25.4512 130.949 25.4373 130.942L25.4026 130.921C25.354 130.886 25.3123 130.858 25.2637 130.824C25.0901 130.706 24.9095 130.581 24.7082 130.457C24.7082 130.457 24.6943 130.45 24.6873 130.443C24.5901 130.38 24.4859 130.325 24.3818 130.263C24.3331 130.235 24.2845 130.207 24.2359 130.18C24.1943 130.159 24.1595 130.131 24.1109 130.11C24.0762 130.089 24.0484 130.076 24.0137 130.055C23.4026 129.715 22.7637 129.424 22.104 129.168C21.9304 129.099 21.7984 129.05 21.722 129.023L21.604 128.981L21.4859 128.939H21.472H21.4443C21.3887 128.912 21.3123 128.884 21.2498 128.87H21.222C21.222 128.87 21.2012 128.856 21.1943 128.856L21.0623 128.815C21.0068 128.801 20.9373 128.78 20.8887 128.759L20.7359 128.718C20.7359 128.718 20.6804 128.704 20.6526 128.697C20.6456 128.697 20.6387 128.697 20.6248 128.69H20.597C20.597 128.69 20.5623 128.669 20.5484 128.669L20.3818 128.628C20.3401 128.614 20.2845 128.607 20.2429 128.593C20.2012 128.579 20.1526 128.572 20.1109 128.558C20.1109 128.558 20.0554 128.545 20.0276 128.538C19.979 128.524 19.9165 128.51 19.8679 128.503L19.7568 128.475C19.7081 128.461 19.6526 128.455 19.604 128.441C19.597 128.441 19.5831 128.441 19.5762 128.441C19.5345 128.434 19.4998 128.427 19.4581 128.42L19.3887 128.406L19.3054 128.392C19.3054 128.392 19.2984 128.392 19.2915 128.392H19.2637C19.2637 128.392 19.229 128.378 19.2151 128.378C19.1734 128.371 19.1318 128.364 19.0901 128.358C19.0623 128.358 19.0345 128.351 19.0068 128.344C18.9581 128.337 18.9165 128.33 18.8679 128.323L18.7498 128.302C18.7498 128.302 18.7012 128.302 18.6804 128.295C18.6456 128.295 18.6109 128.288 18.5693 128.281C18.5345 128.281 18.4998 128.274 18.4651 128.267C18.4095 128.261 18.347 128.254 18.2915 128.247L18.1318 128.226C18.1318 128.226 18.097 128.226 18.0762 128.226H18.0623C18.0137 128.226 17.9651 128.219 17.9165 128.212C17.847 128.212 17.7706 128.198 17.7012 128.191C17.6456 128.191 17.597 128.184 17.5484 128.177C17.4929 128.177 17.4373 128.177 17.3818 128.171C17.3262 128.171 17.2637 128.164 17.2081 128.164C17.1734 128.164 17.1387 128.164 17.097 128.164H16.9998C16.9998 128.164 16.9512 128.164 16.9234 128.164C16.8956 128.164 16.8679 128.164 16.8401 128.164C16.5276 128.164 16.2151 128.164 15.9026 128.171C15.8331 128.171 15.7637 128.171 15.7012 128.177C15.6318 128.177 15.5623 128.184 15.4929 128.191C15.4512 128.191 15.4026 128.191 15.3679 128.198C15.2637 128.205 15.1665 128.212 15.0693 128.226C15.0345 128.226 14.9998 128.226 14.9651 128.233C14.8193 128.247 14.6804 128.261 14.5484 128.281C14.4859 128.288 14.4234 128.295 14.354 128.309C14.354 128.309 14.3609 128.309 14.3679 128.309H14.354C14.3401 128.309 14.3262 128.309 14.3123 128.309C14.2081 128.323 14.1109 128.337 14.0206 128.351C13.9443 128.364 13.8748 128.371 13.7984 128.385C13.6318 128.413 13.4929 128.441 13.4026 128.461C12.9512 128.552 12.5068 128.662 12.0623 128.794C11.7984 128.87 11.5693 128.946 11.2776 129.05C10.0762 129.48 8.92342 130.055 7.84703 130.768C7.74287 130.838 7.63176 130.914 7.52759 130.99C7.5137 130.997 7.49981 131.011 7.48592 131.018C7.30537 131.149 7.12481 131.281 6.94426 131.42C6.93037 131.433 6.91648 131.44 6.90259 131.454L6.8887 131.468C6.8887 131.468 6.88176 131.475 6.87482 131.482C6.86787 131.482 6.86092 131.496 6.85398 131.496C6.85398 131.496 6.84009 131.503 6.84009 131.51C6.79148 131.551 6.74287 131.586 6.69426 131.627C6.59704 131.704 6.49981 131.787 6.40953 131.863C6.36092 131.905 6.30537 131.953 6.25676 131.995C6.15259 132.085 6.05537 132.175 5.95815 132.258C5.95815 132.258 5.9512 132.265 5.94426 132.272L5.93037 132.286C5.93037 132.286 5.8887 132.327 5.86787 132.348C5.38176 132.798 5.09009 133.124 5.06926 133.145C4.91648 133.304 4.77065 133.477 4.62481 133.65C4.52065 133.768 4.41648 133.9 4.30537 134.031C4.29842 134.038 4.29148 134.052 4.28454 134.059L4.27065 134.08C4.05537 134.35 3.8262 134.662 3.5762 135.029V135.043C3.5762 135.043 3.56926 135.05 3.56231 135.057C3.4512 135.223 3.33315 135.417 3.21509 135.618C3.11092 135.791 3.0137 135.957 2.92342 136.103L2.63176 136.678C2.53454 136.865 2.44426 137.045 2.36093 137.211C2.2012 137.53 2.03453 137.946 1.87481 138.396C1.73592 138.784 1.60398 139.199 1.49287 139.594V139.608L1.48593 139.622C1.34009 140.135 1.22898 140.627 1.17342 141.008C0.965088 142.442 0.951202 142.559 0.937313 143.515C0.923424 144.714 1.04148 145.566 1.10398 145.982C1.27759 147.166 1.56231 148.067 1.65259 148.365C1.98592 149.418 2.28453 150.034 2.56926 150.63C2.74981 150.997 2.88176 151.254 3.06231 151.552C3.27759 151.912 3.50676 152.272 3.75676 152.618C3.78453 152.66 3.81231 152.702 3.84009 152.75C4.08315 153.117 4.4512 153.581 4.74981 153.907C4.97203 154.149 5.2637 154.475 5.49287 154.704C5.72203 154.932 6.03453 155.23 6.28453 155.445C6.56231 155.687 6.67342 155.784 6.93731 155.978C7.24981 156.228 7.5762 156.456 7.89564 156.671C7.99981 156.74 8.10398 156.81 8.21509 156.872C8.34009 156.948 8.46509 157.024 8.5762 157.087C8.63176 157.121 8.71509 157.17 8.81231 157.218C8.8262 157.225 8.84009 157.232 8.85398 157.239C8.9512 157.295 9.06926 157.357 9.19426 157.419C9.22204 157.433 9.24981 157.447 9.27759 157.461C9.65259 157.655 10.1318 157.89 10.6526 158.098C10.7637 158.147 10.9234 158.209 11.1109 158.278C11.1665 158.299 11.2151 158.32 11.2706 158.341L11.5484 158.438C11.604 158.458 11.6804 158.479 11.7429 158.5L11.8123 158.521C11.8123 158.521 11.8193 158.521 11.8262 158.521L11.9304 158.555C11.9859 158.569 12.0554 158.59 12.104 158.611L12.2776 158.659C12.2776 158.659 12.2845 158.659 12.2915 158.659C12.9581 158.846 13.604 158.985 14.2151 159.068H14.2706C14.3193 159.082 14.3818 159.096 14.4443 159.103H14.4581C14.5137 159.11 14.5623 159.117 14.6109 159.124L14.9512 159.165C15.104 159.179 15.3123 159.193 15.4651 159.207C15.6109 159.221 15.7845 159.227 15.9443 159.234C16.0276 159.234 16.1109 159.234 16.1804 159.234C16.3956 159.234 16.6804 159.234 16.8956 159.234C17.1179 159.234 17.4095 159.207 17.6318 159.2C18.097 159.158 18.722 159.082 19.1873 159.006C19.5484 158.943 20.0276 158.846 20.3818 158.749C20.472 158.722 20.5623 158.694 20.6595 158.666C20.9373 158.583 21.229 158.5 21.4651 158.424L21.7498 158.32C21.972 158.244 22.2012 158.154 22.4165 158.071L22.5276 158.029C22.7845 157.932 23.104 157.78 23.3818 157.641C23.4998 157.579 23.6248 157.523 23.7429 157.461C24.0623 157.295 24.4651 157.08 24.7498 156.886C24.7568 156.886 24.7706 156.872 24.7776 156.865C25.0415 156.699 25.3054 156.519 25.5623 156.339C25.6179 156.297 25.6734 156.262 25.729 156.228L26.0068 156.006C26.0831 155.951 26.1595 155.888 26.229 155.826L26.6526 155.486C26.8123 155.355 27.1109 155.105 27.5345 154.669C27.5415 154.669 27.5484 154.655 27.5554 154.648L27.597 154.6C27.8193 154.371 28.0762 154.094 28.3679 153.761C28.3679 153.755 28.3818 153.748 28.3887 153.741C28.6804 153.415 29.1595 152.812 29.6873 151.974C29.6873 151.967 29.6943 151.96 29.7012 151.953C29.8193 151.759 29.9443 151.558 30.0623 151.337C30.1109 151.247 30.1665 151.15 30.2151 151.053C30.2845 150.921 30.3609 150.789 30.4165 150.672C30.4373 150.63 30.4512 150.596 30.472 150.554C30.5762 150.346 30.6734 150.131 30.7706 149.91C30.9026 149.605 31.0345 149.293 31.1248 149.023C31.2915 148.566 31.4443 148.088 31.5762 147.575C31.6595 147.263 31.7359 146.952 31.7845 146.661C31.847 146.349 31.8956 146.023 31.9443 145.691C31.9581 145.614 31.9651 145.545 31.972 145.469C32.0207 145.019 32.0554 144.561 32.0693 144.083C32.0693 144.07 32.0693 144.049 32.0693 144.035V144C32.0693 143.626 32.0693 143.238 32.0484 142.85L32.0345 142.802Z" fill="url(#paint2_radial_4446_108)"/>
<mask id="mask1_4446_108" style="mask-type:luminance" maskUnits="userSpaceOnUse" x="0" y="128" width="33" height="32">
<path d="M29.3331 134.883V134.897C29.3331 134.897 29.34 134.904 29.347 134.911C29.465 135.077 29.5831 135.271 29.7012 135.465C29.8053 135.632 29.9095 135.805 29.9998 135.95L30.2984 136.518C30.3956 136.705 30.4859 136.879 30.5762 137.045C30.7359 137.363 30.9095 137.772 31.0692 138.222C31.2081 138.61 31.347 139.026 31.4581 139.421V139.435L31.4651 139.449C31.6109 139.961 31.7289 140.453 31.7845 140.827C31.9998 142.261 32.0206 142.379 32.0414 143.328C32.0692 144.527 31.9512 145.379 31.8956 145.794C31.7359 146.979 31.4581 147.887 31.3678 148.178C31.0414 149.238 30.7498 149.854 30.472 150.45C30.2984 150.817 30.1595 151.08 29.9859 151.371C29.7776 151.732 29.5484 152.092 29.2984 152.445C29.2706 152.487 29.2428 152.528 29.2151 152.577C28.972 152.944 28.6109 153.415 28.3123 153.741C28.0901 153.983 27.8053 154.316 27.5762 154.544C27.347 154.78 27.0345 155.078 26.7845 155.292C26.5137 155.535 26.3956 155.632 26.1387 155.833C25.8262 156.082 25.5067 156.318 25.1873 156.532C25.0831 156.602 24.9789 156.671 24.8748 156.74C24.7498 156.816 24.6248 156.893 24.5137 156.962C24.4581 156.997 24.3748 157.045 24.2776 157.094C24.2637 157.101 24.2498 157.107 24.2359 157.114C24.1387 157.17 24.0276 157.232 23.8956 157.301C23.8678 157.315 23.8401 157.329 23.8123 157.343C23.4373 157.544 22.9651 157.779 22.4373 157.994C22.3262 158.043 22.1664 158.105 21.9789 158.174C21.9234 158.195 21.8748 158.216 21.8192 158.237L21.5414 158.334C21.4859 158.354 21.4095 158.382 21.347 158.396L21.2776 158.417C21.2776 158.417 21.2706 158.417 21.2637 158.417L21.1595 158.451C21.1039 158.465 21.0345 158.486 20.9859 158.507L20.8123 158.555C20.8123 158.555 20.8053 158.555 20.7984 158.555C20.1317 158.749 19.4928 158.888 18.8817 158.985H18.8262C18.7776 159.006 18.7151 159.013 18.6526 159.019H18.6387C18.5831 159.026 18.5345 159.033 18.4859 159.04L18.1456 159.082C17.9928 159.096 17.7845 159.116 17.6317 159.13C17.4859 159.144 17.3123 159.151 17.1525 159.158C17.0692 159.158 16.9859 159.158 16.9164 159.165C16.7012 159.165 16.4164 159.165 16.2012 159.165C15.9789 159.165 15.6873 159.144 15.465 159.137C14.9998 159.096 14.3748 159.026 13.9095 158.957C13.5484 158.902 13.0692 158.805 12.7151 158.708C12.6248 158.68 12.5345 158.659 12.4373 158.632C12.1595 158.555 11.8678 158.465 11.6317 158.396L11.347 158.292C11.1178 158.216 10.8956 158.133 10.6734 158.043L10.5623 158.001C10.2984 157.904 9.98589 157.759 9.70116 157.62C9.58311 157.565 9.45811 157.502 9.34005 157.44C9.02061 157.281 8.61783 157.066 8.32616 156.872C8.31922 156.872 8.30533 156.858 8.29838 156.851C8.02755 156.685 7.76366 156.512 7.50672 156.325C7.45116 156.283 7.39561 156.248 7.34005 156.214L7.05533 155.992C6.97894 155.937 6.90255 155.874 6.82616 155.819L6.39561 155.486C6.22894 155.362 5.93727 155.105 5.50672 154.676C5.49977 154.676 5.49283 154.662 5.48589 154.655L5.44422 154.607C5.22199 154.378 4.96505 154.108 4.66644 153.775C4.66644 153.768 4.65255 153.761 4.6456 153.754C4.35394 153.429 3.86783 152.833 3.3331 151.995C3.3331 151.988 3.32616 151.981 3.31922 151.974C3.19422 151.78 3.07616 151.579 2.95116 151.364C2.89561 151.274 2.84699 151.177 2.79144 151.08C2.71505 150.949 2.6456 150.817 2.59005 150.699C2.56922 150.665 2.55533 150.623 2.5345 150.582C2.43033 150.374 2.33311 150.159 2.22894 149.937C2.09005 149.632 1.9581 149.328 1.86783 149.057C1.70116 148.607 1.54144 148.122 1.4095 147.616C1.31922 147.305 1.24977 146.993 1.19422 146.709C1.13172 146.397 1.07616 146.072 1.02755 145.739C1.01366 145.663 1.00671 145.594 0.99977 145.517C0.944215 145.067 0.909497 144.61 0.895608 144.132C0.895608 144.118 0.895608 144.097 0.895608 144.083V144.049C0.888664 143.675 0.895606 143.287 0.909495 142.899C0.909495 142.885 0.909495 142.871 0.909495 142.857C0.909495 142.788 0.930328 142.358 1.00672 141.728C1.00672 141.672 1.0206 141.617 1.02755 141.562C1.04144 141.485 1.04838 141.402 1.06227 141.312C1.36783 139.276 2.07616 137.35 3.11088 135.632C3.11088 135.632 3.11088 135.625 3.11783 135.618C3.22894 135.431 2.20116 137.315 2.31922 137.135L3.472 135.063C4.04839 134.191 4.71505 133.38 5.45811 132.639C5.80533 132.285 6.23588 131.897 6.60394 131.607C6.85394 131.406 7.11088 131.205 7.37477 131.018C7.38866 131.011 7.40255 130.997 7.41644 130.99L7.45116 130.969C7.49977 130.935 7.54144 130.907 7.59005 130.872C7.76366 130.754 7.94422 130.63 8.1456 130.505C8.1456 130.505 8.15949 130.498 8.16644 130.491C8.26366 130.429 8.36088 130.366 8.47199 130.304C8.52061 130.276 8.56922 130.249 8.61783 130.221C8.65949 130.2 8.69422 130.172 8.73589 130.152C8.77061 130.131 8.79839 130.117 8.83311 130.096C9.44422 129.757 10.0762 129.452 10.7359 129.189C10.9095 129.119 11.0345 129.071 11.1178 129.043L11.2359 129.002L11.3539 128.96H11.3678H11.3956C11.4512 128.932 11.5275 128.905 11.59 128.884H11.6178C11.6178 128.884 11.6387 128.87 11.6456 128.863L11.7776 128.822C11.8331 128.808 11.9026 128.787 11.9512 128.766L12.1039 128.725C12.1039 128.725 12.1595 128.711 12.1873 128.697C12.1942 128.697 12.2012 128.697 12.215 128.69C12.222 128.69 12.2359 128.69 12.2428 128.683C12.2567 128.683 12.2775 128.676 12.2914 128.669L12.4581 128.621C12.4998 128.607 12.5553 128.593 12.597 128.586C12.6387 128.572 12.6873 128.565 12.7289 128.551C12.7289 128.551 12.7845 128.538 12.8123 128.531C12.8609 128.517 12.9234 128.503 12.972 128.489L13.0831 128.461C13.1317 128.447 13.1873 128.441 13.2359 128.427C13.2428 128.427 13.2567 128.427 13.2637 128.427C13.3053 128.42 13.34 128.413 13.3817 128.406L13.4512 128.392L13.5345 128.378C13.5345 128.378 13.5414 128.378 13.5484 128.378H13.5762C13.5762 128.378 13.6109 128.364 13.6248 128.364C13.6664 128.357 13.7081 128.351 13.7498 128.344C13.7775 128.344 13.8053 128.337 13.8331 128.33C13.8817 128.323 13.9234 128.316 13.972 128.309L14.0901 128.288C14.0901 128.288 14.1387 128.281 14.1595 128.274C14.1942 128.274 14.2289 128.26 14.2706 128.26C14.3053 128.26 14.3401 128.254 14.3748 128.247C14.4303 128.24 14.4928 128.233 14.5484 128.226L14.7081 128.205C14.7081 128.205 14.7428 128.205 14.7637 128.205H14.7776C14.8262 128.205 14.8748 128.191 14.9234 128.191C14.9928 128.184 15.0692 128.177 15.1387 128.17C15.1942 128.17 15.2428 128.163 15.2914 128.157C15.347 128.157 15.4025 128.15 15.4581 128.143C15.5137 128.143 15.5762 128.136 15.6317 128.129C15.6664 128.129 15.7012 128.129 15.7428 128.129H15.8401C15.8401 128.129 15.8887 128.129 15.9164 128.122C15.9442 128.122 15.972 128.122 15.9998 128.122C16.3123 128.115 16.6248 128.115 16.9373 128.122C17.0067 128.122 17.0762 128.122 17.1387 128.122C17.2081 128.122 17.2775 128.122 17.347 128.129C17.3887 128.129 17.4303 128.129 17.472 128.136C17.5762 128.136 17.6734 128.15 17.7706 128.157C17.8053 128.157 17.8401 128.157 17.8748 128.163C18.0206 128.177 18.1595 128.191 18.2914 128.205C18.3539 128.212 18.4164 128.219 18.4859 128.226C18.4859 128.226 18.4789 128.226 18.472 128.226H18.4859C18.4998 128.226 18.5137 128.226 18.5276 128.226C18.6317 128.24 18.7289 128.254 18.8192 128.267C18.8956 128.281 18.9651 128.288 19.0414 128.302C19.2081 128.33 19.347 128.357 19.4373 128.371C19.8887 128.461 20.3331 128.565 20.7776 128.697C21.0414 128.766 21.2775 128.842 21.5623 128.946C22.7706 129.362 23.9234 129.93 25.0067 130.637C25.1109 130.706 25.222 130.782 25.3262 130.851C25.3401 130.858 25.3539 130.872 25.3678 130.879C25.5484 131.004 25.7359 131.135 25.9095 131.274C25.9234 131.288 25.9373 131.295 25.9512 131.309L25.9651 131.322C25.9651 131.322 25.972 131.329 25.9789 131.336C25.9859 131.336 25.9928 131.35 25.9998 131.35C25.9998 131.35 26.0137 131.357 26.0137 131.364C26.0623 131.406 26.1109 131.44 26.1595 131.482C26.2567 131.558 26.3539 131.641 26.4442 131.717C26.4928 131.759 26.5484 131.807 26.597 131.849C26.7012 131.939 26.7984 132.029 26.8956 132.112C26.8956 132.112 26.9026 132.119 26.9095 132.126L26.9234 132.14C26.9234 132.14 26.9651 132.182 26.9859 132.202C27.472 132.646 27.7706 132.971 27.7914 132.992C27.9442 133.151 28.0901 133.318 28.2428 133.491C28.347 133.609 28.4581 133.74 28.5623 133.872C28.5692 133.879 28.5762 133.893 28.5831 133.9" fill="white"/>
</mask>
<g mask="url(#mask1_4446_108)">
<path d="M30.8817 137.613C30.847 137.516 30.8053 137.412 30.7636 137.315C30.7984 137.412 30.84 137.509 30.8817 137.613Z" fill="url(#paint3_linear_4446_108)"/>
<path d="M0.971981 146.217C0.951148 146.127 0.937259 146.037 0.92337 145.954C0.937259 146.044 0.951148 146.127 0.971981 146.217Z" fill="url(#paint4_linear_4446_108)"/>
<path d="M13.8539 147.97C14.6317 147.173 18.3122 135.929 11.1595 134.336C4.09002 133.997 1.96502 143.924 3.65947 145.545C3.72891 145.607 3.84697 145.656 3.93724 145.677C4.84002 145.649 6.04141 145.85 7.49974 146.293C9.06224 146.771 10.7289 147.485 12.3539 148.33C12.5622 148.406 13.2011 148.642 13.8609 147.97M18.1456 132.5C18.9372 131.78 19.7914 130.069 17.3886 129.41C13.6872 128.662 10.0136 131.101 11.2914 132.791C12.347 134.184 16.2081 134.274 18.1386 132.5" fill="#FFF3FF"/>
</g>
<g filter="url(#filter1_d_4446_108)">
<path d="M85.1379 180.748C85.1379 180.748 85.1379 180.708 85.1379 180.692C85.1379 180.59 85.1073 179.964 84.9797 179.038C84.9695 178.957 84.9593 178.875 84.944 178.794C84.9287 178.677 84.9083 178.555 84.8879 178.433C84.4134 175.45 83.3625 172.641 81.8269 170.142C81.8269 170.137 81.8218 170.132 81.8167 170.127C81.6483 169.852 81.4749 169.587 81.2963 169.323C80.4393 168.055 79.4546 166.87 78.3578 165.796C77.8476 165.287 77.215 164.722 76.6641 164.294C76.2967 163.999 75.9141 163.714 75.5264 163.439C75.506 163.424 75.4856 163.409 75.4703 163.399L75.4193 163.363C75.3529 163.317 75.2866 163.271 75.2203 163.226C74.9703 163.053 74.6999 162.874 74.404 162.691C74.404 162.691 74.3836 162.676 74.3734 162.671C74.2306 162.584 74.0826 162.493 73.9296 162.406C73.8582 162.366 73.7867 162.325 73.7204 162.284C73.6592 162.248 73.6031 162.218 73.5419 162.182C73.4959 162.157 73.4449 162.131 73.399 162.106C72.5062 161.612 71.5675 161.18 70.5982 160.803C70.3482 160.706 70.1544 160.635 70.0421 160.594L69.8687 160.533L69.6952 160.472C69.6952 160.472 69.6799 160.467 69.6697 160.462L69.634 160.447C69.5473 160.416 69.435 160.381 69.3534 160.355L69.3126 160.345C69.3126 160.345 69.2871 160.335 69.2718 160.335L69.0779 160.274C69.0014 160.248 68.8994 160.218 68.8228 160.197L68.6035 160.131C68.5627 160.121 68.5218 160.106 68.481 160.096C68.4657 160.096 68.4555 160.091 68.4453 160.085C68.43 160.085 68.4147 160.075 68.3994 160.075C68.3739 160.07 68.3484 160.06 68.328 160.055L68.0831 159.989C68.0219 159.974 67.9454 159.953 67.8739 159.938C67.8076 159.923 67.7413 159.907 67.675 159.892H67.6648C67.624 159.882 67.5831 159.872 67.5423 159.862C67.4658 159.846 67.374 159.826 67.3025 159.806L67.1342 159.77C67.0577 159.755 66.9811 159.739 66.9046 159.724C66.8893 159.724 66.8791 159.719 66.8638 159.714C66.8077 159.704 66.7516 159.689 66.6904 159.678L66.5883 159.658L66.4659 159.633C66.4659 159.633 66.4506 159.633 66.4455 159.633L66.4047 159.622C66.4047 159.622 66.3587 159.612 66.3332 159.612C66.272 159.602 66.2108 159.592 66.1496 159.582C66.1088 159.577 66.068 159.566 66.0322 159.561C65.9659 159.551 65.8945 159.541 65.8282 159.531L65.6496 159.505C65.619 159.505 65.5782 159.495 65.5425 159.49C65.4915 159.485 65.4354 159.475 65.3843 159.47C65.3333 159.465 65.2823 159.454 65.2313 159.449C65.1446 159.439 65.0629 159.429 64.9762 159.419L64.7415 159.393C64.716 159.393 64.6905 159.388 64.665 159.383H64.6497C64.5834 159.373 64.512 159.368 64.4354 159.363C64.3283 159.353 64.2212 159.342 64.114 159.337C64.0375 159.332 63.961 159.327 63.8947 159.322C63.813 159.317 63.7314 159.312 63.6498 159.307C63.5631 159.307 63.4763 159.297 63.3947 159.292C63.3386 159.292 63.2876 159.292 63.2365 159.286H63.0937C63.058 159.276 63.0223 159.281 62.9866 159.276C62.9458 159.276 62.9049 159.276 62.8641 159.276C62.405 159.266 61.9458 159.271 61.4918 159.286C61.3898 159.286 61.2928 159.297 61.201 159.297C61.099 159.302 60.9969 159.307 60.8949 159.312C60.8337 159.312 60.7674 159.322 60.7163 159.322C60.5684 159.332 60.4205 159.348 60.2776 159.358C60.2266 159.358 60.1756 159.368 60.1246 159.373C59.9154 159.393 59.7113 159.419 59.5175 159.444C59.4256 159.454 59.3287 159.47 59.2369 159.48C59.242 159.48 59.2522 159.48 59.2573 159.48C59.2522 159.48 59.242 159.48 59.2318 159.48C59.2114 159.48 59.191 159.485 59.1756 159.49C59.0226 159.51 58.8798 159.536 58.7471 159.556C58.64 159.571 58.5277 159.592 58.4206 159.612C58.1757 159.653 57.9768 159.694 57.8441 159.719C57.186 159.851 56.533 160.019 55.8851 160.208C55.4974 160.315 55.1607 160.426 54.7372 160.579C52.9772 161.205 51.2885 162.045 49.7121 163.098C49.554 163.205 49.4009 163.312 49.2479 163.419C49.2275 163.434 49.2071 163.45 49.1866 163.46C48.9214 163.648 48.6561 163.847 48.3959 164.045C48.3755 164.06 48.3551 164.076 48.3347 164.096L48.3092 164.111C48.3092 164.111 48.2939 164.121 48.2888 164.126C48.2786 164.137 48.2684 164.142 48.2581 164.152C48.2479 164.157 48.2429 164.162 48.2326 164.172C48.1612 164.228 48.0898 164.284 48.0184 164.34C47.8755 164.457 47.7378 164.569 47.6 164.686C47.5235 164.752 47.447 164.813 47.3756 164.88C47.2225 165.012 47.0797 165.139 46.9419 165.266C46.9368 165.272 46.9266 165.277 46.9215 165.282L46.9062 165.297C46.8756 165.328 46.8399 165.353 46.8093 165.384C46.1002 166.04 45.6716 166.518 45.641 166.549C45.4216 166.783 45.2074 167.032 44.9931 167.287C44.8401 167.465 44.687 167.648 44.5238 167.847C44.5136 167.857 44.4982 167.872 44.488 167.887L44.4625 167.918C44.1462 168.315 43.8095 168.768 43.4422 169.307L43.432 169.318C43.432 169.318 43.4269 169.328 43.4218 169.328C43.4167 169.338 43.4116 169.343 43.4065 169.348C43.2381 169.597 43.0698 169.872 42.8963 170.167C42.7484 170.417 42.6004 170.666 42.4678 170.88L42.0393 171.72C41.8964 171.989 41.7638 172.254 41.6413 172.498C41.4118 172.962 41.1618 173.572 40.9322 174.229C40.7332 174.804 40.5394 175.404 40.3761 175.99V176.01C40.3761 176.01 40.3659 176.025 40.3659 176.035C40.1568 176.789 39.9884 177.506 39.9119 178.061C39.6109 180.163 39.5854 180.336 39.565 181.73C39.5395 183.486 39.7231 184.733 39.8098 185.334C40.0598 187.064 40.4782 188.387 40.6159 188.82C41.1006 190.362 41.5393 191.263 41.9576 192.133C42.2178 192.673 42.4168 193.049 42.677 193.477C42.9882 194.006 43.33 194.525 43.6973 195.039C43.7381 195.1 43.7789 195.161 43.8248 195.227C44.182 195.767 44.7227 196.449 45.1615 196.922C45.488 197.273 45.9114 197.752 46.2532 198.093C46.5899 198.429 47.0491 198.866 47.4164 199.177C47.8194 199.528 47.9878 199.67 48.3704 199.955C48.8295 200.322 49.304 200.658 49.7784 200.973C49.7784 200.973 49.7784 200.973 49.7835 200.973C49.9366 201.075 50.0896 201.177 50.2478 201.268C50.4314 201.38 50.6151 201.492 50.7733 201.584C50.86 201.635 50.9824 201.701 51.1202 201.777C51.1406 201.788 51.161 201.803 51.1814 201.813C51.3242 201.894 51.4926 201.981 51.6762 202.083C51.7171 202.103 51.7579 202.123 51.7987 202.149C52.3497 202.434 53.0486 202.775 53.8189 203.08C53.9873 203.146 54.2169 203.238 54.4923 203.34C54.5689 203.37 54.6505 203.401 54.7219 203.426L55.125 203.569C55.2117 203.599 55.3239 203.635 55.4055 203.66L55.5076 203.691C55.5076 203.691 55.5229 203.691 55.528 203.696L55.681 203.742C55.7576 203.767 55.8596 203.798 55.9361 203.818L56.1861 203.889C56.1861 203.889 56.2014 203.889 56.2065 203.895C57.186 204.174 58.1247 204.368 59.0226 204.495L59.1093 204.51C59.1859 204.521 59.2726 204.536 59.3644 204.546C59.3746 204.546 59.3797 204.546 59.3899 204.546C59.4664 204.556 59.543 204.566 59.6093 204.577L60.1092 204.632C60.3337 204.653 60.6398 204.678 60.8643 204.694C61.0735 204.709 61.3285 204.724 61.5683 204.729H61.5734C61.6959 204.729 61.8132 204.739 61.9203 204.739C62.2366 204.744 62.655 204.739 62.9662 204.739C63.2876 204.739 63.7161 204.704 64.0375 204.688C64.7211 204.627 65.6343 204.515 66.3077 204.409C66.8383 204.322 67.5423 204.18 68.0576 204.032C68.1902 203.996 68.3229 203.956 68.4657 203.915C68.8738 203.798 69.2922 203.671 69.6442 203.564L70.0574 203.406C70.389 203.289 70.7155 203.167 71.0369 203.034L71.2002 202.973C71.5828 202.826 72.0369 202.607 72.4552 202.403C72.6338 202.317 72.8072 202.23 72.9807 202.139C73.45 201.9 74.0367 201.579 74.455 201.294C74.4703 201.284 74.4856 201.274 74.501 201.263C74.8887 201.019 75.2764 200.76 75.6539 200.49C75.7356 200.434 75.8223 200.378 75.8937 200.322L76.3069 199.996C76.4192 199.91 76.5263 199.823 76.6334 199.737L77.2558 199.243C77.4956 199.055 77.9242 198.683 78.5517 198.042C78.5619 198.032 78.5721 198.021 78.5823 198.011L78.6435 197.945C78.97 197.609 79.3424 197.207 79.7761 196.719C79.7863 196.708 79.7965 196.693 79.8067 196.683C80.2301 196.199 80.9392 195.324 81.7045 194.092C81.7096 194.082 81.7198 194.072 81.7249 194.062C81.8983 193.782 82.0769 193.482 82.2554 193.161C82.2554 193.161 82.2554 193.161 82.2554 193.156C82.332 193.019 82.4085 192.881 82.485 192.739C82.5922 192.545 82.6942 192.352 82.7758 192.179C82.8013 192.123 82.8319 192.062 82.8574 192.006C83.0054 191.706 83.1533 191.39 83.2911 191.064C83.49 190.622 83.6788 190.169 83.8114 189.772C84.0563 189.105 84.2757 188.397 84.4696 187.654C84.592 187.201 84.6991 186.743 84.7705 186.321C84.8624 185.863 84.9389 185.39 85.0001 184.901C85.0154 184.789 85.0307 184.682 85.0409 184.575C85.1175 183.919 85.1634 183.242 85.1787 182.545C85.1787 182.519 85.1787 182.494 85.1787 182.474V182.428C85.1889 181.878 85.1787 181.318 85.1481 180.743L85.1379 180.748Z" fill="url(#paint5_radial_4446_108)"/>
<mask id="mask2_4446_108" style="mask-type:luminance" maskUnits="userSpaceOnUse" x="39" y="159" width="47" height="46">
<path d="M81.1789 169.155L81.1891 169.165C81.1891 169.165 81.1942 169.175 81.1993 169.175C81.2044 169.185 81.2095 169.19 81.2146 169.195C81.383 169.44 81.5564 169.719 81.7299 170.01C81.8829 170.259 82.0309 170.503 82.1635 170.717L82.5972 171.552C82.74 171.821 82.8778 172.086 83.0002 172.325C83.2349 172.788 83.4848 173.394 83.7246 174.05C83.9287 174.62 84.1277 175.221 84.296 175.806V175.827C84.296 175.827 84.3062 175.842 84.3113 175.852C84.5307 176.605 84.699 177.323 84.7858 177.878C85.1072 179.98 85.1327 180.153 85.1633 181.542C85.2041 183.298 85.0306 184.55 84.949 185.15C84.7143 186.886 84.3062 188.209 84.1736 188.642C83.6991 190.189 83.2706 191.095 82.8573 191.97C82.6023 192.51 82.4033 192.891 82.1482 193.324C81.8421 193.853 81.5054 194.377 81.1432 194.896C81.1024 194.957 81.0616 195.019 81.0157 195.085C80.6585 195.624 80.128 196.311 79.6943 196.79C79.3678 197.146 78.9495 197.629 78.6128 197.97C78.2761 198.311 77.8271 198.754 77.4598 199.065C77.0568 199.421 76.8935 199.563 76.516 199.853C76.0569 200.22 75.5926 200.566 75.1182 200.881C75.1182 200.881 75.1182 200.881 75.1131 200.881C74.96 200.983 74.807 201.085 74.6539 201.182C74.4703 201.299 74.2917 201.411 74.1285 201.502C74.0417 201.553 73.9244 201.619 73.7866 201.701C73.7662 201.711 73.7458 201.726 73.7254 201.736C73.5826 201.818 73.4142 201.91 73.2306 202.006C73.1898 202.027 73.1489 202.052 73.1081 202.072C72.5572 202.362 71.8633 202.709 71.0981 203.024C70.9297 203.09 70.7002 203.187 70.4298 203.289C70.3532 203.319 70.2716 203.35 70.2002 203.38L69.7972 203.523C69.7104 203.553 69.5982 203.589 69.5166 203.62L69.4145 203.65C69.4145 203.65 69.3992 203.65 69.3941 203.655L69.2411 203.706C69.1646 203.732 69.0625 203.762 68.986 203.787L68.736 203.864C68.736 203.864 68.7207 203.864 68.7156 203.869C67.7412 204.154 66.8025 204.357 65.9046 204.495L65.8179 204.51C65.7414 204.52 65.6546 204.536 65.5628 204.546C65.5526 204.546 65.5475 204.546 65.5373 204.546C65.4608 204.556 65.3843 204.566 65.3179 204.576L64.818 204.637C64.5935 204.663 64.2925 204.688 64.0629 204.709C63.8538 204.729 63.5987 204.739 63.3589 204.749H63.3538C63.2314 204.754 63.114 204.76 63.0069 204.76C62.6906 204.77 62.2723 204.76 61.9611 204.765C61.6397 204.765 61.2111 204.734 60.8897 204.719C60.2061 204.663 59.2929 204.561 58.6144 204.454C58.0838 204.373 57.3798 204.23 56.8645 204.093C56.7319 204.057 56.5992 204.017 56.4564 203.976C56.0483 203.859 55.6248 203.737 55.2728 203.635L54.8596 203.482C54.528 203.37 54.2015 203.248 53.875 203.121L53.7117 203.06C53.3291 202.917 52.8699 202.703 52.4567 202.5C52.2782 202.413 52.1047 202.327 51.9312 202.24C51.4568 202.001 50.8752 201.691 50.4467 201.406C50.4314 201.396 50.4161 201.385 50.4008 201.375C50.0079 201.131 49.6202 200.876 49.2427 200.607C49.1611 200.551 49.0743 200.495 48.9978 200.444L48.5846 200.123C48.4723 200.037 48.3652 199.95 48.253 199.864L47.6255 199.375C47.3857 199.187 46.9521 198.82 46.3195 198.184C46.3092 198.174 46.299 198.164 46.2888 198.154L46.2276 198.087C45.896 197.752 45.5236 197.355 45.0849 196.866C45.0747 196.856 45.0644 196.841 45.0542 196.83C44.6308 196.352 43.9115 195.482 43.1309 194.255C43.1258 194.245 43.1156 194.235 43.1105 194.225C42.932 193.945 42.7534 193.644 42.5697 193.329C42.5697 193.329 42.5697 193.329 42.5697 193.324C42.4932 193.186 42.4167 193.049 42.3402 192.912C42.233 192.718 42.131 192.525 42.0443 192.352C42.0188 192.296 41.9882 192.235 41.9576 192.179C41.8096 191.878 41.6617 191.563 41.5137 191.237C41.3148 190.794 41.1209 190.341 40.9831 189.95C40.7332 189.288 40.5087 188.581 40.3097 187.837C40.1822 187.385 40.07 186.927 39.9985 186.504C39.9067 186.046 39.8251 185.573 39.7588 185.084C39.7434 184.972 39.7281 184.865 39.7128 184.758C39.6312 184.102 39.5802 183.425 39.5598 182.728C39.5598 182.702 39.5598 182.677 39.5598 182.657V182.611C39.5445 182.061 39.5496 181.501 39.5751 180.926C39.5751 180.906 39.5751 180.885 39.5751 180.87C39.5751 180.768 39.6006 180.142 39.7179 179.216C39.7281 179.135 39.7383 179.053 39.7485 178.972C39.7639 178.855 39.7843 178.733 39.7996 178.611C40.2485 175.628 41.279 172.809 42.7942 170.295C42.7942 170.289 42.7993 170.284 42.8044 170.279C42.9677 170.004 41.4576 172.768 41.6361 172.498L43.3197 169.465C44.1666 168.188 45.141 166.997 46.2276 165.913C46.7378 165.399 47.3653 164.834 47.9061 164.396C48.2734 164.096 48.6509 163.811 49.0386 163.536C49.059 163.521 49.0794 163.505 49.0947 163.49L49.1458 163.454C49.2121 163.409 49.2784 163.358 49.3447 163.312C49.5947 163.139 49.8651 162.956 50.1559 162.772C50.1559 162.772 50.1763 162.757 50.1865 162.752C50.3293 162.666 50.4773 162.574 50.6303 162.482C50.7018 162.442 50.7681 162.401 50.8395 162.36C50.9007 162.325 50.9568 162.294 51.0181 162.258C51.064 162.233 51.115 162.208 51.1609 162.182C52.0537 161.683 52.9822 161.241 53.9515 160.859C54.2015 160.757 54.3953 160.686 54.5076 160.645L54.681 160.584L54.8494 160.523C54.8494 160.523 54.8647 160.518 54.8749 160.513L54.9106 160.498C54.9922 160.467 55.1096 160.431 55.1912 160.401L55.232 160.386C55.232 160.386 55.2575 160.375 55.2728 160.37L55.4667 160.309C55.5432 160.284 55.6452 160.253 55.7218 160.228L55.9411 160.162C55.9819 160.151 56.0228 160.136 56.0636 160.126C56.0789 160.126 56.0891 160.121 56.0993 160.116C56.1146 160.116 56.1299 160.106 56.1452 160.106C56.1707 160.101 56.1962 160.09 56.2166 160.085L56.4615 160.019C56.5227 160.004 56.5992 159.984 56.6656 159.963C56.7319 159.948 56.7982 159.933 56.8594 159.912H56.8696C56.9104 159.902 56.9513 159.892 56.9921 159.882C57.0686 159.861 57.1604 159.841 57.2318 159.826L57.4002 159.79C57.4767 159.775 57.5532 159.755 57.6298 159.739C57.6451 159.739 57.6553 159.734 57.6706 159.729C57.7267 159.719 57.7828 159.704 57.844 159.693L57.9461 159.673L58.0685 159.648C58.0685 159.648 58.0838 159.648 58.0889 159.648L58.1297 159.637C58.1297 159.637 58.1756 159.627 58.2012 159.622C58.2624 159.612 58.3236 159.602 58.3848 159.587C58.4256 159.581 58.4664 159.571 58.5021 159.566C58.5685 159.556 58.6399 159.546 58.7062 159.531L58.8848 159.5C58.9154 159.5 58.9562 159.49 58.9919 159.485C59.0429 159.475 59.099 159.47 59.1501 159.459C59.2011 159.454 59.2521 159.444 59.3031 159.439C59.3898 159.429 59.4715 159.419 59.5582 159.408L59.7929 159.378C59.8184 159.378 59.8439 159.373 59.8694 159.368H59.8847C59.951 159.358 60.0224 159.352 60.099 159.342C60.2061 159.332 60.3132 159.322 60.4204 159.312C60.4969 159.307 60.5734 159.296 60.6397 159.291C60.7214 159.286 60.803 159.281 60.8846 159.276C60.9713 159.271 61.0581 159.266 61.1397 159.261C61.1958 159.261 61.2468 159.261 61.2978 159.256L61.4407 159.246C61.4764 159.246 61.5121 159.246 61.5478 159.246C61.5886 159.246 61.6295 159.246 61.6703 159.246C62.1294 159.23 62.5886 159.23 63.0426 159.246C63.1446 159.246 63.2416 159.251 63.3334 159.256C63.4354 159.256 63.5375 159.266 63.6395 159.271C63.7007 159.271 63.767 159.276 63.8181 159.281C63.966 159.291 64.1139 159.302 64.2568 159.317C64.3078 159.317 64.3588 159.327 64.4098 159.332C64.619 159.352 64.8231 159.373 65.0169 159.398C65.1088 159.408 65.2057 159.419 65.2975 159.434C65.2924 159.434 65.2822 159.434 65.2771 159.434C65.2873 159.434 65.2924 159.434 65.3026 159.434C65.323 159.434 65.3434 159.439 65.3587 159.444C65.5118 159.464 65.6546 159.485 65.7924 159.505C65.8995 159.52 66.0118 159.541 66.1189 159.556C66.3689 159.597 66.5627 159.632 66.6954 159.658C67.3586 159.785 68.0116 159.943 68.6595 160.131C69.0472 160.238 69.389 160.345 69.8125 160.492C71.5776 161.103 73.2714 161.933 74.858 162.971C75.0161 163.078 75.1692 163.18 75.3273 163.287C75.3477 163.302 75.3682 163.317 75.3886 163.327C75.6589 163.516 75.9242 163.709 76.1844 163.907C76.2048 163.923 76.2252 163.938 76.2456 163.953L76.2711 163.968C76.2711 163.968 76.2864 163.979 76.2915 163.984C76.3018 163.994 76.312 163.999 76.3222 164.009C76.3324 164.014 76.3375 164.019 76.3477 164.03C76.4191 164.086 76.4905 164.142 76.5619 164.198C76.7048 164.315 76.8476 164.427 76.9803 164.538C77.0568 164.6 77.1333 164.666 77.2098 164.732C77.3629 164.864 77.5108 164.991 77.6435 165.114C77.6486 165.119 77.6588 165.124 77.6639 165.129L77.6792 165.144C77.7098 165.175 77.7455 165.2 77.7761 165.231C78.4903 165.882 78.924 166.355 78.9546 166.386C79.174 166.62 79.3933 166.864 79.6127 167.119C79.7658 167.297 79.9239 167.48 80.0872 167.679C80.0974 167.689 80.1127 167.704 80.1229 167.719" fill="white"/>
</mask>
<g mask="url(#mask2_4446_108)">
<path d="M83.444 173.155C83.393 173.007 83.3369 172.865 83.2757 172.722C83.3318 172.86 83.3879 173.007 83.444 173.155Z" fill="url(#paint6_linear_4446_108)"/>
<path d="M39.6618 185.751C39.6363 185.618 39.6108 185.491 39.5904 185.364C39.6108 185.491 39.6363 185.624 39.6618 185.751Z" fill="url(#paint7_linear_4446_108)"/>
<path d="M79.5107 188.53C77.0721 191.105 74.2407 191.441 72.1745 191.685C67.6239 192.225 63.1497 191.146 58.6348 191.008C58.2318 189.446 57.992 188.504 57.1859 186.29C54.7218 179.557 52.5996 173.745 54.7984 169.567C57.4053 164.625 62.7569 163.012 68.1136 165.551C68.1391 165.561 68.1749 165.582 68.2004 165.592C71.0318 167.5 72.2204 169.541 72.4449 172.875C80.8473 170.213 84.3827 180.779 80.7198 186.891C80.4035 187.415 79.929 188.082 79.5107 188.53Z" fill="white"/>
</g>
</g>
<path d="M607.498 16.2801C607.498 16.2801 607.498 16.2508 607.498 16.2362C607.498 16.163 607.476 15.7092 607.388 15.0432C607.38 14.9846 607.373 14.9261 607.366 14.8675C607.351 14.787 607.344 14.6992 607.329 14.604C606.985 12.4522 606.23 10.4248 605.124 8.61704C605.124 8.61704 605.124 8.60972 605.117 8.60241C605 8.40479 604.868 8.21449 604.743 8.0242C604.128 7.10932 603.417 6.25299 602.626 5.47717C602.26 5.11122 601.799 4.70135 601.403 4.39395C601.139 4.1817 600.861 3.97677 600.583 3.77915C600.568 3.77183 600.553 3.7572 600.539 3.74988L600.502 3.72792C600.451 3.69132 600.407 3.66205 600.356 3.62545C600.172 3.50103 599.982 3.36929 599.77 3.23754C599.77 3.23754 599.755 3.23023 599.748 3.22291C599.645 3.15704 599.535 3.09848 599.425 3.03261C599.374 3.00333 599.323 2.97406 599.271 2.94478C599.227 2.92282 599.191 2.89355 599.14 2.87159C599.103 2.84963 599.074 2.83499 599.037 2.81304C598.392 2.4544 597.718 2.14701 597.023 1.8762C596.839 1.80301 596.7 1.75178 596.62 1.7225L596.495 1.67859L596.371 1.63467H596.356H596.327C596.268 1.60539 596.187 1.57612 596.122 1.56148H596.092C596.092 1.56148 596.07 1.54685 596.063 1.54685L595.924 1.50293C595.865 1.4883 595.792 1.46634 595.741 1.44438L595.579 1.40046C595.579 1.40046 595.521 1.38582 595.492 1.37851C595.484 1.37851 595.477 1.37851 595.462 1.37119C595.455 1.37119 595.44 1.37119 595.433 1.36387C595.418 1.36387 595.396 1.35655 595.382 1.34923L595.206 1.30532C595.162 1.29068 595.103 1.28336 595.059 1.26872C595.015 1.25408 594.964 1.24676 594.92 1.23213C594.92 1.23213 594.862 1.21749 594.832 1.21017C594.781 1.19553 594.715 1.18089 594.664 1.17357L594.547 1.1443C594.495 1.12966 594.437 1.12234 594.385 1.1077C594.378 1.1077 594.363 1.1077 594.356 1.1077C594.312 1.10039 594.276 1.09306 594.232 1.08574L594.158 1.07111L594.07 1.05647C594.07 1.05647 594.063 1.05647 594.056 1.05647H594.027C594.027 1.05647 593.99 1.04183 593.975 1.04183C593.931 1.03451 593.887 1.02719 593.843 1.01987C593.814 1.01987 593.785 1.01256 593.756 1.00524C593.704 0.997919 593.66 0.990595 593.609 0.983276L593.484 0.96132C593.484 0.96132 593.433 0.961324 593.411 0.954005C593.375 0.954005 593.338 0.946683 593.294 0.939364C593.257 0.939364 593.221 0.932047 593.184 0.924728C593.126 0.917409 593.06 0.910085 593.001 0.902766L592.833 0.88081C592.833 0.88081 592.796 0.88081 592.774 0.88081H592.759C592.708 0.88081 592.657 0.873494 592.605 0.866174C592.532 0.866174 592.452 0.851537 592.378 0.844218C592.32 0.844218 592.268 0.836896 592.217 0.829577C592.159 0.829577 592.1 0.829581 592.041 0.822262C591.983 0.822262 591.917 0.814941 591.858 0.814941C591.822 0.814941 591.785 0.814941 591.741 0.814941H591.639C591.639 0.814941 591.587 0.814941 591.558 0.814941C591.529 0.814941 591.499 0.814941 591.47 0.814941C591.14 0.814941 590.811 0.814943 590.481 0.822262C590.408 0.822262 590.335 0.822258 590.269 0.829577C590.195 0.829577 590.122 0.836899 590.049 0.844218C590.005 0.844218 589.954 0.844214 589.917 0.851533C589.807 0.858852 589.705 0.866172 589.602 0.88081C589.565 0.88081 589.529 0.880812 589.492 0.888131C589.338 0.902769 589.192 0.917407 589.053 0.939364C588.987 0.946683 588.921 0.954003 588.848 0.968641C588.848 0.968641 588.855 0.968641 588.862 0.968641H588.848C588.833 0.968641 588.818 0.968641 588.804 0.968641C588.694 0.983279 588.591 0.997915 588.496 1.01255C588.415 1.02719 588.342 1.03451 588.262 1.04915C588.086 1.07843 587.939 1.1077 587.844 1.12966C587.368 1.22481 586.899 1.34191 586.43 1.48097C586.152 1.56148 585.91 1.64199 585.603 1.75178C584.335 2.20556 583.119 2.81304 581.984 3.5669C581.874 3.64009 581.757 3.7206 581.647 3.80111C581.632 3.80843 581.618 3.82307 581.603 3.83038C581.412 3.96945 581.222 4.10851 581.032 4.25489C581.017 4.26953 581.002 4.27685 580.988 4.29149L580.973 4.30612C580.973 4.30612 580.966 4.31345 580.958 4.32076C580.951 4.32076 580.944 4.3354 580.936 4.3354C580.936 4.3354 580.922 4.34272 580.922 4.35004C580.87 4.39396 580.819 4.43055 580.768 4.47446C580.665 4.55497 580.563 4.6428 580.468 4.72331C580.416 4.76722 580.358 4.81846 580.306 4.86237C580.197 4.95752 580.094 5.05267 579.991 5.14049C579.991 5.14049 579.984 5.14782 579.977 5.15514L579.962 5.16977C579.962 5.16977 579.918 5.21369 579.896 5.23565C579.383 5.71138 579.076 6.05538 579.054 6.07734C578.893 6.24567 578.739 6.42865 578.585 6.61162C578.475 6.73605 578.365 6.87511 578.248 7.01417C578.241 7.02149 578.233 7.03613 578.226 7.04345L578.211 7.06541C577.984 7.35085 577.743 7.6802 577.479 8.06811V8.08275C577.479 8.08275 577.479 8.09007 577.464 8.09739C577.347 8.27305 577.222 8.47798 577.098 8.69024C576.988 8.87321 576.886 9.04887 576.79 9.20257L576.483 9.81005C576.38 10.0077 576.285 10.198 576.197 10.3736C576.028 10.7103 575.853 11.1494 575.684 11.6252C575.538 12.035 575.398 12.4742 575.281 12.8914V12.906L575.274 12.9206C575.12 13.4623 575.003 13.9819 574.944 14.3845C574.725 15.8995 574.71 16.0239 574.695 17.0339C574.681 18.3001 574.805 19.2004 574.871 19.6395C575.054 20.8911 575.355 21.8426 575.45 22.1573C575.801 23.2698 576.116 23.9212 576.417 24.5506C576.607 24.9385 576.746 25.2093 576.937 25.524C577.164 25.9046 577.406 26.2852 577.669 26.6512C577.699 26.6951 577.728 26.739 577.757 26.7902C578.014 27.1781 578.402 27.6685 578.717 28.0125C578.951 28.2687 579.259 28.6127 579.501 28.8542C579.742 29.0957 580.072 29.4104 580.336 29.6373C580.629 29.8935 580.746 29.996 581.024 30.2009C581.354 30.4644 581.698 30.7059 582.035 30.9328C582.145 31.006 582.255 31.0792 582.372 31.1451C582.504 31.2256 582.636 31.3061 582.753 31.372C582.812 31.4086 582.9 31.4598 583.002 31.511C583.017 31.5183 583.031 31.5257 583.046 31.533C583.149 31.5915 583.273 31.6574 583.405 31.7233C583.434 31.7379 583.464 31.7525 583.493 31.7672C583.888 31.9721 584.394 32.221 584.943 32.4405C585.068 32.4918 585.229 32.5576 585.427 32.6308C585.485 32.6528 585.537 32.6747 585.595 32.6967L585.888 32.7992C585.947 32.8211 586.027 32.8431 586.093 32.865L586.167 32.887C586.167 32.887 586.174 32.887 586.181 32.887L586.291 32.9236C586.35 32.9382 586.423 32.9602 586.474 32.9821L586.657 33.0334C586.657 33.0334 586.665 33.0334 586.672 33.0334C587.375 33.231 588.056 33.3774 588.701 33.4652H588.76C588.811 33.4798 588.877 33.4945 588.943 33.5018H588.957C589.016 33.5091 589.067 33.5164 589.119 33.5238L589.478 33.5677C589.639 33.5823 589.858 33.5969 590.02 33.6116C590.173 33.6262 590.357 33.6335 590.525 33.6409C590.613 33.6409 590.701 33.6409 590.774 33.6409C591.001 33.6409 591.302 33.6409 591.529 33.6409C591.763 33.6409 592.071 33.6116 592.305 33.6043C592.796 33.5603 593.455 33.4798 593.946 33.3993C594.327 33.3335 594.832 33.231 595.206 33.1285C595.301 33.0993 595.396 33.07 595.499 33.0407C595.792 32.9529 596.092 32.865 596.349 32.7845L596.649 32.6747C596.883 32.5942 597.125 32.4991 597.352 32.4113L597.469 32.3673C597.74 32.2649 598.077 32.1039 598.37 31.9575C598.495 31.8916 598.627 31.8331 598.751 31.7672C599.088 31.5915 599.513 31.3646 599.813 31.1597C599.821 31.1597 599.835 31.1451 599.843 31.1377C600.121 30.9621 600.399 30.7718 600.671 30.5815C600.729 30.5376 600.788 30.501 600.846 30.4644L601.139 30.2302C601.22 30.1716 601.3 30.1058 601.374 30.0399L601.821 29.6813C601.989 29.5422 602.304 29.2787 602.751 28.8176C602.758 28.8176 602.766 28.803 602.773 28.7956L602.817 28.7444C603.051 28.5029 603.322 28.2101 603.63 27.8588C603.63 27.8515 603.645 27.8442 603.652 27.8369C603.96 27.4929 604.465 26.8561 605.022 25.9705C605.022 25.9632 605.029 25.9559 605.036 25.9485C605.161 25.7436 605.293 25.5314 605.417 25.2971C605.469 25.202 605.527 25.0995 605.578 24.9971C605.652 24.858 605.732 24.7189 605.791 24.5945C605.813 24.5506 605.827 24.514 605.849 24.4701C605.959 24.2505 606.062 24.0236 606.164 23.7894C606.304 23.4674 606.443 23.138 606.538 22.8526C606.714 22.3695 606.875 21.8645 607.014 21.3229C607.102 20.9935 607.183 20.6642 607.234 20.3568C607.3 20.0274 607.351 19.6834 607.402 19.3321C607.417 19.2516 607.424 19.1784 607.432 19.0979C607.483 18.6222 607.52 18.1391 607.534 17.6341C607.534 17.6195 607.534 17.5975 607.534 17.5829V17.5463C607.534 17.1511 607.534 16.7412 607.512 16.3313L607.498 16.2801Z" fill="url(#paint8_radial_4446_108)"/>
<mask id="mask3_4446_108" style="mask-type:luminance" maskUnits="userSpaceOnUse" x="574" y="0" width="34" height="34">
<path d="M604.648 7.9145V7.92914C604.648 7.92914 604.655 7.93646 604.663 7.94377C604.787 8.11943 604.912 8.32437 605.036 8.5293C605.146 8.70496 605.256 8.88793 605.351 9.04163L605.666 9.64179C605.769 9.83941 605.864 10.0297 605.959 10.198C606.128 10.5347 606.311 10.9665 606.479 11.4423C606.626 11.8521 606.772 12.2913 606.89 12.7085V12.7231L606.897 12.7378C607.051 13.2794 607.175 13.799 607.234 14.1942C607.461 15.7093 607.483 15.8337 607.505 16.8364C607.534 18.1026 607.41 19.0029 607.351 19.442C607.183 20.6936 606.89 21.6523 606.794 21.9597C606.45 23.0796 606.142 23.731 605.849 24.3604C605.666 24.7483 605.52 25.0264 605.337 25.3338C605.117 25.7144 604.875 26.095 604.611 26.4683C604.582 26.5122 604.553 26.5561 604.524 26.6073C604.267 26.9952 603.886 27.4929 603.571 27.8369C603.337 28.0931 603.037 28.4444 602.795 28.686C602.553 28.9275 602.223 29.2495 601.96 29.4764C601.674 29.7326 601.55 29.835 601.279 30.0473C600.949 30.3108 600.612 30.5596 600.275 30.7865C600.165 30.8597 600.055 30.9329 599.945 31.0061C599.813 31.0866 599.682 31.1671 599.564 31.2403C599.506 31.2769 599.418 31.3281 599.315 31.3794C599.301 31.3867 599.286 31.394 599.271 31.4013C599.169 31.4599 599.052 31.5257 598.912 31.5989C598.883 31.6136 598.854 31.6282 598.825 31.6428C598.429 31.8551 597.931 32.1039 597.374 32.3308C597.257 32.3821 597.088 32.4479 596.891 32.5211C596.832 32.5431 596.781 32.565 596.722 32.587L596.429 32.6895C596.371 32.7114 596.29 32.7407 596.224 32.7553L596.151 32.7773C596.151 32.7773 596.144 32.7773 596.136 32.7773L596.026 32.8139C595.968 32.8285 595.894 32.8505 595.843 32.8724L595.66 32.9237C595.66 32.9237 595.653 32.9237 595.645 32.9237C594.942 33.1286 594.268 33.275 593.624 33.3775H593.565C593.514 33.3994 593.448 33.4067 593.382 33.4141H593.367C593.309 33.4214 593.257 33.4287 593.206 33.436L592.847 33.4799C592.686 33.4946 592.466 33.5165 592.305 33.5312C592.151 33.5458 591.968 33.5531 591.8 33.5604C591.712 33.5604 591.624 33.5604 591.551 33.5678C591.324 33.5678 591.023 33.5678 590.796 33.5678C590.562 33.5678 590.254 33.5458 590.02 33.5385C589.529 33.4946 588.87 33.4214 588.379 33.3482C587.998 33.2896 587.492 33.1872 587.119 33.0847C587.024 33.0554 586.928 33.0335 586.826 33.0042C586.533 32.9237 586.225 32.8285 585.976 32.7553L585.676 32.6456C585.434 32.565 585.2 32.4772 584.965 32.3821L584.848 32.3382C584.57 32.2357 584.24 32.082 583.94 31.9356C583.815 31.8771 583.683 31.8112 583.559 31.7453C583.222 31.577 582.797 31.3501 582.489 31.1452C582.482 31.1452 582.467 31.1305 582.46 31.1232C582.174 30.9475 581.896 30.7646 581.625 30.5669C581.566 30.523 581.508 30.4864 581.449 30.4498L581.149 30.2156C581.068 30.1571 580.988 30.0912 580.907 30.0327L580.453 29.6813C580.277 29.5496 579.969 29.2788 579.515 28.825C579.508 28.825 579.501 28.8104 579.493 28.8031L579.449 28.7518C579.215 28.5103 578.944 28.2249 578.629 27.8735C578.629 27.8662 578.614 27.8589 578.607 27.8516C578.299 27.5076 577.787 26.8781 577.222 25.9925C577.222 25.9852 577.215 25.9779 577.208 25.9706C577.076 25.7656 576.951 25.5534 576.82 25.3265C576.761 25.2314 576.71 25.1289 576.651 25.0264C576.571 24.8874 576.497 24.7483 576.439 24.6239C576.417 24.5873 576.402 24.5434 576.38 24.4995C576.27 24.2799 576.168 24.053 576.058 23.8188C575.911 23.4967 575.772 23.1747 575.677 22.8893C575.501 22.4135 575.333 21.9012 575.193 21.3669C575.098 21.0375 575.025 20.7082 574.966 20.4081C574.9 20.0788 574.842 19.7348 574.79 19.3834C574.776 19.3029 574.769 19.2297 574.761 19.1492C574.703 18.6735 574.666 18.1904 574.651 17.6854C574.651 17.6708 574.651 17.6488 574.651 17.6342V17.5976C574.644 17.2024 574.651 16.7925 574.666 16.3826C574.666 16.368 574.666 16.3534 574.666 16.3387C574.666 16.2655 574.688 15.8118 574.769 15.1457C574.769 15.0872 574.783 15.0286 574.79 14.9701C574.805 14.8895 574.812 14.8017 574.827 14.7066C575.149 12.5548 575.897 10.5201 576.988 8.70496C576.988 8.70496 576.988 8.69764 576.995 8.69032C577.113 8.49271 576.028 10.4835 576.153 10.2932L577.369 8.10479C577.977 7.1826 578.68 6.32627 579.464 5.54313C579.83 5.16986 580.284 4.75999 580.673 4.45259C580.936 4.24034 581.207 4.02808 581.486 3.83047C581.5 3.82315 581.515 3.80852 581.53 3.8012L581.566 3.77924C581.618 3.74264 581.662 3.71337 581.713 3.67677C581.896 3.55235 582.086 3.4206 582.299 3.28886C582.299 3.28886 582.313 3.28155 582.321 3.27423C582.423 3.20835 582.526 3.14248 582.643 3.07661C582.694 3.04733 582.746 3.01806 582.797 2.98878C582.841 2.96683 582.878 2.93755 582.921 2.91559C582.958 2.89363 582.987 2.879 583.024 2.85704C583.669 2.49841 584.335 2.17637 585.031 1.89824C585.214 1.82505 585.346 1.77382 585.434 1.74454L585.559 1.70063L585.683 1.65672H585.698H585.727C585.786 1.62744 585.866 1.59817 585.932 1.57621H585.961C585.961 1.57621 585.983 1.56157 585.991 1.55425L586.13 1.51033C586.189 1.4957 586.262 1.47374 586.313 1.45178L586.474 1.40787C586.474 1.40787 586.533 1.39323 586.562 1.37859C586.569 1.37859 586.577 1.37859 586.591 1.37128C586.599 1.37128 586.613 1.37127 586.621 1.36396C586.635 1.36396 586.657 1.35663 586.672 1.34931L586.848 1.29808C586.892 1.28344 586.95 1.26881 586.994 1.26149C587.038 1.24685 587.09 1.23953 587.133 1.22489C587.133 1.22489 587.192 1.21025 587.221 1.20294C587.273 1.1883 587.339 1.17366 587.39 1.15902L587.507 1.12975C587.558 1.11511 587.617 1.10779 587.668 1.09315C587.676 1.09315 587.69 1.09315 587.698 1.09315C587.741 1.08583 587.778 1.07851 587.822 1.07119L587.895 1.05656L587.983 1.04192C587.983 1.04192 587.991 1.04192 587.998 1.04192H588.027C588.027 1.04192 588.064 1.02728 588.078 1.02728C588.122 1.01996 588.166 1.01264 588.21 1.00532C588.24 1.00532 588.269 0.998001 588.298 0.990682C588.349 0.983363 588.393 0.976045 588.445 0.968726L588.569 0.94677C588.569 0.94677 588.621 0.939448 588.642 0.932129C588.679 0.932129 588.716 0.917493 588.76 0.917493C588.796 0.917493 588.833 0.910171 588.87 0.902852C588.928 0.895533 588.994 0.888215 589.053 0.880895L589.221 0.858939C589.221 0.858939 589.258 0.858939 589.28 0.858939H589.294C589.346 0.858939 589.397 0.844304 589.448 0.844304C589.522 0.836985 589.602 0.829666 589.675 0.822347C589.734 0.822347 589.785 0.815025 589.837 0.807706C589.895 0.807706 589.954 0.80039 590.012 0.793071C590.071 0.793071 590.137 0.785748 590.195 0.778429C590.232 0.778429 590.269 0.778429 590.313 0.778429H590.415C590.415 0.778429 590.466 0.778433 590.496 0.771114C590.525 0.771114 590.554 0.771114 590.584 0.771114C590.913 0.763795 591.243 0.763795 591.573 0.771114C591.646 0.771114 591.719 0.771114 591.785 0.771114C591.858 0.771114 591.932 0.77111 592.005 0.778429C592.049 0.778429 592.1 0.778431 592.137 0.78575C592.247 0.78575 592.349 0.800387 592.452 0.807706C592.488 0.807706 592.525 0.807708 592.561 0.815027C592.715 0.829665 592.862 0.844301 593.001 0.858939C593.067 0.866258 593.133 0.873576 593.206 0.880895C593.206 0.880895 593.199 0.880895 593.191 0.880895H593.206C593.221 0.880895 593.235 0.880895 593.25 0.880895C593.36 0.895534 593.462 0.910175 593.558 0.924814C593.638 0.939452 593.712 0.946767 593.792 0.961405C593.968 0.990682 594.114 1.01996 594.21 1.03459C594.686 1.12974 595.155 1.23953 595.623 1.37859C595.902 1.45178 596.151 1.53229 596.451 1.64208C597.726 2.08122 598.942 2.68138 600.084 3.42793C600.194 3.50112 600.312 3.58162 600.421 3.65481C600.436 3.66213 600.451 3.67677 600.465 3.68409C600.656 3.81583 600.854 3.9549 601.037 4.10128C601.051 4.11591 601.066 4.12324 601.081 4.13787L601.095 4.15251C601.095 4.15251 601.103 4.15983 601.11 4.16715C601.117 4.16715 601.125 4.18179 601.132 4.18179C601.132 4.18179 601.147 4.1891 601.147 4.19642C601.198 4.23302 601.249 4.27694 601.3 4.32085C601.403 4.40136 601.506 4.48919 601.601 4.56969C601.652 4.61361 601.711 4.66484 601.762 4.70876C601.872 4.80391 601.974 4.89905 602.077 4.98688C602.077 4.98688 602.084 4.9942 602.092 5.00152L602.106 5.01616C602.106 5.01616 602.15 5.06007 602.172 5.08203C602.685 5.55045 603 5.89444 603.022 5.9164C603.183 6.08474 603.337 6.2604 603.498 6.44337C603.608 6.5678 603.725 6.70686 603.835 6.84592C603.842 6.85324 603.85 6.86788 603.857 6.8752" fill="white"/>
</mask>
<g mask="url(#mask3_4446_108)">
<path d="M606.282 10.7981C606.245 10.6957 606.201 10.5859 606.157 10.4834C606.194 10.5859 606.238 10.6883 606.282 10.7981Z" fill="url(#paint9_linear_4446_108)"/>
<path d="M574.732 19.8885C574.71 19.7933 574.695 19.6982 574.681 19.6104C574.695 19.7055 574.71 19.7933 574.732 19.8885Z" fill="url(#paint10_linear_4446_108)"/>
<path d="M603.059 19.7129C604.45 16.412 601.674 6.26049 593.777 8.01706C586.906 10.7397 588.555 21.3085 590.767 22.1501C591.118 22.2819 591.375 22.2307 591.602 22.1794C593.316 21.5719 595.14 21.1035 596.957 20.8327C598.898 20.5399 600.59 20.5107 601.945 20.701C602.121 20.6936 602.648 20.6644 603.051 19.7129M596.517 3.7281C595.645 2.48386 593.177 1.41528 590.708 1.8471C588.042 2.50582 588.1 4.78204 590.093 5.98969C592.825 7.65843 597.257 6.68499 596.861 4.51123C596.817 4.27703 596.678 3.95499 596.517 3.7281Z" fill="white"/>
</g>
<g filter="url(#filter2_f_4446_108)">
<path d="M55.8521 72.6864C55.8521 72.6864 55.8848 72.6756 55.9044 72.6691C55.9958 72.6389 56.5596 72.4162 57.3717 72.0245C57.4479 71.9921 57.5154 71.9553 57.5894 71.9163C57.6896 71.8687 57.7941 71.8124 57.9051 71.754C60.4919 70.4204 62.7449 68.6034 64.579 66.4395C64.579 66.4395 64.5899 66.4286 64.5877 66.4221C64.7862 66.1899 64.9803 65.9446 65.1679 65.7015C66.071 64.5336 66.8591 63.2806 67.5125 61.9491C67.8272 61.3235 68.1464 60.5805 68.3785 59.946C68.5404 59.5158 68.6806 59.0855 68.8165 58.6422C68.8231 58.6183 68.8318 58.6009 68.8384 58.577L68.8559 58.5205C68.8822 58.4466 68.8998 58.3684 68.9195 58.2966C69.0007 58.0163 69.0818 57.7142 69.1631 57.3903C69.1631 57.3903 69.1697 57.3664 69.1719 57.3512C69.207 57.1947 69.2466 57.0295 69.2796 56.8665C69.2972 56.7883 69.3082 56.7122 69.3258 56.6339C69.3412 56.5709 69.35 56.51 69.3632 56.4405C69.3742 56.3861 69.3809 56.3405 69.3919 56.2861C69.5725 55.321 69.6879 54.3339 69.7403 53.3315C69.7562 53.0727 69.7632 52.8748 69.7613 52.7596L69.7682 52.5834L69.7686 52.4094C69.7686 52.4094 69.7643 52.3964 69.7665 52.3812L69.7688 52.3442C69.769 52.2572 69.7671 52.1419 69.7694 52.0615L69.7695 52.018C69.7695 52.018 69.7674 51.9897 69.7696 51.9745L69.7636 51.7809C69.7594 51.7026 69.7618 51.6004 69.7577 51.5221L69.7495 51.3003C69.7496 51.2568 69.7432 51.2154 69.7454 51.1785C69.7411 51.1654 69.739 51.1589 69.7412 51.1437C69.7368 51.1306 69.7391 51.1154 69.7413 51.1002C69.7348 51.0806 69.7392 51.0501 69.7393 51.0284L69.7246 50.787C69.7182 50.7239 69.7162 50.6521 69.7077 50.5825C69.7013 50.5194 69.695 50.4563 69.6929 50.3846L69.6908 50.378C69.6909 50.3345 69.6845 50.2932 69.6802 50.2584C69.6695 50.1823 69.6632 50.0974 69.6612 50.0257L69.6442 49.8647C69.6335 49.7885 69.6315 49.7168 69.6208 49.6406C69.6164 49.6276 69.6121 49.6145 69.6143 49.5993C69.6101 49.5427 69.5994 49.4883 69.5952 49.4318L69.5845 49.3339L69.5674 49.2164C69.5674 49.2164 69.5631 49.2034 69.5609 49.1968L69.548 49.1577C69.548 49.1577 69.5459 49.1076 69.546 49.0859C69.5396 49.0228 69.5289 48.9684 69.5159 48.9075C69.503 48.8683 69.5031 48.8248 69.4988 48.79C69.4903 48.7204 69.4774 48.6595 69.4623 48.592L69.4345 48.4202C69.4345 48.4202 69.4194 48.3527 69.4151 48.3179C69.4065 48.27 69.3958 48.2156 69.3872 48.1678C69.3721 48.1221 69.37 48.072 69.3615 48.0242C69.3486 47.9415 69.3292 47.861 69.3098 47.7805L69.2647 47.5564C69.2647 47.5564 69.2496 47.5107 69.2475 47.4824L69.2432 47.4693C69.2303 47.4084 69.213 47.3344 69.198 47.267C69.1721 47.1669 69.1528 47.0646 69.1269 46.9645C69.1032 46.8927 69.0946 46.8231 69.073 46.7578C69.0471 46.6794 69.0299 46.6055 69.0127 46.5315C68.9868 46.4531 68.9674 46.3726 68.948 46.2921C68.9307 46.2399 68.9156 46.1942 68.9005 46.1484L68.8573 46.0179C68.8531 45.9831 68.8423 45.9504 68.8315 45.9178C68.8185 45.8786 68.8077 45.8459 68.7948 45.8068C68.6631 45.3867 68.5184 44.971 68.3671 44.5574C68.3369 44.466 68.3001 44.3768 68.2655 44.2941C68.2353 44.2026 68.1964 44.1069 68.1596 44.0176C68.1402 43.9588 68.1142 43.9022 68.0926 43.8587C68.0407 43.7237 67.9845 43.5975 67.9261 43.4647C67.911 43.419 67.8893 43.3754 67.8677 43.3319C67.7855 43.149 67.7033 42.9661 67.6188 42.7985C67.5777 42.7179 67.5431 42.6352 67.502 42.5546C67.502 42.5546 67.5063 42.5677 67.5085 42.5742C67.5063 42.5677 67.5041 42.5611 67.502 42.5546C67.4955 42.535 67.4912 42.522 67.4782 42.5045C67.4132 42.3739 67.3505 42.2498 67.2899 42.1322C67.2444 42.0386 67.1903 41.9406 67.1383 41.8491C67.0235 41.6336 66.9326 41.4681 66.8676 41.3592C66.5449 40.7995 66.1961 40.2485 65.8254 39.7191C65.6109 39.3989 65.4028 39.1201 65.1383 38.7802C64.0325 37.364 62.7503 36.0713 61.3155 34.9522C61.17 34.841 61.0246 34.7297 60.8813 34.625C60.8617 34.6097 60.8422 34.5945 60.8248 34.5857C60.5686 34.4024 60.3125 34.2191 60.0497 34.038C60.0302 34.0227 60.0107 34.0075 59.9846 33.9944L59.9651 33.9791C59.9651 33.9791 59.9477 33.9704 59.9455 33.9638C59.9368 33.9595 59.926 33.9486 59.9173 33.9442C59.9152 33.9377 59.8999 33.9354 59.8912 33.9311C59.8174 33.8831 59.7436 33.835 59.6698 33.787C59.5221 33.691 59.3745 33.5949 59.2311 33.512C59.1486 33.4596 59.0682 33.4137 58.9857 33.3613C58.8163 33.2652 58.6534 33.167 58.5014 33.0796C58.5014 33.0796 58.484 33.0709 58.4819 33.0644L58.4645 33.0556C58.4645 33.0556 58.3928 33.0141 58.3581 32.9966C57.5436 32.5489 56.9766 32.3018 56.9353 32.2865C56.6529 32.1553 56.3596 32.035 56.0663 31.9147C55.8577 31.8316 55.6404 31.7441 55.4101 31.6609C55.3927 31.6521 55.3775 31.6499 55.3601 31.6412L55.321 31.6324C54.8604 31.466 54.3475 31.2952 53.739 31.1198L53.726 31.1241C53.726 31.1241 53.7151 31.1132 53.7086 31.1153C53.7021 31.1175 53.6934 31.1131 53.6847 31.1087C53.4065 31.0341 53.1 30.9617 52.7805 30.8935C52.5066 30.8319 52.2327 30.7704 51.998 30.7176L51.098 30.5807C50.8067 30.5321 50.5241 30.488 50.2675 30.4569C49.774 30.3883 49.1369 30.3455 48.465 30.3287C47.8821 30.3186 47.2689 30.3258 46.6838 30.3527L46.6642 30.3592C46.6642 30.3592 46.649 30.357 46.6403 30.3526C45.8834 30.3856 45.1743 30.4535 44.6478 30.548C42.6309 30.9107 42.4656 30.9364 41.1793 31.34C39.5645 31.8451 38.4714 32.3949 37.9489 32.6546C36.4378 33.4079 35.3551 34.186 35 34.4483C33.73 35.3609 33.039 36.0312 32.3698 36.6799C31.9513 37.0791 31.6679 37.3829 31.3538 37.7475C30.9635 38.188 30.5905 38.6591 30.2305 39.1475C30.1847 39.2061 30.1454 39.2626 30.0931 39.3233C29.7113 39.8118 29.2465 40.5088 28.9429 41.0582C28.7223 41.4644 28.4057 41.9965 28.2024 42.4114C27.997 42.8197 27.7304 43.3715 27.5619 43.8038C27.3651 44.2818 27.2841 44.4752 27.1374 44.9076C26.9447 45.4421 26.7717 45.9702 26.6291 46.5027C26.5852 46.6766 26.5391 46.8439 26.4952 47.0178C26.4469 47.2221 26.4029 47.4177 26.3677 47.596C26.3479 47.6894 26.3258 47.8199 26.295 47.9677C26.2885 47.9916 26.2884 48.0133 26.2818 48.0372C26.2532 48.1916 26.218 48.3698 26.1827 48.5698C26.1761 48.6155 26.1673 48.6546 26.1606 48.7002C26.0657 49.2894 25.9639 50.0329 25.9142 50.8244C25.9051 50.994 25.8915 51.2375 25.8756 51.518C25.8732 51.5985 25.8709 51.679 25.8663 51.7529L25.8588 52.1682C25.8586 52.2552 25.8605 52.3705 25.8581 52.451L25.8623 52.551C25.8623 52.551 25.8666 52.5641 25.8687 52.5706L25.8684 52.7228C25.8725 52.8011 25.8701 52.9033 25.8743 52.9816L25.8846 53.2318C25.8846 53.2318 25.8889 53.2448 25.891 53.2514C25.9322 54.2301 26.0388 55.1437 26.1868 56.0075L26.1996 56.0901C26.2103 56.1663 26.2297 56.2468 26.2426 56.3295C26.2447 56.336 26.2469 56.3425 26.2512 56.3556C26.2684 56.4296 26.2791 56.5057 26.292 56.5666L26.3909 57.0409C26.4405 57.2564 26.5116 57.5371 26.5611 57.7525C26.6106 57.9462 26.6753 58.1855 26.7422 58.4097C26.7789 58.5207 26.8091 58.6339 26.8415 58.7318C26.9365 59.0191 27.0639 59.4043 27.1589 59.6916C27.256 59.9854 27.4182 60.3664 27.5285 60.6559C27.7945 61.2633 28.1667 62.0601 28.4763 62.6459C28.7144 63.1031 29.0588 63.7064 29.3514 64.1311C29.4229 64.2379 29.5031 64.349 29.5854 64.4666C29.8195 64.8021 30.0644 65.1484 30.2616 65.4381L30.5305 65.7693C30.7343 66.0351 30.9447 66.2988 31.1659 66.5516L31.2743 66.6823C31.5193 66.9852 31.8599 67.3361 32.1745 67.6522C32.3069 67.7895 32.437 67.9203 32.5737 68.049C32.9382 68.4065 33.4091 68.8447 33.7912 69.1458C33.802 69.1567 33.8194 69.1654 33.8302 69.1763C34.1775 69.4598 34.527 69.7282 34.8896 69.9922C34.9656 70.0467 35.0437 70.1078 35.1132 70.1645L35.5388 70.4439C35.6495 70.5159 35.7624 70.5945 35.8797 70.6643L36.518 71.0834C36.7656 71.2406 37.2282 71.5222 38.0123 71.9003C38.021 71.9047 38.0384 71.9134 38.0493 71.9243L38.1275 71.9636C38.5337 72.1625 39.0116 72.3811 39.5917 72.6239C39.6004 72.6283 39.6177 72.637 39.633 72.6392C40.2044 72.8776 41.2212 73.2584 42.5775 73.5922C42.584 73.5901 42.6014 73.5988 42.6101 73.6032C42.9252 73.68 43.2534 73.7526 43.5947 73.8208C43.7425 73.8516 43.8882 73.8759 44.0425 73.9045C44.2512 73.9442 44.4577 73.9773 44.6469 74.0016C44.7077 74.0105 44.7686 74.0193 44.8295 74.0282C45.1491 74.0746 45.4795 74.1102 45.8231 74.1414C46.2884 74.1904 46.7624 74.222 47.1625 74.2272C47.8432 74.2484 48.563 74.2349 49.3004 74.1867C49.755 74.1595 50.2052 74.1192 50.6121 74.0571C51.0646 74.0016 51.5171 73.9244 51.9805 73.8364C52.0893 73.8149 52.1916 73.7955 52.2873 73.7784C52.9096 73.645 53.545 73.4856 54.1892 73.287C54.2088 73.2806 54.2349 73.2719 54.2545 73.2654L54.3002 73.2503C54.8051 73.0906 55.3188 72.9135 55.839 72.7125L55.8521 72.6864Z" fill="url(#paint11_radial_4446_108)"/>
<mask id="mask4_4446_108" style="mask-type:luminance" maskUnits="userSpaceOnUse" x="25" y="30" width="45" height="45">
<path d="M65.2792 65.556L65.2661 65.5603C65.2661 65.5603 65.2639 65.5755 65.2574 65.5777C65.2509 65.5798 65.2465 65.5885 65.2421 65.5972C65.0654 65.8295 64.8691 66.0682 64.6532 66.3135C64.4701 66.5262 64.2869 66.7389 64.1385 66.9255L63.5063 67.5765C63.3014 67.7891 63.1008 67.993 62.9155 68.1775C62.5624 68.5333 62.083 68.9453 61.5557 69.366C61.0959 69.7281 60.6058 70.0857 60.1222 70.4195L60.1026 70.426C60.1026 70.426 60.0939 70.4434 60.0873 70.4455C59.46 70.8703 58.8589 71.2429 58.3755 71.4897C56.5465 72.4205 56.3963 72.4919 55.1338 72.9456C53.5406 73.516 52.3396 73.7393 51.7652 73.8423C50.1073 74.1515 48.7698 74.181 48.3305 74.1887C46.7711 74.2263 45.8123 74.1087 44.8839 73.9956C44.31 73.9247 43.9056 73.8628 43.4296 73.7595C42.8536 73.6385 42.2689 73.4914 41.6821 73.316C41.6104 73.2963 41.5474 73.2809 41.467 73.2568C40.8628 73.0944 40.0762 72.8185 39.507 72.5649C39.0834 72.3791 38.5185 72.1385 38.1014 71.9287C37.6866 71.7255 37.1457 71.448 36.7461 71.2035C36.2987 70.9458 36.1163 70.8323 35.7429 70.5791C35.2652 70.2736 34.8092 69.9463 34.3794 69.6103C34.2427 69.5034 34.0972 69.3922 33.9648 69.2766C33.8064 69.1479 33.6458 69.0127 33.5134 68.8971C33.4418 68.8339 33.3398 68.7445 33.2269 68.6442C33.2074 68.6289 33.1944 68.6115 33.1748 68.5962C33.0598 68.4894 32.9253 68.3673 32.7777 68.2277C32.7452 68.195 32.7148 68.1689 32.6823 68.1362C32.2483 67.7219 31.7254 67.1922 31.2071 66.5886C31.0922 66.46 30.9382 66.2791 30.7626 66.0547C30.7127 65.9915 30.6563 65.9305 30.6086 65.8739L30.3571 65.5514C30.305 65.4817 30.2378 65.388 30.188 65.3248L30.1251 65.2442C30.1251 65.2442 30.1208 65.2312 30.1186 65.2246L30.0276 65.1026C29.9842 65.0373 29.9214 64.9567 29.878 64.8913L29.7372 64.6844C29.7372 64.6844 29.7328 64.6713 29.7307 64.6648C29.1737 63.8566 28.7015 63.0639 28.3075 62.2888L28.2685 62.2147C28.2317 62.1472 28.1993 62.071 28.1603 61.997C28.1582 61.9905 28.156 61.9839 28.1517 61.9709C28.1149 61.9034 28.0846 61.8337 28.0586 61.7771L27.8552 61.3373C27.7666 61.1349 27.6497 60.8693 27.5611 60.6668C27.4789 60.4839 27.3946 60.251 27.3081 60.0333C27.2714 59.9224 27.2282 59.8135 27.1893 59.7177C27.0877 59.4326 26.9669 59.0452 26.8719 58.7579C26.7747 58.4641 26.6712 58.0637 26.5871 57.7655C26.4321 57.1215 26.2493 56.262 26.1421 55.6093C26.0606 55.1002 25.9709 54.4128 25.9461 53.8995C25.9398 53.7712 25.938 53.6342 25.9274 53.4928C25.9088 53.0861 25.899 52.662 25.8824 52.3053L25.8943 51.8812C25.8994 51.5463 25.9111 51.2093 25.9315 50.8766L25.9341 50.7091C25.948 50.3133 26.0057 49.8307 26.0698 49.3894C26.0942 49.2002 26.1207 49.0176 26.1516 48.8263C26.2246 48.3241 26.3348 47.6937 26.4665 47.2156C26.4687 47.2003 26.4774 47.183 26.4796 47.1677C26.5829 46.7352 26.7013 46.3049 26.835 45.8768C26.8613 45.7812 26.8898 45.6921 26.9118 45.6051L27.0803 45.1293C27.1241 44.9989 27.1701 44.875 27.2161 44.7512L27.4766 44.0276C27.5729 43.7495 27.7829 43.2454 28.1718 42.4721C28.1762 42.4634 28.1849 42.4461 28.1872 42.4308L28.2265 42.3526C28.4341 41.9508 28.6853 41.4838 28.9975 40.9387C29.0019 40.93 29.0106 40.9126 29.0215 40.9018C29.3295 40.3654 29.9101 39.449 30.7978 38.3659C30.8043 38.3637 30.8131 38.3464 30.8174 38.3377C31.0181 38.0902 31.2384 37.8363 31.476 37.5694C31.5763 37.4565 31.6767 37.3437 31.7857 37.2352C31.9296 37.079 32.0735 36.9227 32.2064 36.7991C32.25 36.7557 32.2936 36.7123 32.3372 36.6689C32.5661 36.4411 32.808 36.209 33.0652 35.9791C33.4096 35.6624 33.7692 35.3479 34.0872 35.1051C34.6189 34.6757 35.1962 34.253 35.8213 33.8435C36.2003 33.5878 36.5858 33.3516 36.9473 33.1524C37.3437 32.9272 37.7508 32.7128 38.1732 32.5007C38.2734 32.4531 38.367 32.4077 38.4541 32.3644C39.0311 32.0939 39.6362 31.8431 40.2675 31.6053C40.2871 31.5989 40.3132 31.5902 40.3328 31.5837L40.3785 31.5686C40.8769 31.3893 41.3949 31.2252 41.9303 31.0699C41.9498 31.0635 41.9629 31.0591 41.9825 31.0527C42.0739 31.0224 42.6571 30.8585 43.5405 30.6823C43.621 30.6629 43.6971 30.6522 43.7798 30.6394C43.8886 30.6179 44.0061 30.6008 44.1279 30.575C46.9998 30.0816 49.8898 30.1689 52.6524 30.7909C52.6524 30.7909 52.6677 30.7931 52.6698 30.7997C52.9676 30.8678 49.9851 30.3257 50.2785 30.4025L53.5696 31.0236C54.9932 31.4076 56.3794 31.9415 57.7001 32.6058C58.3235 32.9139 59.0359 33.3157 59.5983 33.6802C59.9826 33.9225 60.3582 34.1822 60.7316 34.4571C60.7512 34.4724 60.7685 34.4811 60.7881 34.4964L60.8358 34.5313C60.901 34.575 60.9596 34.6208 61.0269 34.671C61.2657 34.8455 61.511 35.0396 61.7693 35.2512C61.7693 35.2512 61.7888 35.2665 61.7997 35.2774C61.9212 35.382 62.0493 35.4846 62.1816 35.6001C62.2424 35.6525 62.2967 35.707 62.3553 35.7528C62.4052 35.7942 62.4551 35.8357 62.5007 35.8858C62.5419 35.9229 62.5744 35.9556 62.6157 35.9926C63.3426 36.6576 64.0282 37.3726 64.6722 38.1375C64.8392 38.3358 64.9628 38.4905 65.0365 38.582L65.1471 38.7192L65.2577 38.8565C65.2577 38.8565 65.262 38.8696 65.2729 38.8805L65.2967 38.9088C65.3488 38.9785 65.416 39.0722 65.4658 39.1354L65.4918 39.1702C65.4918 39.1702 65.507 39.1942 65.5179 39.2051L65.6349 39.3619C65.6783 39.4273 65.7411 39.5079 65.7845 39.5733L65.9102 39.7562C65.9362 39.7911 65.9557 39.8281 65.9795 39.8564C65.9839 39.8695 65.986 39.876 65.9969 39.8869C66.0012 39.9 66.012 39.9109 66.0229 39.9218C66.0294 39.9414 66.051 39.9632 66.0641 39.9806L66.1962 40.1832C66.2287 40.2376 66.2699 40.2964 66.3111 40.3552C66.3436 40.4097 66.3826 40.462 66.4151 40.5164L66.4173 40.523C66.4433 40.5578 66.4628 40.5948 66.4866 40.6232C66.5299 40.6885 66.5755 40.7604 66.6101 40.8213L66.6924 40.9607C66.7292 41.0282 66.7704 41.087 66.8072 41.1546C66.8115 41.1676 66.8158 41.1807 66.8267 41.1916C66.857 41.2395 66.8808 41.2896 66.9112 41.3375L66.961 41.4224L67.0173 41.5269C67.0173 41.5269 67.0216 41.54 67.0238 41.5465L67.0367 41.5857C67.0367 41.5857 67.0649 41.6271 67.0779 41.6445C67.1104 41.699 67.1342 41.749 67.1667 41.8035C67.1862 41.8405 67.2057 41.8775 67.223 41.908C67.2576 41.969 67.2836 42.0256 67.3182 42.0866L67.3983 42.2412C67.3983 42.2412 67.4265 42.3043 67.4438 42.3348C67.4654 42.3783 67.4892 42.4284 67.5109 42.4719C67.5325 42.5155 67.5542 42.559 67.5758 42.6026C67.6148 42.6766 67.6472 42.7528 67.6862 42.8268L67.7836 43.0337C67.7836 43.0337 67.7987 43.0794 67.8138 43.1033L67.8182 43.1164C67.8441 43.173 67.8744 43.2427 67.9025 43.3058C67.9415 43.4016 67.9869 43.4952 68.0258 43.591C68.0496 43.6628 68.0842 43.7238 68.1123 43.7869C68.1383 43.8653 68.1685 43.9349 68.1988 44.0046C68.2247 44.083 68.2637 44.157 68.2896 44.2353C68.3069 44.2876 68.322 44.3333 68.3371 44.379L68.3803 44.5096C68.3976 44.5401 68.4084 44.5727 68.4192 44.6054C68.4322 44.6445 68.443 44.6772 68.4559 44.7164C68.6072 45.1299 68.7454 45.5478 68.8705 45.97C68.9007 46.0614 68.931 46.1528 68.9525 46.2399C68.9827 46.3313 69.0086 46.4314 69.0323 46.5249C69.0517 46.5837 69.0712 46.6425 69.0797 46.6903C69.1186 46.8296 69.1487 46.9645 69.181 47.1059C69.1961 47.1517 69.2047 47.1995 69.2133 47.2474C69.2563 47.4432 69.2993 47.639 69.338 47.8218C69.353 47.911 69.3746 47.9981 69.3896 48.0873C69.3896 48.0873 69.3853 48.0742 69.3831 48.0677C69.3853 48.0742 69.3874 48.0807 69.3896 48.0873C69.3961 48.1068 69.4004 48.1199 69.4003 48.1416C69.4261 48.2852 69.4518 48.4288 69.4711 48.5528C69.4905 48.6551 69.5054 48.7661 69.5247 48.8683C69.5611 49.1098 69.5868 49.2969 69.6017 49.4296C69.685 50.0757 69.7378 50.7174 69.7646 51.3677C69.7832 51.7526 69.7889 52.0984 69.7792 52.529C69.751 54.3275 69.5054 56.1254 69.0379 57.888C68.9875 58.0641 68.9436 58.2379 68.8932 58.414C68.8866 58.4379 68.88 58.4618 68.8734 58.4857C68.7857 58.7899 68.6893 59.0898 68.5842 59.3853C68.5776 59.4092 68.5711 59.4332 68.558 59.4592L68.5514 59.4831C68.5514 59.4831 68.5426 59.5005 68.5448 59.507C68.5404 59.5157 68.5382 59.5309 68.5338 59.5396C68.536 59.5462 68.5251 59.557 68.5207 59.5657C68.4901 59.6483 68.4594 59.7308 68.4288 59.8134C68.3675 59.9785 68.3062 60.1437 68.2428 60.3023C68.2078 60.3935 68.1706 60.4783 68.1356 60.5695C68.0656 60.752 67.9912 60.9215 67.9147 61.0844C67.9147 61.0844 67.906 61.1018 67.9081 61.1083L67.8994 61.1257C67.8994 61.1257 67.8666 61.2017 67.8491 61.2365C67.4709 62.0859 67.1651 62.6289 67.1476 62.6636C66.9991 62.9373 66.8419 63.2066 66.6738 63.4867C66.558 63.6844 66.4358 63.8841 66.307 64.0861C66.2982 64.1035 66.2873 64.1143 66.2786 64.1317" fill="white"/>
</mask>
<g mask="url(#mask4_4446_108)">
<path d="M62.3007 68.837C62.4162 68.7481 62.536 68.6505 62.6472 68.5486C62.5404 68.6418 62.4206 68.7394 62.3007 68.837Z" fill="url(#paint12_linear_4446_108)"/>
<path d="M37.5292 32.6338C37.6447 32.5667 37.7557 32.5082 37.8602 32.4519C37.7492 32.5104 37.6381 32.5688 37.5292 32.6338Z" fill="url(#paint13_linear_4446_108)"/>
<path d="M34.9401 65.2163C34.9793 65.2034 35.038 65.184 35.0859 65.1754C34.6241 64.5675 34.1689 63.9358 33.7203 63.2801C33.3519 62.7355 32.9922 62.1953 32.652 61.6487C31.3493 62.572 32.8615 64.9983 34.479 65.2239C34.653 65.2461 34.8378 65.2357 34.9466 65.2142M43.2444 71.184C43.7403 71.1504 45.3549 70.754 44.1227 69.4593C44.0315 69.3808 43.9469 69.3001 43.8558 69.2216C45.4208 68.6534 47.0624 67.857 48.7394 66.8171C49.6585 66.2451 50.5625 65.6275 51.4362 64.9619C56.921 60.3449 55.2975 54.4061 54.6665 52.6953C54.7733 52.602 54.8801 52.5087 54.989 52.422C55.5035 51.8969 56.5745 50.5359 55.4033 49.2065C54.3916 48.4908 53.4927 48.7953 52.7437 49.1807C52.6239 49.2565 52.5041 49.3323 52.3843 49.4082C50.991 48.1957 45.9457 44.4823 39.4292 47.6006C38.4581 48.1246 37.5021 48.6726 36.583 49.2445C34.8994 50.2866 33.4268 51.3313 32.1848 52.3505C32.1307 52.2308 32.081 52.1023 32.0334 51.9804C31.0571 50.0796 29.739 51.0877 29.3967 52.3526C29.1422 53.2915 29.3905 54.0641 29.5006 54.3971C30.6553 57.2096 32.2445 60.1754 34.2058 63.0398C36.2496 66.0219 38.4315 68.502 40.5279 70.3511C41.6546 71.1954 42.7984 71.2155 43.2378 71.1861" fill="white"/>
</g>
</g>
<defs>
<filter id="filter0_f_4446_108" x="582.445" y="259.028" width="28.6412" height="28.6865" filterUnits="userSpaceOnUse" color-interpolation-filters="sRGB">
<feFlood flood-opacity="0" result="BackgroundImageFix"/>
<feBlend mode="normal" in="SourceGraphic" in2="BackgroundImageFix" result="shape"/>
<feGaussianBlur stdDeviation="2" result="effect1_foregroundBlur_4446_108"/>
</filter>
<filter id="filter1_d_4446_108" x="35.5626" y="159.271" width="53.6199" height="53.4707" filterUnits="userSpaceOnUse" color-interpolation-filters="sRGB">
<feFlood flood-opacity="0" result="BackgroundImageFix"/>
<feColorMatrix in="SourceAlpha" type="matrix" values="0 0 0 0 0 0 0 0 0 0 0 0 0 0 0 0 0 0 127 0" result="hardAlpha"/>
<feOffset dy="4"/>
<feGaussianBlur stdDeviation="2"/>
<feComposite in2="hardAlpha" operator="out"/>
<feColorMatrix type="matrix" values="0 0 0 0 0 0 0 0 0 0 0 0 0 0 0 0 0 0 0.25 0"/>
<feBlend mode="normal" in2="BackgroundImageFix" result="effect1_dropShadow_4446_108"/>
<feBlend mode="normal" in="SourceGraphic" in2="effect1_dropShadow_4446_108" result="shape"/>
</filter>
<filter id="filter2_f_4446_108" x="21.8582" y="26.3242" width="51.9115" height="51.9128" filterUnits="userSpaceOnUse" color-interpolation-filters="sRGB">
<feFlood flood-opacity="0" result="BackgroundImageFix"/>
<feBlend mode="normal" in="SourceGraphic" in2="BackgroundImageFix" result="shape"/>
<feGaussianBlur stdDeviation="2" result="effect1_foregroundBlur_4446_108"/>
</filter>
<radialGradient id="paint0_radial_4446_108" cx="0" cy="0" r="1" gradientUnits="userSpaceOnUse" gradientTransform="translate(595.097 272.96) rotate(122.308) scale(11.9286 11.8343)">
<stop offset="0.01" stop-color="#33CAFF"/>
<stop offset="0.68" stop-color="#33CAFF"/>
<stop offset="0.73" stop-color="#42CDFF"/>
<stop offset="0.83" stop-color="#6AD6FF"/>
<stop offset="0.97" stop-color="#AAE6FF"/>
<stop offset="1" stop-color="#BBEAFF"/>
</radialGradient>
<linearGradient id="paint1_linear_4446_108" x1="601.023" y1="263.75" x2="601.006" y2="263.776" gradientUnits="userSpaceOnUse">
<stop stop-color="#19B79C"/>
<stop offset="0.4" stop-color="#1DBB9D"/>
<stop offset="0.82" stop-color="#29C7A2"/>
<stop offset="1" stop-color="#31CFA6"/>
</linearGradient>
<radialGradient id="paint2_radial_4446_108" cx="0" cy="0" r="1" gradientUnits="userSpaceOnUse" gradientTransform="translate(17.3669 146.154) rotate(-0.229446) scale(17.9097 17.8666)">
<stop offset="0.01" stop-color="#33CAFF"/>
<stop offset="0.68" stop-color="#33CAFF"/>
<stop offset="0.73" stop-color="#42CDFF"/>
<stop offset="0.83" stop-color="#6AD6FF"/>
<stop offset="0.97" stop-color="#AAE6FF"/>
<stop offset="1" stop-color="#BBEAFF"/>
</radialGradient>
<linearGradient id="paint3_linear_4446_108" x1="30.7642" y1="137.473" x2="30.8823" y2="137.473" gradientUnits="userSpaceOnUse">
<stop stop-color="#19B79C"/>
<stop offset="0.4" stop-color="#1DBB9D"/>
<stop offset="0.82" stop-color="#29C7A2"/>
<stop offset="1" stop-color="#31CFA6"/>
</linearGradient>
<linearGradient id="paint4_linear_4446_108" x1="0.925089" y1="146.093" x2="0.9737" y2="146.093" gradientUnits="userSpaceOnUse">
<stop stop-color="#19B79C"/>
<stop offset="0.4" stop-color="#1DBB9D"/>
<stop offset="0.82" stop-color="#29C7A2"/>
<stop offset="1" stop-color="#31CFA6"/>
</linearGradient>
<radialGradient id="paint5_radial_4446_108" cx="0" cy="0" r="1" gradientUnits="userSpaceOnUse" gradientTransform="translate(63.6652 185.651) rotate(-0.229446) scale(26.2173 26.1541)">
<stop offset="0.01" stop-color="#33CAFF"/>
<stop offset="0.68" stop-color="#33CAFF"/>
<stop offset="0.73" stop-color="#42CDFF"/>
<stop offset="0.83" stop-color="#6AD6FF"/>
<stop offset="0.97" stop-color="#AAE6FF"/>
<stop offset="1" stop-color="#BBEAFF"/>
</radialGradient>
<linearGradient id="paint6_linear_4446_108" x1="83.2719" y1="172.944" x2="83.4454" y2="172.944" gradientUnits="userSpaceOnUse">
<stop stop-color="#19B79C"/>
<stop offset="0.4" stop-color="#1DBB9D"/>
<stop offset="0.82" stop-color="#29C7A2"/>
<stop offset="1" stop-color="#31CFA6"/>
</linearGradient>
<linearGradient id="paint7_linear_4446_108" x1="39.5884" y1="185.563" x2="39.6599" y2="185.564" gradientUnits="userSpaceOnUse">
<stop stop-color="#19B79C"/>
<stop offset="0.4" stop-color="#1DBB9D"/>
<stop offset="0.82" stop-color="#29C7A2"/>
<stop offset="1" stop-color="#31CFA6"/>
</linearGradient>
<radialGradient id="paint8_radial_4446_108" cx="0" cy="0" r="1" gradientUnits="userSpaceOnUse" gradientTransform="translate(592.025 19.8217) rotate(-0.229806) scale(18.8918 18.8758)">
<stop offset="0.01" stop-color="#33CAFF"/>
<stop offset="0.68" stop-color="#33CAFF"/>
<stop offset="0.73" stop-color="#42CDFF"/>
<stop offset="0.83" stop-color="#6AD6FF"/>
<stop offset="0.97" stop-color="#AAE6FF"/>
<stop offset="1" stop-color="#BBEAFF"/>
</radialGradient>
<linearGradient id="paint9_linear_4446_108" x1="606.16" y1="10.6507" x2="606.285" y2="10.651" gradientUnits="userSpaceOnUse">
<stop stop-color="#19B79C"/>
<stop offset="0.4" stop-color="#1DBB9D"/>
<stop offset="0.82" stop-color="#29C7A2"/>
<stop offset="1" stop-color="#31CFA6"/>
</linearGradient>
<linearGradient id="paint10_linear_4446_108" x1="574.685" y1="19.7575" x2="574.736" y2="19.7576" gradientUnits="userSpaceOnUse">
<stop stop-color="#19B79C"/>
<stop offset="0.4" stop-color="#1DBB9D"/>
<stop offset="0.82" stop-color="#29C7A2"/>
<stop offset="1" stop-color="#31CFA6"/>
</linearGradient>
<radialGradient id="paint11_radial_4446_108" cx="0" cy="0" r="1" gradientUnits="userSpaceOnUse" gradientTransform="translate(44.8679 54.5445) rotate(71.471) scale(25.2391)">
<stop offset="0.01" stop-color="#33CAFF"/>
<stop offset="0.68" stop-color="#33CAFF"/>
<stop offset="0.73" stop-color="#42CDFF"/>
<stop offset="0.83" stop-color="#6AD6FF"/>
<stop offset="0.97" stop-color="#AAE6FF"/>
<stop offset="1" stop-color="#BBEAFF"/>
</radialGradient>
<linearGradient id="paint12_linear_4446_108" x1="62.445" y1="68.6192" x2="62.4964" y2="68.776" gradientUnits="userSpaceOnUse">
<stop stop-color="#19B79C"/>
<stop offset="0.4" stop-color="#1DBB9D"/>
<stop offset="0.82" stop-color="#29C7A2"/>
<stop offset="1" stop-color="#31CFA6"/>
</linearGradient>
<linearGradient id="paint13_linear_4446_108" x1="37.6767" y1="32.5161" x2="37.6981" y2="32.5814" gradientUnits="userSpaceOnUse">
<stop stop-color="#19B79C"/>
<stop offset="0.4" stop-color="#1DBB9D"/>
<stop offset="0.82" stop-color="#29C7A2"/>
<stop offset="1" stop-color="#31CFA6"/>
</linearGradient>
</defs>
</svg>
