<svg width="54" height="66" fill="none" xmlns="http://www.w3.org/2000/svg"><g id="Group 1321314022"><path id="Vector 121" d="m46.62.408 5.179 2.649c-.62-.227-2.62-.073-4.503 1.314-2.354 1.735-30.85 17.965-33.7 19.638-2.85 1.673-7.681 4.956-7.558 9.788.092 3.555 0 16.604 0 24.036 0 3.04 1.295 3.884 2.046 4.332-2.897-1.729-5.958-3.404-6.602-3.802-1.265-.784-1.48-2.517-1.48-4.008 0-1.174.086-16.612 0-22.658-.088-6.045 4.198-9.115 5.633-9.941C7.07 20.93 39.735 2.168 42.084.776c1.879-1.114 3.752-.832 4.535-.368Z" fill="#3FCBFF"/><path id="Vector 122" d="M53.411 8.812c0 3.836-.046 18.997 0 23.29m0-23.29c0-3.836-1.34-7.118-5.575-4.608-2.348 1.392-34.735 20.108-36.17 20.934-1.435.826-5.72 3.896-5.634 9.942m47.38-26.268-4.124 5.835-4.122 5.836-4.673 6.613-8.326 11.529L6.032 35.08m0 0c.087 6.045 0 21.483 0 22.658m0 0c0 3.322 3.618 5.38 6.474 3.683l31.288-18.594 3.909-2.323c2.951-1.845 5.754-4.11 5.708-8.403M6.032 57.738l16.134-18.344m31.245-7.293-10.836-4.198" stroke="#000" stroke-linejoin="bevel"/></g></svg>