<svg width="64" height="64" fill="none" xmlns="http://www.w3.org/2000/svg"><g id="bell_w" clip-path="url('#clip0_3873_40850')"><g id="Group"><path id="Vector" d="m37.603 12.194 5.97-14.55-4.551-2.542-13.815 7.253L12.83 39.494l4.116 2.297 3.522-2.037-6.294 20.82 4.596 2.718L43.547 15.66l-5.944-3.467Z" fill="#3FCBFF"/><path id="Vector 106" d="m34.222 20.858 3.557-8.57 5.678 3.242-9.235 5.328Z" fill="#000"/><path id="Vector_2" d="m26.484 17.517-.222.376 6.637 3.94.222-.375-6.637-3.94Z" fill="#3FCBFF"/><path id="Vector_3" d="m21.93 32.451-.22.377 5.154 3.022.22-.377-5.153-3.022Z" fill="#3FCBFF"/><path id="Vector_4" d="m43.408 15.776-9.173 5.057L43.668-2.41 29.555 4.904l-12.303 36.74 9.37-5.55-7.577 26.732 24.363-47.05Z" fill="#fff"/><path id="Vector_5" d="M16.965 41.876 29.193 5.64l.261-.655L43.312-2.4" stroke="#000" stroke-linejoin="bevel"/><path id="Vector_6" d="M43.66-2.312 34.205 20.89l9.34-5.344-24.748 47.847 7.876-27.41-8.925 5.368" stroke="#000" stroke-linejoin="bevel"/></g></g><defs><clipPath id="clip0_3873_40850"><path fill="#fff" d="M0 0h64v64H0z"/></clipPath></defs></svg>