<svg width="64" height="64" fill="none" xmlns="http://www.w3.org/2000/svg"><g id="nn_64x64"><g id="Group 277131848"><g id="Group"><path id="Vector" d="m14.012 20.5-.23 38.69c0 .675.276 1.144.69 1.3l3.45 1.849L50.189 3.41l-3.512-1.95c-.271-.122-.607-.104-.967.086l-30.086 16.01c-.874.505-1.61 1.793-1.61 2.943Z" fill="#000" stroke="#000"/><path id="Vector_2" d="M49.39 3.548c.874-.46 1.61.092 1.61 1.197l-.23 38.69c0 1.15-.736 2.438-1.61 2.944l-30.087 16.01c-.874.46-1.61-.093-1.61-1.197l.23-38.69c0-1.15.736-2.438 1.61-2.944L49.39 3.548Z" fill="#fff"/><path id="Vector_3" d="M51 13.574v-8.83c0-1.104-.736-1.656-1.61-1.196l-30.087 16.01c-.874.506-1.61 1.794-1.61 2.944l-.23 38.69c0 1.104.736 1.656 1.61 1.196l30.087-16.01c.874-.505 1.61-1.794 1.61-2.944V18.76" stroke="#000"/></g><g id="Group_2"><path id="Vector_4" d="M34.92 15.158c2.928-1.556 5.306.274 5.306 4.117 0 2.744-1.28 5.9-3.202 8.05l-.869 1.007.915-.274c2.973-.824 5.718.228 7.136 2.744-.053.535-.48 1.805-.985 2.882-1.756 3.75-6.746 6.588-7.798 7.182l-.274.138-.138.091c-.045 0-.091.046-.137.092-.046.045-.137.045-.183.091-2.516 1.235-4.529 1.19-5.764.96-1.372-.274-2.378-.868-2.882-1.372a36.361 36.361 0 0 1 2.196-4.62c.275-.549 1.007-1.738 1.647-2.562.87-1.235 1.921-2.333 3.02-3.293l.914-.824-.87.046c-2.012.046-3.338-1.83-3.338-4.666v-.091c0-1.876.594-3.889 1.6-5.764.961-1.784 2.288-3.202 3.706-3.934Z" fill="#3FCBFF"/><path id="Vector 1" d="m25.997 50.424 18.156-9.776m-18.156 13.5 9.31-5.12" stroke="#3FCBFF"/></g></g></g></svg>