<svg width="64" height="69" fill="none" xmlns="http://www.w3.org/2000/svg"><path d="M12.722 41.57c.332.591.664 1.183 1.062 1.775 2.786 4.275 6.966 7.038 11.81 7.959l-8.36 16.575-3.517-10.656L2.97 61.038l9.753-19.469Z" fill="#3FCBFF" stroke="#3FCBFF" stroke-linejoin="round"/><path d="M7.488 27.27c-1.26 6.184-.2 12.17 2.92 16.839 1.555 2.329 5.57 6.265 8.158 7l-2.015-1.654a18.757 18.757 0 0 1-2.554-3.07c-3.118-4.67-4.18-10.655-2.92-16.838 2.124-11.05 11.015-19.732 20.9-21.113 1.46-.198 2.986-.198 4.446-.066 2.263.193 4.365.778 6.264 1.69l-.306-.225c-2.642-2.089-5.884-3.428-9.548-3.741-1.46-.132-2.985-.132-4.445.065C18.502 7.54 9.61 16.221 7.488 27.271Z" fill="#000" stroke="#000"/><path d="m51.183 35.214 9.736 16.823-10.73-.795-3.576 11.723-8.279-14.24c5.431-2.649 10.134-7.484 12.85-13.511Z" fill="#3FCBFF" stroke="#3FCBFF" stroke-linejoin="round"/><path d="M36.423 8.368c11.545.986 18.91 12.168 16.455 24.862-2.19 11.05-11.08 19.667-20.966 21.048-1.46.197-2.986.263-4.446.131-5.573-.526-10.35-3.354-13.469-8.024-3.118-4.67-4.18-10.655-2.919-16.838 2.123-11.05 11.014-19.732 20.9-21.114 1.46-.197 2.986-.197 4.445-.065Z" fill="#fff" stroke="#000"/><path d="M42.178 14.302c-1.893-1.161-4.08-1.906-6.485-2.12-1.26-.065-2.521-.065-3.716.066-8.227 1.118-15.658 8.288-17.45 17.496-2.056 10.59 4.048 19.864 13.668 20.719 1.261.131 2.522.131 3.716-.066 8.227-1.118 15.658-8.288 17.45-17.496 1.052-5.383-.031-10.457-2.629-14.244" stroke="#000"/><path d="M31.979 15.8c.199 0 .398.065.53.262l3.65 7.433c.066.197.265.263.464.263l8.227.131c.465 0 .664.592.332 1.053L39.21 31.98a1.054 1.054 0 0 0-.2.591l1.394 8.551c.066.395-.266.79-.597.79-.067 0-.2 0-.266-.066l-7.364-3.092c-.067-.066-.2-.066-.266-.066a.505.505 0 0 0-.265.132l-7.365 5.13a.505.505 0 0 1-.265.132c-.332.066-.664-.263-.598-.658l1.394-8.945c0-.197 0-.395-.2-.526l-5.904-5.394c-.332-.329-.133-.986.331-1.118l8.228-2.434c.199-.065.331-.197.464-.394l3.716-8.354a.885.885 0 0 1 .53-.46Z" fill="#3FCBFF"/></svg>