<svg width="63" height="64" fill="none" xmlns="http://www.w3.org/2000/svg"><g clip-path="url('#clip0_4163_1736')"><path d="M15.31 19.342 1.026 35.625l30.22 27.563L17.93 45.264l10.897-18.182-13.518-7.74Z" fill="#3FCBFF"/><path d="m31.83 63.601 14.109-18.337-10.947-18.17-6.164-.012M17.931 45.264H43.41" stroke="#000" stroke-miterlimit="10" stroke-linejoin="bevel"/><path d="M28.828 7.866h6.357l10.754 1.75 5.258 3.024M31.938 63.414l30.695-27.79V19.218l-8.69-4.997" stroke="#000" stroke-miterlimit="10" stroke-linejoin="bevel"/><path d="m35.56 26.646 12.789-7.304v-3.618L35.186 7.866M62.405 19.151l-12.86-3.133M49.034 19.846l13.436 15.82M46.73 44.797l15.903-9.172M31.836 63.601l-14.11-18.337 10.94-18.17M1.026 35.625V19.218l16.7-9.602 9.396-1.532" stroke="#000" stroke-miterlimit="10" stroke-linejoin="bevel"/><path d="m28.1 26.646-12.79-7.304v-3.618l11.158-6.457M2.583 18.72l12.042-2.809M14.625 19.846 1.4 35.126" stroke="#000" stroke-miterlimit="10" stroke-linejoin="bevel"/><path d="M16.935 44.797 1.026 35.625" stroke="#fff" stroke-miterlimit="10" stroke-linejoin="bevel"/></g><path d="M55.292 4.687 59.229 1l-1.193 5.44M58.553 7.358l3.46 4.197-5.104-1.272M55.69 11.045l-3.938 3.687 1.193-5.44M52.494 8.12l-3.46-4.196 5.104 1.272" stroke="#000" stroke-linejoin="round"/><defs><clipPath id="clip0_4163_1736"><path fill="#fff" transform="translate(.715 7.555)" d="M0 0h62.229v56.233H0z"/></clipPath></defs></svg>