<svg width="595" height="355" fill="none" xmlns="http://www.w3.org/2000/svg"><path d="m233.235 30.09.029.02c.049.034.361.23.846.479l.127.067c.06.027.122.063.192.097a13.327 13.327 0 0 0 5.021 1.304c.186.014.374.014.558.02a13.275 13.275 0 0 0 3.964-.546c.264-.077.529-.168.789-.262.012-.006.029-.009.04-.015l.032-.015.136-.05c.168-.064.343-.13.529-.21 0 0 .012-.007.02-.008.092-.038.182-.084.276-.127l.13-.062c.035-.019.071-.03.11-.054.031-.014.055-.027.086-.04.537-.264 1.054-.57 1.556-.909.134-.088.233-.157.289-.197l.087-.063.087-.063.007-.01.013-.019a.77.77 0 0 0 .144-.102l.014-.02s.02-.008.023-.013l.094-.072c.036-.032.085-.071.123-.095l.104-.087.056-.048a.039.039 0 0 1 .018-.016c.003-.005.01-.015.018-.017a.11.11 0 0 1 .034-.027l.11-.097c.031-.022.063-.058.093-.08.03-.023.058-.054.088-.076l.056-.049a1.23 1.23 0 0 0 .102-.095l.074-.064c.033-.028.065-.063.099-.09l.013-.02.073-.073.043-.042.051-.052.006-.01.014-.02s.027-.017.034-.026l.075-.078a.297.297 0 0 1 .051-.052l.082-.087.072-.073s.024-.034.039-.046c.017-.024.039-.045.064-.07.017-.025.039-.046.061-.067l.099-.112.093-.102.027-.04.007-.009c.023-.034.052-.065.08-.096.034-.048.081-.095.12-.14.027-.04.056-.07.085-.101.027-.04.054-.078.086-.114.027-.039.062-.08.089-.119l.055-.078.047-.068.037-.053.041-.06c.153-.219.305-.438.453-.661.034-.049.068-.098.093-.145.034-.049.063-.101.092-.153a.56.56 0 0 0 .056-.091c.046-.077.089-.149.127-.224a1.709 1.709 0 0 0 .29-.543l-.006.01.006-.01.021-.03.113-.224c.027-.06.056-.113.084-.173a13.154 13.154 0 0 0 .763-2.096c.284-1.055.442-2.146.465-3.25a7.384 7.384 0 0 0 0-.334c.002-.013-.001-.03.001-.042a22.71 22.71 0 0 0-.018-.578c-.003-.016-.001-.03-.004-.046l-.003-.016-.003-.017c.003-.005-.003-.016 0-.021 0 0 .002-.013-.003-.017-.005-.054-.006-.105-.011-.16-.007-.105-.018-.214-.027-.315l-.018-.172c-.013-.117-.029-.23-.04-.338l-.003-.017-.003-.016-.013-.075c-.08-.561-.166-.925-.171-.95-.037-.186-.088-.373-.139-.56-.032-.13-.073-.268-.112-.41-.001-.009-.008-.02-.009-.029l-.008-.02a13.113 13.113 0 0 0-.329-.952l-.01-.006s-.004-.004-.002-.017a10.14 10.14 0 0 0-.226-.518c-.071-.158-.14-.308-.199-.442l-.262-.486c-.084-.16-.167-.311-.243-.451a9.258 9.258 0 0 0-.596-.921 16.584 16.584 0 0 0-.657-.854l-.01-.007-.006-.012a9.777 9.777 0 0 0-.823-.897c-.907-.847-.983-.915-1.649-1.392a12.847 12.847 0 0 0-1.817-1.089c-.918-.457-1.691-.697-1.945-.78-.903-.28-1.483-.372-2.041-.463a9.541 9.541 0 0 0-.889-.104c-.359-.025-.724-.04-1.09-.034-.043 0-.086-.002-.133-.006a8.919 8.919 0 0 0-1.258.074c-.28.037-.651.083-.924.132-.273.05-.635.123-.908.194-.306.077-.429.107-.694.198a12.4 12.4 0 0 0-.955.334c-.1.04-.199.079-.298.127-.114.05-.229.1-.327.148a2.657 2.657 0 0 0-.208.102l-.035.019a6.42 6.42 0 0 0-.293.15l-.07.04a13.377 13.377 0 0 0-1.47.887c-.042.03-.08.053-.122.082l-.204.148c-.041.029-.093.072-.138.106l-.049.039-.007.01-.075.056c-.037.032-.085.07-.124.095l-.118.098-.007.01c-.457.376-.87.762-1.227 1.151l-.027.04a.87.87 0 0 0-.109.104l-.007.01-.089.097-.196.219c-.084.1-.195.24-.28.34-.081.096-.17.215-.253.324l-.115.166-.349.502c-.109.156-.232.375-.335.534-.198.347-.45.824-.623 1.188-.133.284-.298.668-.403.964-.025.077-.049.154-.077.236-.077.236-.158.477-.223.685l-.066.25c-.055.194-.103.399-.15.59l-.025.1a8.601 8.601 0 0 0-.144.79c-.013.113-.035.227-.049.34a9.148 9.148 0 0 0-.086 1.02c-.012.266-.014.54-.013.808.002.06 0 .115-.003.171l.02.304c.002.08.009.165.019.244l.032.463c.014.177.044.509.144 1.02-.003.005.003.016.005.025l.014.053c.052.267.122.584.213.951.005.003.003.017.005.025.086.364.276.995.609 1.776.005.003.006.012.008.02.078.178.159.364.257.555.04.078.081.165.125.246.059.113.114.231.17.328.019.035.037.062.056.097.095.174.199.348.308.524.15.242.305.487.451.683.24.34.502.681.798 1.025.179.21.361.417.542.593a16.472 16.472 0 0 0 .747.715 15.233 15.233 0 0 0 .961.77l.025.016c.263.183.536.373.819.548l.041.014Z" fill="url('#paint0_radial_4446_110')"/><path d="M237.449 31.816c.085.024.178.045.267.063-.085-.023-.174-.041-.267-.063Z" fill="url('#paint1_linear_4446_110')"/><path d="M245.995 6.596c.074.03.144.064.209.094a2.875 2.875 0 0 0-.209-.094Z" fill="url('#paint2_linear_4446_110')"/><path d="M233.003 25.544c1.554 2.455 9.601 5.304 12.085-.769 1.367-5.836-6.435-9.63-8.02-8.546-.25.174-.335.368-.406.543a23.4 23.4 0 0 1-1.581 4.19c-.703 1.428-1.467 2.569-2.221 3.383-.076.12-.301.486.146 1.194m13.671 3.046c1.232-.005 3.086-1.154 3.941-2.998.795-2.081-.748-3.096-2.474-2.327-2.376 1.047-3.779 4.45-2.148 5.192.176.079.455.135.681.133Z" fill="#fff"/><path d="M2.048 325.414 0 328.8l11.678 8.443 2.047-3.389-11.677-8.44Z" fill="url('#paint3_linear_4446_110')"/><path d="m23.044 339.584-2.048 3.385 6.617-3.039 2.047-3.39-6.616 3.044Z" fill="url('#paint4_linear_4446_110')"/><path d="m36 350.988-12.956-11.404 6.616-3.044-14.333-15.167-13.28 4.041 11.678 8.44-8.45 4.093L36 350.988Z" fill="url('#paint5_linear_4446_110')"/><path style="mix-blend-mode:overlay" opacity=".7" d="m36 350.988-12.96-11.404 6.62-3.04-14.333-15.171-13.28 4.041 11.678 8.444-8.45 4.093L36 350.988Zm-33.688-25.53 12.98-3.95 14.17 14.992-6.635 3.048 12.542 11.039-29.806-12.648 8.395-4.065-11.646-8.416Z" fill="url('#paint6_linear_4446_110')"/><path d="m5.275 337.947-2.048 3.389 30.725 13.037L36 350.988 5.275 337.947Z" fill="url('#paint7_linear_4446_110')"/><g filter="url('#filter0_f_4446_110')"><path d="m590.692 100.572 1.308 2.154-7.461 5.373-1.308-2.157 7.461-5.37Z" fill="url('#paint8_linear_4446_110')"/><path d="m577.277 109.589 1.309 2.154-4.227-1.934-1.308-2.157 4.226 1.937Z" fill="url('#paint9_linear_4446_110')"/><path d="m569 116.846 8.277-7.257-4.226-1.937L582.208 98l8.484 2.572-7.461 5.37 5.399 2.605-19.63 8.299Z" fill="url('#paint10_linear_4446_110')"/><path style="mix-blend-mode:overlay" opacity=".7" d="m569 116.846 8.28-7.257-4.229-1.935L582.208 98l8.484 2.572-7.461 5.373 5.399 2.604-19.63 8.297Zm21.523-16.247-8.293-2.513-9.053 9.54 4.239 1.94-8.013 7.024 19.043-8.048-5.364-2.587 7.441-5.356Z" fill="url('#paint11_linear_4446_110')"/><path d="m588.63 108.547 1.308 2.157-19.63 8.296-1.308-2.154 19.63-8.299Z" fill="url('#paint12_linear_4446_110')"/></g><path d="m136.353 51.588.038-.026c.122-.076.231-.155.334-.236l.021-.014c.093-.08.184-.164.261-.245.011-.007.016-.022.024-.033.03-.037.061-.075.088-.117.042-.05.084-.102.12-.154.012-.02.018-.041.03-.06.029-.049.051-.098.076-.143.022-.044.05-.085.069-.132.023-.05.042-.103.059-.154l.682-2.099c-.033.102-.079.19-.127.286a1.705 1.705 0 0 1-.226.358c-.03.037-.055.077-.089.117-.086.098-.181.19-.285.277l-.021.014c-.111.092-.24.18-.374.259-.039.026-.089.048-.13.07-.1.056-.202.108-.313.154-.058.027-.118.051-.178.075a3.557 3.557 0 0 1-.34.12c-.067.022-.133.044-.206.065-.129.035-.26.066-.394.1-.076.017-.145.035-.22.051-.212.04-.43.078-.666.112-.178.023-.37.039-.56.058-.074.004-.142.016-.216.02-.121.008-.255.012-.383.018-.147.008-.288.018-.444.02-.07.002-.149-.002-.219 0-.226.003-.451 0-.688-.005a5.493 5.493 0 0 1-.253-.013 23.757 23.757 0 0 1-.794-.04c-.117-.008-.232-.021-.349-.028a33.281 33.281 0 0 1-.893-.09c-.149-.018-.3-.03-.453-.053-.093-.011-.19-.026-.284-.037-.249-.032-.504-.071-.759-.11-.069-.011-.141-.02-.212-.035-.326-.054-.658-.11-.993-.17-.08-.014-.161-.028-.244-.046a47.568 47.568 0 0 1-2.045-.426 65.47 65.47 0 0 1-1.415-.336 46.455 46.455 0 0 1-.653-.171c-.19-.049-.381-.097-.574-.15-.227-.058-.456-.127-.685-.189a39.888 39.888 0 0 1-.582-.162c-.208-.06-.424-.124-.635-.188-.223-.067-.449-.131-.672-.198a8.075 8.075 0 0 1-.252-.08c-.525-.161-1.057-.333-1.59-.505-.145-.05-.292-.095-.437-.145-.565-.19-1.136-.381-1.709-.583-.052-.017-.103-.04-.154-.056-.507-.178-1.012-.363-1.524-.55l-.734-.275c-.163-.061-.323-.125-.486-.186-.39-.148-.776-.3-1.17-.456l-.202-.08c-.416-.165-.835-.334-1.256-.507l-.12-.05c-.43-.179-.86-.357-1.287-.538-.048-.018-.093-.04-.141-.059-.423-.183-.85-.363-1.272-.553a103.447 103.447 0 0 1-1.428-.642c-.059-.027-.123-.053-.182-.082a99.09 99.09 0 0 1-2.553-1.202c-.119-.056-.235-.115-.348-.17a80.127 80.127 0 0 1-1.084-.538 4.568 4.568 0 0 0-.196-.095c-.425-.216-.85-.432-1.274-.655-.119-.062-.235-.121-.353-.184-.306-.16-.614-.323-.916-.485l-.486-.26a74.732 74.732 0 0 1-.813-.446l-.493-.272-.788-.445a30.766 30.766 0 0 1-.513-.294c-.4-.233-.8-.465-1.198-.7-.132-.076-.258-.157-.39-.233-.291-.175-.58-.346-.86-.522-.121-.073-.235-.145-.35-.216-.31-.19-.614-.385-.916-.576-.073-.048-.149-.093-.222-.141-.383-.244-.756-.49-1.121-.729-.082-.053-.157-.105-.239-.159-.416-.278-.82-.554-1.219-.828-.011-.01-.029-.02-.04-.03-.49-.343-.965-.685-1.425-1.02-.031-.025-.067-.047-.098-.071a33.82 33.82 0 0 1-1.011-.769 23.329 23.329 0 0 1-.586-.462c-.08-.066-.163-.13-.243-.195-.203-.166-.401-.324-.594-.49l-.212-.178c-.25-.213-.498-.423-.73-.632a24.866 24.866 0 0 0-.077-.068c-.207-.186-.413-.372-.608-.555-.065-.059-.13-.124-.194-.183-.166-.156-.32-.31-.478-.46-.05-.052-.106-.105-.157-.157-.195-.2-.385-.391-.566-.584-.033-.034-.063-.07-.097-.105a11.691 11.691 0 0 1-.419-.472l-.148-.174c-.123-.145-.243-.293-.357-.432l-.103-.13a12.257 12.257 0 0 1-.398-.538l-.08-.117a18.854 18.854 0 0 1-.271-.411 8.133 8.133 0 0 1-.324-.564 1.035 1.035 0 0 1-.054-.095 6.341 6.341 0 0 1-.225-.476c-.017-.04-.034-.08-.047-.123-.048-.116-.089-.237-.128-.348a4.575 4.575 0 0 1-.13-.517c-.001-.016-.008-.034-.01-.05a2.78 2.78 0 0 1-.04-.407l-.001-.108c0-.097.004-.197.013-.289l.012-.11c.02-.122.045-.242.08-.357l-.683 2.099a2.33 2.33 0 0 0-.08.356c-.005.038-.006.073-.011.11a3.116 3.116 0 0 0 .028.804c.001.016.008.034.012.055.024.126.055.254.091.384.014.042.03.088.04.133.035.113.08.232.127.348.017.04.028.078.047.122.065.157.14.312.225.477.018.027.036.061.054.095.07.135.147.272.23.41.035.05.063.1.094.154.087.135.173.271.272.41l.08.118c.122.174.257.352.397.537.029.043.068.085.103.13.114.146.234.288.358.433l.148.174c.134.155.275.311.422.469.034.034.063.071.097.106.18.192.37.39.566.583.05.052.106.105.157.157.154.153.314.308.477.46.066.06.127.12.195.183.194.183.401.37.608.555l.074.065c.235.206.48.418.73.632l.212.177c.194.16.39.325.594.49l.14.117.1.081c.189.152.388.304.586.462.065.053.129.101.192.15.265.204.539.407.818.619l.035.028.063.048c.456.338.93.68 1.425 1.021l.005.008a.15.15 0 0 0 .035.022 70.473 70.473 0 0 0 1.358.923c.032.024.065.042.1.064a75.055 75.055 0 0 0 1.174.762c.055.037.114.071.169.108l.919.58c.059.034.114.071.17.108l.179.108.862.526c.07.044.138.084.212.126.059.034.12.073.18.107.34.204.684.406 1.032.606.056.03.112.06.168.098.17.096.345.195.513.293.174.1.35.204.527.301.09.049.178.098.26.145.163.09.328.184.494.272l.41.226c.137.073.27.143.406.217.16.087.323.177.486.26.092.047.184.1.272.148.214.114.427.227.644.337.118.063.234.122.353.185l.116.059 1.095.563c.021.009.042.024.063.032.062.032.131.066.196.096.247.125.494.25.741.368l.34.165c.119.057.235.116.355.172.104.05.205.101.312.155a78.853 78.853 0 0 0 .911.431c.035.016.071.031.104.05.236.109.469.22.705.33.17.079.347.16.52.236.06.029.123.055.183.083.042.017.081.037.123.054l.73.33c.138.061.273.119.407.182l.168.076.153.068c.239.107.482.211.725.316l.394.169c.048.018.093.04.144.062.05.023.099.042.15.065.228.097.456.195.685.286.15.064.304.126.451.187l.12.05c.036.016.072.031.112.045l.764.312c.126.052.256.102.38.15l.202.08c.066.024.132.054.202.081.262.103.518.205.778.303.063.026.127.046.19.072.163.061.323.125.486.186.176.065.354.133.526.2.069.027.139.048.209.076.508.188 1.019.374 1.523.549.042.017.087.032.13.05.006.001.015.006.024.006a96.99 96.99 0 0 0 1.709.583c.064.02.127.046.191.066.085.028.162.05.247.079.535.176 1.065.344 1.589.504l.18.056.074.019c.225.07.449.131.671.198.19.055.378.116.565.167.025.006.046.015.07.021.196.057.389.11.582.162.201.058.407.114.606.168l.08.02c.192.053.383.102.573.15.19.05.383.102.574.15l.079.021c.452.113.895.22 1.332.319 0 0 .01-.001.012.003.025.006.047.008.071.015.456.103.907.2 1.349.29.059.011.117.023.173.037.176.036.349.067.523.099.08.014.164.032.244.046.313.057.617.11.919.157.025.006.05.006.074.013a28.072 28.072 0 0 0 .972.145c.093.01.19.025.283.036.078.01.159.025.238.029.072.008.141.013.216.02.304.035.601.062.893.088.076.007.154.017.229.023.044.005.082.002.126.006.271.018.535.033.795.041.069.005.141.008.211.012l.041.001c.237.006.462.008.688.004.067 0 .139.003.21.002 0 0 .006-.005.013-.003.152 0 .296-.012.444-.02.124-.004.254-.006.37-.016 0 0 .003-.002.01 0 .073-.004.141-.016.215-.02.173-.014.347-.028.511-.048.016.001.033-.004.048-.004.207-.025.402-.06.591-.095l.072-.014c.075-.017.147-.03.219-.051.092-.022.193-.039.278-.062.043-.012.077-.023.117-.039a4.63 4.63 0 0 0 .205-.064c.06-.017.119-.034.176-.056.057-.02.107-.044.162-.069.06-.023.124-.049.178-.074.031-.015.067-.028.098-.043.078-.036.14-.078.212-.115.042-.028.092-.045.13-.07l-.012-.004Z" fill="url('#paint13_linear_4446_110')"/><path d="M123.074 33.09C108.856 24.65 90.96 18.637 83.1 19.665c-7.86 1.028-2.71 8.702 11.507 17.142 14.219 8.444 32.116 14.455 39.976 13.428 7.859-1.028 2.711-8.703-11.509-17.147Z" fill="url('#paint14_linear_4446_110')"/><path style="mix-blend-mode:overlay" opacity=".7" d="M123.074 33.09C108.856 24.65 90.96 18.637 83.1 19.665c-7.86 1.028-2.71 8.702 11.507 17.142 14.219 8.444 32.116 14.455 39.976 13.428 7.859-1.028 2.711-8.703-11.509-17.147Zm11.483 17.009c-7.824 1.02-25.723-4.994-39.893-13.41-6.841-4.06-11.804-8.068-13.971-11.283-1.014-1.504-1.355-2.74-1.012-3.686.372-1.022 1.53-1.67 3.449-1.92 7.823-1.02 25.716 4.993 39.886 13.408 6.844 4.064 11.807 8.073 13.974 11.288 1.014 1.503 1.355 2.74 1.012 3.685-.369 1.02-1.53 1.671-3.449 1.92l.004-.002Z" fill="url('#paint15_linear_4446_110')"/><path d="M115.03 33.505c-8.241-4.893-17.69-8.498-21.111-8.052-3.422.446.487 4.776 8.727 9.669a86.523 86.523 0 0 0 7.781 4.09c.512.648 1.317 1.396 2.388 2.186-.207-.465-.206-.848-.015-1.137 4.77 2.014 8.934 3.18 10.964 2.914 3.422-.445-.488-4.775-8.734-9.67Zm-10.999-1.926c-.514.067-1.718-.349-2.703-.936-.984-.586-1.368-1.11-.857-1.18.514-.067 1.721.352 2.706.94.984.586 1.365 1.105.854 1.176Zm6.427 3.815c-.514.067-1.724-.35-2.709-.937-.979-.579-1.362-1.109-.851-1.18.514-.066 1.721.353 2.703.936.984.587 1.371 1.114.86 1.178l-.003.003Zm6.42 3.813c-.513.067-1.718-.349-2.702-.935-.985-.587-1.369-1.11-.857-1.181.513-.067 1.72.353 2.705.94.985.586 1.366 1.106.854 1.176Z" fill="url('#paint16_linear_4446_110')"/><defs><linearGradient id="paint1_linear_4446_110" x1="237.603" y1="31.804" x2="237.545" y2="31.887" gradientUnits="userSpaceOnUse"><stop stop-color="#19B79C"/><stop offset=".4" stop-color="#1DBB9D"/><stop offset=".82" stop-color="#29C7A2"/><stop offset="1" stop-color="#31CFA6"/></linearGradient><linearGradient id="paint2_linear_4446_110" x1="246.104" y1="6.625" x2="246.081" y2="6.659" gradientUnits="userSpaceOnUse"><stop stop-color="#19B79C"/><stop offset=".4" stop-color="#1DBB9D"/><stop offset=".82" stop-color="#29C7A2"/><stop offset="1" stop-color="#31CFA6"/></linearGradient><linearGradient id="paint3_linear_4446_110" x1="-1.618" y1="323.905" x2="11.879" y2="335.55" gradientUnits="userSpaceOnUse"><stop stop-color="#F2F9FF"/><stop offset=".15" stop-color="#D2E4F2"/><stop offset=".29" stop-color="#B9D4E9"/><stop offset=".43" stop-color="#ABCAE3"/><stop offset=".54" stop-color="#A6C7E2"/><stop offset=".78" stop-color="#A0C4DF"/><stop offset="1" stop-color="#88ADCF"/></linearGradient><linearGradient id="paint4_linear_4446_110" x1="34.427" y1="334.315" x2="22.737" y2="341.212" gradientUnits="userSpaceOnUse"><stop stop-color="#F2F9FF"/><stop offset=".59" stop-color="#B4D0E7"/><stop offset=".72" stop-color="#A6C7E2"/><stop offset=".78" stop-color="#A0C4DF"/><stop offset=".9" stop-color="#88ADCF"/></linearGradient><linearGradient id="paint5_linear_4446_110" x1="23.96" y1="323.561" x2="15.733" y2="347.636" gradientUnits="userSpaceOnUse"><stop stop-color="#F2F9FF"/><stop offset=".8" stop-color="#C0D6F2"/><stop offset="1" stop-color="#B3CDEC"/></linearGradient><linearGradient id="paint6_linear_4446_110" x1="23.96" y1="323.561" x2="15.733" y2="347.636" gradientUnits="userSpaceOnUse"><stop offset=".08" stop-color="#fff"/><stop offset="1" stop-color="#fff" stop-opacity="0"/></linearGradient><linearGradient id="paint7_linear_4446_110" x1="11.469" y1="368.01" x2="20.858" y2="343.203" gradientUnits="userSpaceOnUse"><stop stop-color="#F2F9FF"/><stop offset=".59" stop-color="#B4D0E7"/><stop offset=".72" stop-color="#A6C7E2"/><stop offset=".78" stop-color="#A0C4DF"/><stop offset=".9" stop-color="#88ADCF"/></linearGradient><linearGradient id="paint8_linear_4446_110" x1="593.034" y1="99.611" x2="584.44" y2="107.055" gradientUnits="userSpaceOnUse"><stop stop-color="#F2F9FF"/><stop offset=".15" stop-color="#D2E4F2"/><stop offset=".29" stop-color="#B9D4E9"/><stop offset=".43" stop-color="#ABCAE3"/><stop offset=".54" stop-color="#A6C7E2"/><stop offset=".78" stop-color="#A0C4DF"/><stop offset="1" stop-color="#88ADCF"/></linearGradient><linearGradient id="paint9_linear_4446_110" x1="570.005" y1="106.236" x2="577.458" y2="110.65" gradientUnits="userSpaceOnUse"><stop stop-color="#F2F9FF"/><stop offset=".59" stop-color="#B4D0E7"/><stop offset=".72" stop-color="#A6C7E2"/><stop offset=".78" stop-color="#A0C4DF"/><stop offset=".9" stop-color="#88ADCF"/></linearGradient><linearGradient id="paint10_linear_4446_110" x1="576.692" y1="99.392" x2="581.911" y2="114.725" gradientUnits="userSpaceOnUse"><stop stop-color="#F2F9FF"/><stop offset=".8" stop-color="#C0D6F2"/><stop offset="1" stop-color="#B3CDEC"/></linearGradient><linearGradient id="paint11_linear_4446_110" x1="576.692" y1="99.392" x2="581.911" y2="114.725" gradientUnits="userSpaceOnUse"><stop offset=".08" stop-color="#fff"/><stop offset="1" stop-color="#fff" stop-opacity="0"/></linearGradient><linearGradient id="paint12_linear_4446_110" x1="584.673" y1="127.678" x2="578.716" y2="111.876" gradientUnits="userSpaceOnUse"><stop stop-color="#F2F9FF"/><stop offset=".59" stop-color="#B4D0E7"/><stop offset=".72" stop-color="#A6C7E2"/><stop offset=".78" stop-color="#A0C4DF"/><stop offset=".9" stop-color="#88ADCF"/></linearGradient><linearGradient id="paint13_linear_4446_110" x1="77.45" y1="26.547" x2="138.47" y2="46.275" gradientUnits="userSpaceOnUse"><stop stop-color="#27BCF5"/><stop offset=".16" stop-color="#0794D7"/><stop offset=".17" stop-color="#0C90D3"/><stop offset=".23" stop-color="#1889CC"/><stop offset=".3" stop-color="#1F86C8"/><stop offset=".5" stop-color="#2185C7"/><stop offset=".58" stop-color="#228AD3"/><stop offset=".69" stop-color="#248FDD"/><stop offset=".83" stop-color="#2591E1"/><stop offset=".89" stop-color="#2AA9ED"/><stop offset=".96" stop-color="#30C1FA"/><stop offset="1" stop-color="#33CAFF"/></linearGradient><linearGradient id="paint14_linear_4446_110" x1="105.026" y1="51.344" x2="115.465" y2="22.159" gradientUnits="userSpaceOnUse"><stop offset=".02" stop-color="#33A0FF"/><stop offset=".33" stop-color="#33BFFF"/><stop offset=".43" stop-color="#33CAFF"/><stop offset="1" stop-color="#7BEEFF"/></linearGradient><linearGradient id="paint15_linear_4446_110" x1="111.252" y1="26.078" x2="104.099" y2="44.082" gradientUnits="userSpaceOnUse"><stop offset=".08" stop-color="#fff"/><stop offset="1" stop-color="#fff" stop-opacity="0"/></linearGradient><linearGradient id="paint16_linear_4446_110" x1="112.803" y1="20.372" x2="103.218" y2="43.745" gradientUnits="userSpaceOnUse"><stop stop-color="#F2F9FF"/><stop offset=".8" stop-color="#C0D6F2"/><stop offset="1" stop-color="#B3CDEC"/></linearGradient><radialGradient id="paint0_radial_4446_110" cx="0" cy="0" r="1" gradientUnits="userSpaceOnUse" gradientTransform="rotate(124.564 114.252 71.607) scale(15.3221 15.3091)"><stop offset=".01" stop-color="#33CAFF"/><stop offset=".68" stop-color="#33CAFF"/><stop offset=".73" stop-color="#42CDFF"/><stop offset=".83" stop-color="#6AD6FF"/><stop offset=".97" stop-color="#AAE6FF"/><stop offset="1" stop-color="#BBEAFF"/></radialGradient><filter id="filter0_f_4446_110" x="566" y="95" width="29" height="27" filterUnits="userSpaceOnUse" color-interpolation-filters="sRGB"><feFlood flood-opacity="0" result="BackgroundImageFix"/><feBlend in="SourceGraphic" in2="BackgroundImageFix" result="shape"/><feGaussianBlur stdDeviation="1.5" result="effect1_foregroundBlur_4446_110"/></filter></defs></svg>