<svg width="612" height="288" fill="none" xmlns="http://www.w3.org/2000/svg"><g filter="url('#filter0_f_4446_108')"><path d="m591.715 282.39.021.014c.037.024.286.168.67.345.032.021.071.03.102.05.046.022.1.042.151.067 1.255.546 2.584.825 3.915.844l.006.003c.146.004.29-.002.431-.001a10.508 10.508 0 0 0 3.689-.79l.024-.015.1-.04c.13-.052.261-.118.401-.186 0 0 .012-.008.017-.004.065-.033.14-.068.209-.106l.098-.05c.024-.014.054-.026.081-.045.021-.01.045-.024.066-.033.41-.225.801-.477 1.181-.758.098-.072.172-.13.215-.163l.065-.055.062-.051.007-.01.01-.016a1 1 0 0 0 .11-.08l.01-.016s.012-.007.021-.009l.068-.061c.031-.025.066-.055.093-.075l.081-.069.046-.037.01-.016a.372.372 0 0 0 .01-.016c.007-.011.014-.022.023-.023l.087-.079s.05-.043.072-.067l.063-.064s.031-.025.042-.041l.078-.077.057-.054.07-.075.01-.016c.014-.021.038-.036.051-.057l.024-.037.047-.038.003-.005.01-.016s.016-.013.022-.023c.014-.022.041-.041.055-.063.01-.016.026-.028.036-.044 0 0 .044-.047.061-.073l.055-.063s.017-.026.032-.039a.271.271 0 0 1 .048-.052c.014-.021.024-.037.043-.055.02-.032.046-.06.071-.089l.069-.083.02-.032.003-.006.065-.078c.027-.043.056-.076.089-.116a.484.484 0 0 1 .059-.081 5.11 5.11 0 0 0 .061-.096c.021-.032.041-.064.07-.098l.038-.058.033-.053.028-.043.03-.048.336-.526.071-.112c.024-.037.051-.08.07-.12l.044-.069c.037-.059.06-.119.092-.181a.228.228 0 0 0 .032-.062c.041-.086.086-.169.123-.25.024-.038.034-.076.052-.117l-.003.005.007-.01.013-.022c.027-.065.056-.121.079-.181.022-.046.039-.095.06-.141.046-.106.077-.191.097-.245.11-.289.207-.58.294-.868a10.186 10.186 0 0 0 .407-3.07c-.005-.085-.004-.167-.006-.258-.002-.009 0-.023-.002-.032l-.028-.444c.001-.014-.001-.023.001-.037l.007-.01s-.011-.007-.008-.012l-.003-.018s.003-.005.001-.014l-.012-.12c-.009-.08-.022-.163-.03-.244-.01-.043-.011-.088-.02-.132l-.043-.259-.001-.009.003-.005s-.009-.043-.018-.064c-.075-.429-.155-.712-.159-.73-.035-.142-.079-.282-.12-.428a10.068 10.068 0 0 0-.101-.319s-.004-.017-.009-.02l-.004-.018a8 8 0 0 0-.285-.728l-.01-.007s-.006-.003-.008-.012c-.054-.124-.119-.255-.185-.395-.058-.119-.119-.233-.164-.337l-.217-.37c-.071-.12-.138-.237-.197-.342a7.678 7.678 0 0 0-.486-.692 16.966 16.966 0 0 0-.535-.641l-.016-.01a8.126 8.126 0 0 0-.663-.67c-.728-.629-.789-.683-1.314-1.025a9.14 9.14 0 0 0-1.438-.783 9.63 9.63 0 0 0-1.526-.539 9.319 9.319 0 0 0-1.595-.292 6.4 6.4 0 0 0-.689-.05 9.51 9.51 0 0 0-.843.008h-.105a7.23 7.23 0 0 0-.969.1c-.214.044-.5.085-.717.134a8.03 8.03 0 0 0-.696.184c-.23.071-.329.097-.53.179a11.27 11.27 0 0 0-.733.288c-.074.035-.154.066-.228.101l-.25.125a1.69 1.69 0 0 0-.159.086c-.007.011-.021.009-.033.016a3.568 3.568 0 0 0-.222.128c-.021.009-.036.022-.057.031-.246.142-.543.327-.854.548-.067.046-.156.117-.263.191-.031.025-.059.045-.089.07l-.152.121c-.03.025-.073.057-.104.082l-.035.031-.003.005-.053.049c-.031.025-.065.055-.093.075l-.087.079-.007.011c-.347.31-.648.619-.921.931l-.02.032a.32.32 0 0 0-.077.086l-.007.01c-.02.032-.043.055-.065.079l-.143.178c-.065.078-.145.192-.21.27l-.189.261-.084.133-.258.404c-.078.123-.168.298-.24.423-.14.278-.327.652-.451.94-.097.222-.212.53-.285.761-.015.058-.033.121-.051.184-.051.185-.109.38-.157.536l-.043.197c-.04.154-.07.307-.099.468l-.019.078c-.034.18-.067.406-.089.616-.013.09-.017.177-.029.266a5.723 5.723 0 0 0-.038.769c-.003.006-.001.014 0 .023 0 .21 0 .419.014.63.001.045.002.091.006.131l.025.24c.004.063.009.126.019.192l.037.36a6.4 6.4 0 0 0 .143.788l.004.017.013.038a13.912 13.912 0 0 0 .195.753c.083.277.239.766.522 1.358a5.224 5.224 0 0 0 .221.433c.036.06.068.126.104.186.047.09.097.174.145.25.015.024.029.048.048.075.079.133.167.263.254.394.121.182.248.368.37.513.193.258.407.514.648.765.144.159.291.313.437.444.154.143.318.292.486.437a10.418 10.418 0 0 0 .853.641l.026.017.016.01c.211.135.422.269.651.4l.031-.003Z" fill="url('#paint0_radial_4446_108')"/><mask id="mask0_4446_108" style="mask-type:luminance" maskUnits="userSpaceOnUse" x="586" y="262" width="22" height="22"><path d="m597.108 283.699-.01-.007s-.005-.003-.014-.001a6.41 6.41 0 0 1-.437-.002 32.98 32.98 0 0 1-.374-.007l-.422-.037a15.163 15.163 0 0 0-.394-.034 6.687 6.687 0 0 1-.836-.144 12.01 12.01 0 0 1-.809-.21l-.016-.01a7.036 7.036 0 0 1-.885-.311c-.88-.389-.95-.419-1.49-.748a9.72 9.72 0 0 1-1.326-.958 9.725 9.725 0 0 1-1.145-1.15c-.476-.557-.713-.941-.944-1.313a6.675 6.675 0 0 1-.344-.601c-.126-.245-.245-.5-.357-.766-.016-.033-.027-.062-.044-.095a7.288 7.288 0 0 1-.326-.919c-.059-.21-.139-.493-.184-.701a7.606 7.606 0 0 1-.135-.708 6.289 6.289 0 0 1-.07-.553 8.473 8.473 0 0 1-.048-.786c0-.082-.005-.168-.004-.25l.007-.279c0-.046.004-.11.011-.18.007-.011 0-.023.001-.037.003-.074.012-.158.017-.259 0-.023.005-.042.004-.065.025-.283.063-.633.128-1.003.014-.081.035-.195.063-.319l.026-.111.045-.188.031-.13.014-.044.003-.005.016-.072c.01-.039.023-.082.03-.116l.034-.112.007-.011c.127-.443.284-.852.451-1.231l.021-.032c.006-.033.025-.074.04-.109l.006-.011c.021-.032.027-.065.044-.092l.101-.204c.044-.092.108-.216.157-.304l.157-.282.085-.133.258-.404c.078-.122.194-.28.277-.399.187-.247.448-.575.657-.809.16-.181.386-.419.564-.582.047-.038.091-.084.141-.127.14-.128.293-.262.42-.368l.16-.123c.124-.101.252-.198.378-.29l.062-.05c.148-.115.344-.237.525-.346.076-.049.148-.093.229-.138.205-.124.469-.27.68-.367.003-.006.012-.008.02-.01.19-.088.38-.176.572-.256l.124-.055.224-.082a2.13 2.13 0 0 1 .181-.064l.338-.122c.131-.043.373-.12.772-.21l.018-.004.04-.004c.208-.047.452-.093.742-.14 0 0 .014.001.017-.004.29-.047.796-.106 1.453-.113a7.795 7.795 0 0 1 .489.012c.074.002.143.009.216.011.101.005.199.015.283.023.028.003.055.006.089.012.153.015.306.031.467.059.22.027.438.069.62.11.314.066.637.153.973.255a9.027 9.027 0 0 1 1.317.518 8.402 8.402 0 0 1 .839.454l.016.01c.215.129.422.269.641.416l.021.013c.037.024.273.189.599.457.032.02.056.051.088.071.039.033.083.068.124.109a10.18 10.18 0 0 1 2.438 3.172l.005.003c.065.131-.621-1.122-.564-.989l.745 1.381a10.457 10.457 0 0 1 .813 2.996c.028.212.038.428.049.644-.004.006 0 .023.002.032l-.003.028.005.108c.008.139.012.284.006.445 0 0-.002.014.004.017-.003.074-.003.156-.009.234l-.003.11c-.003.028-.001.06-.007.093l-.003.074c-.027.461-.085.925-.175 1.392-.024.119-.04.213-.056.263l-.02.077-.02.077-.006.011-.011.016a1.08 1.08 0 0 1-.025.133l-.01.016s.003.018 0 .023l-.027.088c-.009.038-.023.082-.029.116l-.028.102-.015.058-.01.016-.01.015c-.007.011-.008.025-.012.03l-.034.113s-.018.063-.03.093a.426.426 0 0 0-.026.088s-.01.039-.02.055c-.012.03-.025.074-.037.104l-.025.074c-.012.029-.027.065-.033.098l-.01.016c-.014.021-.017.049-.025.074l-.024.037-.015.058-.003.005-.01.016-.007.034c-.013.021-.02.054-.033.076a.194.194 0 0 0-.02.054s-.023.06-.04.087l-.034.076s-.017.026-.022.045a.256.256 0 0 0-.027.066c-.013.021-.018.04-.026.065-.021.032-.031.07-.051.102l-.047.098-.02.031-.004.006s-.028.056-.043.092c-.028.042-.046.083-.068.129-.02.032-.037.058-.049.088-.02.032-.041.064-.056.099-.02.032-.04.064-.059.105l-.037.058-.034.053-.027.043a1.296 1.296 0 0 0-.031.048l-.336.526a6.94 6.94 0 0 1-.071.112c-.024.037-.051.08-.08.113l-.044.07c-.037.058-.082.105-.119.163a1.173 1.173 0 0 0-.037.059 4.474 4.474 0 0 1-.176.217c-.024.037-.058.067-.084.096l.004-.005-.007.01-.014.022c-.042.055-.087.101-.126.151a1.219 1.219 0 0 1-.103.114c-.076.086-.14.15-.179.2-.21.225-.433.434-.658.635a10.381 10.381 0 0 1-2.598 1.688c-.079.031-.157.071-.237.103-.003.005-.02.009-.029.011-.138.054-.275.117-.415.162-.012.007-.021.009-.033.016l-.006.011s-.011-.007-.014-.001l-.018.003s-.003.006-.012.008l-.114.039c-.076.026-.158.049-.234.076-.043.009-.085.028-.128.038-.09.024-.175.053-.253.07l-.008.002-.004.005s-.043.01-.066.011a8.085 8.085 0 0 1-.731.169 8.19 8.19 0 0 1-.439.072 21.16 21.16 0 0 0-.327.046s-.017.004-.022 0" fill="#fff"/></mask><g mask="url('#mask0_4446_108')"><path d="M600.938 263.732c.06.023.114.043.165.068a1.842 1.842 0 0 0-.165-.068Z" fill="url('#paint1_linear_4446_108')"/><path d="M593.535 273.592c-1.844-1.939-1.574-4.236-1.096-8.406a20.784 20.784 0 0 1 2.068-.925c6.655-2.474 10.441 2.239 9.786 4.312-.065.203-.243.467-.533.79-.734.475-1.586.694-3.364.211 1.177 4.148-2.614 6.227-5.399 5.041a4.563 4.563 0 0 1-1.462-1.023Z" fill="#fff"/></g></g><path d="M32.035 142.802v-.042c0-.069-.021-.499-.105-1.129l-.02-.166c-.014-.076-.021-.16-.035-.25a15.536 15.536 0 0 0-2.09-5.666s0-.007-.007-.014c-.111-.187-.236-.368-.355-.548a15.463 15.463 0 0 0-2.006-2.41 13.25 13.25 0 0 0-1.16-1.026c-.25-.201-.514-.395-.778-.582-.014-.007-.028-.02-.042-.027l-.034-.021-.14-.097c-.173-.118-.354-.243-.555-.367 0 0-.014-.007-.02-.014-.098-.063-.202-.118-.306-.18l-.146-.083c-.042-.021-.076-.049-.125-.07-.035-.021-.063-.034-.097-.055-.611-.34-1.25-.631-1.91-.887a11.222 11.222 0 0 0-.382-.145l-.118-.042-.118-.042h-.042a.978.978 0 0 0-.194-.069h-.028s-.02-.014-.028-.014l-.132-.041a1.264 1.264 0 0 1-.173-.056l-.153-.041-.083-.021c-.007 0-.014 0-.028-.007h-.028s-.035-.021-.049-.021l-.166-.041c-.042-.014-.098-.021-.14-.035-.04-.014-.09-.021-.131-.035l-.083-.02a1.304 1.304 0 0 0-.16-.035l-.111-.028c-.049-.014-.104-.02-.153-.034h-.028l-.118-.021-.07-.014-.083-.014h-.041s-.035-.014-.049-.014l-.125-.02a.345.345 0 0 1-.083-.014l-.14-.021-.117-.021s-.049 0-.07-.007c-.034 0-.07-.007-.11-.014-.035 0-.07-.007-.105-.014a10.13 10.13 0 0 1-.174-.02l-.16-.021h-.069c-.048 0-.097-.007-.146-.014-.069 0-.145-.014-.215-.021-.055 0-.104-.007-.153-.014-.055 0-.11 0-.166-.006-.056 0-.118-.007-.174-.007H16.84c-.312 0-.625 0-.937.007-.07 0-.14 0-.202.006-.07 0-.139.007-.208.014-.042 0-.09 0-.125.007a3.934 3.934 0 0 0-.299.028c-.035 0-.07 0-.104.007a7.776 7.776 0 0 0-.417.048c-.062.007-.125.014-.194.028h.014-.056l-.291.042c-.077.013-.146.02-.223.034a15.344 15.344 0 0 0-2.52.665 15.936 15.936 0 0 0-3.431 1.718c-.104.07-.215.146-.32.222-.013.007-.027.021-.041.028-.18.131-.361.263-.542.402-.014.013-.028.02-.041.034l-.014.014-.014.014c-.007 0-.014.014-.021.014 0 0-.014.007-.014.014-.049.041-.097.076-.146.117-.097.077-.194.16-.284.236l-.153.132c-.104.09-.202.18-.299.263l-.014.014-.014.014-.062.062c-.486.45-.778.776-.799.797-.153.159-.298.332-.444.505-.104.118-.209.25-.32.381-.007.007-.014.021-.02.028l-.014.021c-.216.27-.445.582-.695.949v.014l-.014.014c-.11.166-.229.36-.347.561-.104.173-.201.339-.292.485l-.291.575c-.097.187-.188.367-.271.533-.16.319-.326.735-.486 1.185-.14.388-.271.803-.382 1.198v.014l-.007.014a11.34 11.34 0 0 0-.313 1.386c-.208 1.434-.222 1.551-.236 2.507a14.95 14.95 0 0 0 .167 2.467c.174 1.184.458 2.085.549 2.383.333 1.053.632 1.669.916 2.265.18.367.313.624.493.922.216.36.445.72.695 1.066.028.042.055.084.083.132.243.367.611.831.91 1.157.222.242.514.568.743.797.229.228.542.526.792.741.277.242.388.339.652.533.313.25.64.478.959.693.104.069.208.139.32.201a14.47 14.47 0 0 0 .596.346l.042.021c.097.056.215.118.34.18l.084.042c.375.194.854.429 1.375.637.11.049.27.111.458.18l.16.063.277.097c.056.02.132.041.195.062l.07.021h.013l.104.034c.056.014.125.035.174.056l.174.048h.013a14.3 14.3 0 0 0 1.924.409h.056c.048.014.11.028.173.035h.014l.153.021.34.041c.153.014.361.028.514.042.146.014.32.02.48.027h.951c.222 0 .514-.027.736-.034.465-.042 1.09-.118 1.555-.194.361-.063.84-.16 1.195-.257.09-.027.18-.055.277-.083.278-.083.57-.166.806-.242l.285-.104c.222-.076.451-.166.666-.249l.112-.042a9.91 9.91 0 0 0 .854-.388c.118-.062.243-.118.36-.18a10.8 10.8 0 0 0 1.008-.575c.007 0 .02-.014.028-.021.264-.166.527-.346.784-.526.056-.042.111-.077.167-.111l.278-.222c.076-.055.152-.118.222-.18l.424-.34c.16-.131.458-.381.882-.817.006 0 .013-.014.02-.021l.042-.048c.222-.229.48-.506.77-.839 0-.006.015-.013.022-.02.291-.326.77-.929 1.298-1.767 0-.007.007-.014.014-.021.118-.194.243-.395.361-.616.049-.09.104-.187.153-.284.07-.132.146-.264.201-.381l.056-.118c.104-.208.201-.423.299-.644.132-.305.264-.617.354-.887.166-.457.32-.935.451-1.448.084-.312.16-.623.209-.914a19.098 19.098 0 0 0 .187-1.192c.049-.45.083-.908.097-1.386V144c0-.374 0-.762-.02-1.15l-.014-.048Z" fill="url('#paint2_radial_4446_108')"/><mask id="mask1_4446_108" style="mask-type:luminance" maskUnits="userSpaceOnUse" x="0" y="128" width="33" height="32"><path d="M29.333 134.883v.014l.014.014c.118.166.236.36.354.554l.299.485.298.568c.098.187.188.361.278.527.16.318.334.727.493 1.177.14.388.278.804.39 1.199v.014l.006.014c.146.512.264 1.004.32 1.378.215 1.434.236 1.552.256 2.501.028 1.199-.09 2.051-.145 2.466a14.687 14.687 0 0 1-.528 2.384c-.327 1.06-.618 1.676-.896 2.272-.174.367-.313.63-.486.921-.208.361-.438.721-.688 1.074-.027.042-.055.083-.083.132-.243.367-.604.838-.903 1.164-.222.242-.507.575-.736.803-.229.236-.541.534-.791.748-.271.243-.39.34-.646.541-.313.249-.632.485-.952.699l-.312.208-.361.222a2.977 2.977 0 0 1-.236.132l-.042.02a9.32 9.32 0 0 1-.34.187l-.084.042a14.566 14.566 0 0 1-1.833.831l-.16.063-.278.097c-.055.02-.131.048-.194.062l-.07.021h-.013l-.104.034a1.26 1.26 0 0 0-.174.056l-.174.048h-.014c-.666.194-1.305.333-1.916.43h-.056a.602.602 0 0 1-.173.034h-.014a8.31 8.31 0 0 0-.153.021l-.34.042-.514.048c-.146.014-.32.021-.48.028-.083 0-.166 0-.236.007h-.715c-.222 0-.514-.021-.736-.028a29.402 29.402 0 0 1-1.556-.18c-.36-.055-.84-.152-1.194-.249-.09-.028-.18-.049-.278-.076-.277-.077-.57-.167-.805-.236l-.285-.104c-.23-.076-.451-.159-.674-.249l-.11-.042a9.856 9.856 0 0 1-.862-.381 8.67 8.67 0 0 1-.361-.18c-.32-.159-.722-.374-1.014-.568-.007 0-.02-.014-.028-.021-.27-.166-.534-.339-.791-.526a2.008 2.008 0 0 0-.167-.111l-.285-.222c-.076-.055-.152-.118-.229-.173l-.43-.333c-.167-.124-.459-.381-.89-.81-.006 0-.013-.014-.02-.021l-.042-.048a28.2 28.2 0 0 1-.778-.832c0-.007-.013-.014-.02-.021a13.843 13.843 0 0 1-1.313-1.759c0-.007-.007-.014-.014-.021a15.591 15.591 0 0 1-.368-.61c-.055-.09-.104-.187-.16-.284a5.008 5.008 0 0 1-.2-.381c-.022-.034-.036-.076-.057-.117-.104-.208-.2-.423-.305-.645a9.395 9.395 0 0 1-.361-.88c-.167-.45-.327-.935-.459-1.441a10.51 10.51 0 0 1-.215-.907 18.723 18.723 0 0 1-.166-.97 2.378 2.378 0 0 1-.028-.222c-.056-.45-.09-.907-.104-1.385v-.083c-.007-.374 0-.762.013-1.15v-.042c0-.069.021-.499.098-1.129 0-.056.014-.111.02-.166.014-.077.021-.16.035-.25a15.458 15.458 0 0 1 2.049-5.68s0-.007.007-.014c.11-.187-.917 1.697-.799 1.517l1.153-2.072a15.485 15.485 0 0 1 1.986-2.424c.347-.354.778-.742 1.146-1.032.25-.201.507-.402.77-.589.015-.007.029-.021.042-.028l.035-.021.14-.097c.173-.118.353-.242.555-.367 0 0 .013-.007.02-.014.098-.062.195-.125.306-.187l.146-.083c.041-.021.076-.049.118-.069l.097-.056a16.563 16.563 0 0 1 2.285-1.053l.118-.041.118-.042h.042a1.61 1.61 0 0 1 .194-.076h.028l.028-.021.132-.041c.055-.014.125-.035.173-.056l.153-.041s.056-.014.083-.028c.007 0 .014 0 .028-.007.007 0 .02 0 .028-.007a.128.128 0 0 0 .048-.014l.167-.048c.042-.014.097-.028.139-.035.042-.014.09-.021.132-.035l.083-.02c.049-.014.111-.028.16-.042l.111-.028c.049-.014.104-.02.153-.034h.028l.118-.021.07-.014.082-.014h.042s.035-.014.049-.014l.125-.02c.027 0 .055-.007.083-.014l.139-.021.118-.021s.049-.007.07-.014c.034 0 .069-.014.11-.014a.53.53 0 0 0 .105-.013l.173-.021.16-.021h.07c.048 0 .097-.014.145-.014l.216-.021c.055 0 .104-.007.152-.013.056 0 .111-.007.167-.014.056 0 .118-.007.174-.014H15.84s.049 0 .076-.007H16c.312-.007.625-.007.937 0h.202c.07 0 .139 0 .208.007.042 0 .083 0 .125.007.104 0 .201.014.299.021.034 0 .07 0 .104.006l.416.042.195.021h-.014.056l.291.041c.077.014.146.021.222.035.167.028.306.055.396.069.452.09.896.194 1.34.326.264.069.5.145.785.249 1.209.416 2.361.984 3.445 1.691.104.069.215.145.32.214.013.007.027.021.04.028.181.125.369.256.543.395.013.014.027.021.041.035l.014.013.014.014c.007 0 .014.014.02.014 0 0 .015.007.015.014.048.042.097.076.146.118.097.076.194.159.284.235l.153.132c.104.09.201.18.299.263l.014.014.013.014.063.062c.486.444.785.769.805.79.153.159.3.326.452.499.104.118.215.249.32.381.006.007.013.021.02.028" fill="#fff"/></mask><g mask="url('#mask1_4446_108')"><path d="M30.882 137.613a5.264 5.264 0 0 0-.118-.298c.034.097.076.194.118.298Z" fill="url('#paint3_linear_4446_108')"/><path d="M.972 146.217c-.02-.09-.035-.18-.049-.263.014.09.028.173.049.263Z" fill="url('#paint4_linear_4446_108')"/><path d="M13.854 147.97c.778-.797 4.458-12.041-2.694-13.634-7.07-.339-9.195 9.588-7.5 11.209.069.062.187.111.277.132.903-.028 2.104.173 3.563.616 1.562.478 3.229 1.192 4.854 2.037.208.076.847.312 1.507-.36m4.285-15.47c.791-.72 1.645-2.431-.757-3.09-3.702-.748-7.375 1.691-6.098 3.381 1.056 1.393 4.917 1.483 6.848-.291" fill="#FFF3FF"/></g><g filter="url('#filter1_d_4446_108')"><path d="M85.138 180.748v-.056c0-.102-.03-.728-.158-1.654-.01-.081-.02-.163-.036-.244-.015-.117-.036-.239-.056-.361a22.603 22.603 0 0 0-3.061-8.291c0-.005-.005-.01-.01-.015a22.835 22.835 0 0 0-3.459-4.331 19.514 19.514 0 0 0-1.694-1.502 23.96 23.96 0 0 0-1.138-.855c-.02-.015-.04-.03-.056-.04l-.05-.036-.2-.137c-.25-.173-.52-.352-.816-.535 0 0-.02-.015-.03-.02-.143-.087-.291-.178-.444-.265a5.694 5.694 0 0 1-.21-.122c-.06-.036-.117-.066-.178-.102l-.143-.076a23.016 23.016 0 0 0-3.357-1.512l-.173-.061-.174-.061-.025-.01-.036-.015c-.087-.031-.199-.066-.28-.092l-.041-.01s-.026-.01-.041-.01l-.194-.061a4.916 4.916 0 0 0-.255-.077l-.22-.066c-.04-.01-.081-.025-.122-.035a.065.065 0 0 1-.036-.011c-.015 0-.03-.01-.046-.01-.025-.005-.05-.015-.071-.02l-.245-.066c-.061-.015-.138-.036-.21-.051l-.198-.046h-.01l-.123-.03a4.017 4.017 0 0 1-.24-.056l-.168-.036-.23-.046c-.015 0-.025-.005-.04-.01-.056-.01-.112-.025-.174-.036l-.102-.02-.122-.025h-.02l-.041-.011s-.046-.01-.072-.01l-.183-.03c-.041-.005-.082-.016-.118-.021l-.204-.03-.178-.026c-.031 0-.072-.01-.108-.015-.05-.005-.107-.015-.158-.02-.05-.005-.102-.016-.153-.021l-.255-.03-.234-.026a.401.401 0 0 1-.077-.01h-.015a2.6 2.6 0 0 0-.215-.02c-.107-.01-.214-.021-.321-.026l-.22-.015-.244-.015c-.087 0-.174-.01-.255-.015-.056 0-.107 0-.159-.006h-.142c-.036-.01-.072-.005-.107-.01h-.123c-.459-.01-.918-.005-1.372.01-.102 0-.2.011-.291.011l-.306.015c-.061 0-.128.01-.179.01-.148.01-.296.026-.438.036-.051 0-.102.01-.153.015-.21.02-.414.046-.608.071-.091.01-.188.026-.28.036h.02-.025c-.02 0-.041.005-.056.01-.153.02-.296.046-.429.066-.107.015-.22.036-.326.056-.245.041-.444.082-.577.107-.658.132-1.311.3-1.959.489a14.8 14.8 0 0 0-1.148.371 22.786 22.786 0 0 0-5.49 2.84c-.02.015-.04.031-.06.041-.266.188-.53.387-.791.585a.551.551 0 0 0-.061.051l-.026.015-.02.015c-.01.011-.02.016-.03.026-.011.005-.016.01-.026.02l-.215.168c-.142.117-.28.229-.418.346-.077.066-.153.127-.224.194a17.45 17.45 0 0 0-.434.386c-.005.006-.015.011-.02.016l-.016.015c-.03.031-.066.056-.097.087-.709.656-1.137 1.134-1.168 1.165-.22.234-.434.483-.648.738-.153.178-.306.361-.47.56-.01.01-.025.025-.035.04l-.026.031c-.316.397-.653.85-1.02 1.389l-.01.011s-.005.01-.01.01c-.005.01-.01.015-.015.02a15.51 15.51 0 0 0-.51.819c-.149.25-.297.499-.43.713l-.428.84c-.143.269-.275.534-.398.778-.23.464-.48 1.074-.709 1.731a30.439 30.439 0 0 0-.556 1.761v.02s-.01.015-.01.025c-.21.754-.378 1.471-.454 2.026-.301 2.102-.327 2.275-.347 3.669-.026 1.756.158 3.003.245 3.604.25 1.73.668 3.053.806 3.486.485 1.542.923 2.443 1.342 3.313.26.54.459.916.719 1.344a21.04 21.04 0 0 0 1.02 1.562l.128.188c.357.54.898 1.222 1.336 1.695.327.351.75.83 1.092 1.171.337.336.796.773 1.163 1.084.403.351.572.493.954.778.46.367.934.703 1.408 1.018h.005c.154.102.307.204.465.295.183.112.367.224.525.316.087.051.21.117.347.193.02.011.041.026.061.036.143.081.312.168.495.27.041.02.082.04.123.066.55.285 1.25.626 2.02.931.168.066.398.158.673.26.077.03.159.061.23.086l.403.143c.087.03.199.066.28.091l.103.031s.015 0 .02.005l.153.046c.077.025.179.056.255.076l.25.071s.015 0 .02.006c.98.279 1.919.473 2.817.6l.086.015c.077.011.164.026.255.036h.026c.076.01.153.02.22.031l.5.055c.224.021.53.046.754.062.21.015.465.03.704.035h.005c.123 0 .24.01.347.01.317.005.735 0 1.046 0 .322 0 .75-.035 1.071-.051a37.995 37.995 0 0 0 2.27-.279c.531-.087 1.235-.229 1.75-.377.133-.036.266-.076.409-.117a78.3 78.3 0 0 0 1.178-.351l.413-.158a19.7 19.7 0 0 0 .98-.372l.163-.061c.383-.147.837-.366 1.255-.57.179-.086.352-.173.526-.264.469-.239 1.056-.56 1.474-.845l.046-.031c.388-.244.775-.503 1.153-.773.082-.056.168-.112.24-.168l.413-.326c.112-.086.22-.173.326-.259l.623-.494c.24-.188.668-.56 1.296-1.201l.03-.031.062-.066a37.8 37.8 0 0 0 1.132-1.226c.01-.011.02-.026.03-.036a19.993 19.993 0 0 0 1.898-2.591c.006-.01.016-.02.02-.03.174-.28.353-.58.531-.901v-.005c.077-.137.154-.275.23-.417.107-.194.21-.387.29-.56.026-.056.057-.117.082-.173.148-.3.296-.616.434-.942.199-.442.388-.895.52-1.292.245-.667.465-1.375.659-2.118.122-.453.23-.911.3-1.333.092-.458.169-.931.23-1.42.015-.112.03-.219.04-.326.078-.656.123-1.333.139-2.03V182.428c.01-.55 0-1.11-.03-1.685l-.011.005Z" fill="url('#paint5_radial_4446_108')"/><mask id="mask2_4446_108" style="mask-type:luminance" maskUnits="userSpaceOnUse" x="39" y="159" width="47" height="46"><path d="m81.179 169.155.01.01s.005.01.01.01a15.276 15.276 0 0 1 .53.835l.434.707.434.835c.143.269.28.534.403.773.235.463.485 1.069.725 1.725.204.57.403 1.171.571 1.756v.021l.015.025c.22.753.388 1.471.475 2.026.321 2.102.347 2.275.377 3.664.041 1.756-.132 3.008-.214 3.608-.235 1.736-.643 3.059-.775 3.492-.475 1.547-.903 2.453-1.317 3.328-.255.54-.454.921-.709 1.354a22.047 22.047 0 0 1-1.005 1.572 15.972 15.972 0 0 1-1.449 1.894c-.326.356-.745.839-1.081 1.18-.337.341-.786.784-1.153 1.095-.403.356-.566.498-.944.788-.46.367-.923.713-1.398 1.028h-.005c-.153.102-.306.204-.46.301-.183.117-.361.229-.525.32-.086.051-.204.117-.341.199-.02.01-.041.025-.062.035-.142.082-.31.174-.494.27-.041.021-.082.046-.123.066-.55.29-1.245.637-2.01.952-.168.066-.398.163-.668.265-.077.03-.158.061-.23.091l-.403.143c-.087.03-.199.066-.28.097l-.102.03s-.016 0-.02.005l-.154.051c-.076.026-.178.056-.255.081l-.25.077s-.015 0-.02.005a21.8 21.8 0 0 1-2.811.626l-.087.015c-.077.01-.163.026-.255.036h-.026l-.22.03-.499.061c-.224.026-.525.051-.755.072-.21.02-.464.03-.704.04h-.005c-.123.005-.24.011-.347.011-.316.01-.735 0-1.046.005-.321 0-.75-.031-1.071-.046a34.14 34.14 0 0 1-2.276-.265 18.379 18.379 0 0 1-1.75-.361c-.132-.036-.265-.076-.408-.117l-1.183-.341-.413-.153a23.148 23.148 0 0 1-.985-.361l-.163-.061a14.87 14.87 0 0 1-1.255-.56 51.676 51.676 0 0 1-.526-.26c-.474-.239-1.056-.549-1.484-.834l-.046-.031a21.94 21.94 0 0 1-1.158-.768c-.082-.056-.169-.112-.245-.163l-.413-.321c-.113-.086-.22-.173-.332-.259l-.627-.489a14.72 14.72 0 0 1-1.306-1.191l-.031-.03-.061-.067a34.25 34.25 0 0 1-1.143-1.221c-.01-.01-.02-.025-.03-.036a20.517 20.517 0 0 1-1.924-2.575c-.005-.01-.015-.02-.02-.03-.179-.28-.358-.581-.541-.896v-.005l-.23-.412a16.066 16.066 0 0 1-.382-.733 33.912 33.912 0 0 1-.444-.942 17.598 17.598 0 0 1-.53-1.287 22.34 22.34 0 0 1-.674-2.113 13.03 13.03 0 0 1-.312-1.333 22.813 22.813 0 0 1-.24-1.42l-.045-.326a21.557 21.557 0 0 1-.153-2.03V182.611c-.016-.55-.01-1.11.015-1.685v-.056c0-.102.026-.728.143-1.654l.03-.244c.016-.117.036-.239.052-.361a22.625 22.625 0 0 1 2.994-8.316c0-.006.005-.011.01-.016.164-.275-1.346 2.489-1.168 2.219l1.684-3.033a22.883 22.883 0 0 1 4.586-5.069c.367-.3.745-.585 1.133-.86a.542.542 0 0 0 .056-.046l.05-.036c.067-.045.133-.096.2-.142.25-.173.52-.356.81-.54 0 0 .021-.015.032-.02.142-.086.29-.178.443-.27.072-.04.138-.081.21-.122l.178-.102c.046-.025.097-.05.143-.076a22.982 22.982 0 0 1 2.79-1.323c.25-.102.444-.173.557-.214l.173-.061.168-.061s.016-.005.026-.01l.036-.015c.081-.031.199-.067.28-.097l.041-.015.04-.016.195-.061.255-.081.22-.066c.04-.011.08-.026.122-.036a.075.075 0 0 0 .035-.01c.016 0 .03-.01.046-.01.026-.005.051-.016.072-.021l.245-.066c.06-.015.137-.035.204-.056.066-.015.132-.03.193-.051h.01l.123-.03c.077-.021.168-.041.24-.056l.168-.036c.077-.015.153-.035.23-.051.015 0 .025-.005.04-.01.057-.01.113-.025.174-.036l.102-.02.123-.025h.02l.04-.011.072-.015c.061-.01.123-.02.184-.035.04-.006.081-.016.117-.021.066-.01.138-.02.204-.035l.179-.031c.03 0 .071-.01.107-.015.05-.01.107-.015.158-.026.051-.005.102-.015.153-.02l.255-.031.235-.03c.025 0 .05-.005.076-.01h.016c.066-.01.137-.016.214-.026l.321-.03c.077-.005.153-.016.22-.021l.245-.015.255-.015c.056 0 .107 0 .158-.005l.143-.01H61.67c.46-.016.919-.016 1.373 0 .102 0 .199.005.29.01.102 0 .205.01.306.015a11.978 11.978 0 0 1 .617.046c.052 0 .103.01.154.015a18.73 18.73 0 0 1 .888.102h-.02.025c.02 0 .04.005.056.01.153.02.296.041.433.061.108.015.22.036.327.051a21.645 21.645 0 0 1 2.54.575c.388.107.73.214 1.154.361a22.89 22.89 0 0 1 5.045 2.479l.47.316a24.449 24.449 0 0 1 .857.62l.06.046.026.015.02.016c.01.01.021.015.031.025.01.005.016.01.026.021l.214.168c.143.117.286.229.418.34.077.062.153.128.23.194.153.132.3.259.434.382.005.005.015.01.02.015l.015.015c.03.031.067.056.097.087.714.651 1.148 1.124 1.179 1.155.219.234.438.478.658.733.153.178.31.361.474.56.01.01.026.025.036.04" fill="#fff"/></mask><g mask="url('#mask2_4446_108')"><path d="M83.444 173.155a6.358 6.358 0 0 0-.168-.433c.056.138.112.285.168.433Z" fill="url('#paint6_linear_4446_108')"/><path d="M39.662 185.751c-.026-.133-.051-.26-.072-.387.02.127.046.26.072.387Z" fill="url('#paint7_linear_4446_108')"/><path d="M79.51 188.53c-2.438 2.575-5.27 2.911-7.336 3.155-4.55.54-9.024-.539-13.54-.677-.402-1.562-.642-2.504-1.448-4.718-2.464-6.733-4.586-12.545-2.388-16.723 2.607-4.942 7.959-6.555 13.316-4.016.025.01.06.031.086.041 2.832 1.908 4.02 3.949 4.245 7.283 8.402-2.662 11.938 7.904 8.275 14.016-.317.524-.791 1.191-1.21 1.639Z" fill="#fff"/></g></g><path d="M607.498 16.28v-.044c0-.073-.022-.527-.11-1.193a10.533 10.533 0 0 1-.022-.175c-.015-.081-.022-.169-.037-.264a16.426 16.426 0 0 0-2.205-5.987s0-.007-.007-.015c-.117-.197-.249-.388-.374-.578a16.348 16.348 0 0 0-2.117-2.547 13.974 13.974 0 0 0-1.223-1.083 17.42 17.42 0 0 0-.82-.615c-.015-.007-.03-.022-.044-.03l-.037-.021-.146-.103c-.184-.124-.374-.256-.586-.387 0 0-.015-.008-.022-.015-.103-.066-.213-.125-.323-.19l-.154-.088c-.044-.022-.08-.051-.131-.073l-.103-.059a16.347 16.347 0 0 0-2.014-.937 15.032 15.032 0 0 0-.403-.153l-.125-.044-.124-.044h-.044a1.002 1.002 0 0 0-.205-.074h-.03s-.022-.014-.029-.014l-.139-.044a1.308 1.308 0 0 1-.183-.059l-.162-.044-.087-.021c-.008 0-.015 0-.03-.008-.007 0-.022 0-.029-.007a.13.13 0 0 1-.051-.015l-.176-.044c-.044-.014-.103-.022-.147-.036-.044-.015-.095-.022-.139-.037l-.088-.022a1.38 1.38 0 0 0-.168-.036l-.117-.03c-.052-.014-.11-.022-.162-.036h-.029l-.124-.022-.074-.015-.088-.015H594.027s-.037-.014-.052-.014l-.132-.022a.36.36 0 0 1-.087-.015l-.147-.022-.125-.022s-.051 0-.073-.007c-.036 0-.073-.007-.117-.015-.037 0-.073-.007-.11-.014-.058-.008-.124-.015-.183-.022l-.168-.022h-.074c-.051 0-.102-.008-.154-.015-.073 0-.153-.014-.227-.022a1.1 1.1 0 0 1-.161-.014c-.058 0-.117 0-.176-.008-.058 0-.124-.007-.183-.007h-.388c-.33 0-.659 0-.989.007-.073 0-.146 0-.212.008-.074 0-.147.007-.22.014-.044 0-.095 0-.132.008-.11.007-.212.014-.315.029a7.226 7.226 0 0 0-.549.059 2.284 2.284 0 0 0-.205.029h.014H588.804c-.11.014-.213.029-.308.044-.081.014-.154.022-.234.036a15.98 15.98 0 0 0-2.659.703 16.727 16.727 0 0 0-3.619 1.815 9.34 9.34 0 0 0-.337.234c-.015.007-.029.022-.044.03-.191.138-.381.278-.571.424-.015.015-.03.022-.044.036l-.015.015-.015.015c-.007 0-.014.014-.022.014 0 0-.014.008-.014.015-.052.044-.103.08-.154.124-.103.081-.205.169-.3.25l-.162.138c-.109.096-.212.19-.315.278l-.014.015-.015.015-.066.066c-.513.475-.82.82-.842.841-.161.169-.315.352-.469.535-.11.124-.22.263-.337.402-.007.007-.015.022-.022.03l-.015.021c-.227.286-.468.615-.732 1.003v.015s0 .007-.015.014c-.117.176-.242.381-.366.593-.11.183-.212.359-.308.513l-.307.607c-.103.198-.198.388-.286.564-.169.336-.344.775-.513 1.251-.146.41-.286.85-.403 1.266v.015l-.007.015a12.028 12.028 0 0 0-.33 1.463c-.219 1.515-.234 1.64-.249 2.65a15.87 15.87 0 0 0 .176 2.606c.183 1.251.484 2.203.579 2.517.351 1.113.666 1.764.967 2.394.19.388.329.658.52.973.227.38.469.761.732 1.127.03.044.059.088.088.14.257.387.645.878.96 1.221.234.257.542.6.784.842.241.242.571.556.835.783.293.256.41.359.688.564.33.263.674.505 1.011.732.11.073.22.146.337.212.132.08.264.161.381.227.059.037.147.088.249.139l.044.022c.103.058.227.124.359.19l.088.044a16.438 16.438 0 0 0 1.934.864l.168.066.293.102c.059.022.139.044.205.066l.074.022h.014l.11.037c.059.014.132.036.183.058l.183.051h.015c.703.198 1.384.344 2.029.432h.059c.051.015.117.03.183.037h.014c.059.007.11.014.162.022l.359.044c.161.014.38.029.542.044.153.014.337.021.505.029h1.004c.234 0 .542-.03.776-.037.491-.044 1.15-.124 1.641-.205a14.83 14.83 0 0 0 1.26-.27c.095-.03.19-.059.293-.088.293-.088.593-.176.85-.256l.3-.11c.234-.08.476-.176.703-.264l.117-.044c.271-.102.608-.263.901-.41.125-.065.257-.124.381-.19a11.42 11.42 0 0 0 1.062-.607c.008 0 .022-.015.03-.022.278-.176.556-.366.828-.557.058-.043.117-.08.175-.117l.293-.234c.081-.058.161-.124.235-.19l.447-.359c.168-.139.483-.402.93-.863.007 0 .015-.015.022-.022l.044-.052c.234-.241.505-.534.813-.885 0-.008.015-.015.022-.022.308-.344.813-.98 1.37-1.866 0-.008.007-.015.014-.023.125-.204.257-.417.381-.65.052-.096.11-.198.161-.3.074-.14.154-.28.213-.404.022-.043.036-.08.058-.124.11-.22.213-.446.315-.68.14-.323.279-.652.374-.937.176-.484.337-.989.476-1.53.088-.33.169-.659.22-.966.066-.33.117-.674.168-1.025.015-.08.022-.154.03-.234.051-.476.088-.959.102-1.464v-.088c0-.395 0-.805-.022-1.215l-.014-.05Z" fill="url('#paint8_radial_4446_108')"/><mask id="mask3_4446_108" style="mask-type:luminance" maskUnits="userSpaceOnUse" x="574" y="0" width="34" height="34"><path d="M604.648 7.915v.014l.015.015c.124.175.249.38.373.585.11.176.22.359.315.513l.315.6c.103.197.198.388.293.556.169.337.352.768.52 1.244.147.41.293.85.411 1.267v.014l.007.015c.154.541.278 1.061.337 1.456.227 1.515.249 1.64.271 2.642.029 1.267-.095 2.167-.154 2.606a15.379 15.379 0 0 1-.557 2.518c-.344 1.12-.652 1.771-.945 2.4-.183.388-.329.666-.512.974-.22.38-.462.761-.726 1.134-.029.044-.058.088-.087.14-.257.387-.638.885-.953 1.229-.234.256-.534.607-.776.849a17.603 17.603 0 0 1-1.516 1.361 15.415 15.415 0 0 1-1.715 1.193 2.933 2.933 0 0 1-.249.14l-.044.021c-.102.059-.219.125-.359.198l-.087.044a15.342 15.342 0 0 1-1.934.878l-.169.066-.293.102a1.646 1.646 0 0 1-.205.066l-.073.022h-.015l-.11.037a1.356 1.356 0 0 0-.183.058l-.183.052h-.015c-.703.205-1.377.351-2.021.453h-.059c-.051.022-.117.03-.183.037h-.015l-.161.022-.359.044c-.161.015-.381.037-.542.051-.154.015-.337.022-.505.03-.088 0-.176 0-.249.007h-.755c-.234 0-.542-.022-.776-.03a31.261 31.261 0 0 1-1.641-.19 12.39 12.39 0 0 1-1.26-.263c-.095-.03-.191-.052-.293-.08-.293-.081-.601-.177-.85-.25l-.3-.11a11.96 11.96 0 0 1-.711-.263l-.117-.044a10.532 10.532 0 0 1-.908-.402 8.556 8.556 0 0 1-.381-.19 10.889 10.889 0 0 1-1.07-.6c-.007 0-.022-.015-.029-.023a12.608 12.608 0 0 1-.835-.556 2.452 2.452 0 0 0-.176-.117l-.3-.234c-.081-.059-.161-.125-.242-.183l-.454-.352c-.176-.131-.484-.402-.938-.856-.007 0-.014-.015-.022-.022l-.044-.051a30.26 30.26 0 0 1-.82-.878c0-.008-.015-.015-.022-.022a14.723 14.723 0 0 1-1.399-1.881 15.5 15.5 0 0 1-.388-.645c-.059-.095-.11-.197-.169-.3a5.443 5.443 0 0 1-.212-.402c-.022-.037-.037-.08-.059-.124-.11-.22-.212-.447-.322-.681a9.828 9.828 0 0 1-.381-.93 16.351 16.351 0 0 1-.484-1.522c-.095-.33-.168-.659-.227-.959-.066-.33-.124-.673-.176-1.025-.014-.08-.021-.153-.029-.234a15.94 15.94 0 0 1-.11-1.464v-.087c-.007-.396 0-.805.015-1.215v-.044c0-.073.022-.527.103-1.193 0-.059.014-.117.021-.176.015-.08.022-.168.037-.263a16.35 16.35 0 0 1 2.161-6.002s0-.007.007-.015c.118-.197-.967 1.793-.842 1.603l1.216-2.188a16.319 16.319 0 0 1 2.095-2.562c.366-.373.82-.783 1.209-1.09.263-.213.534-.425.813-.623.014-.007.029-.021.044-.029l.036-.022.147-.102c.183-.125.373-.256.586-.388 0 0 .014-.007.022-.015.102-.066.205-.132.322-.197l.154-.088c.044-.022.081-.051.124-.073l.103-.059a17.446 17.446 0 0 1 2.41-1.112l.125-.044.124-.044h.044c.059-.03.139-.059.205-.08h.029s.022-.015.03-.023l.139-.044c.059-.014.132-.036.183-.058l.161-.044s.059-.015.088-.03c.007 0 .015 0 .029-.007.008 0 .022 0 .03-.007a.14.14 0 0 0 .051-.015l.176-.05c.044-.016.102-.03.146-.038.044-.014.096-.021.139-.036l.088-.022c.052-.015.118-.03.169-.044l.117-.03c.051-.014.11-.021.161-.036h.03l.124-.022.073-.014.088-.015h.044s.037-.015.051-.015l.132-.022a.36.36 0 0 0 .088-.014l.147-.022.124-.022s.052-.008.073-.015c.037 0 .074-.015.118-.015.036 0 .073-.007.11-.014l.183-.022.168-.022h.073c.052 0 .103-.015.154-.015l.227-.022c.059 0 .11-.007.162-.014.058 0 .117-.008.175-.015.059 0 .125-.007.183-.015H590.415s.051 0 .081-.007h.088c.329-.007.659-.007.989 0h.212c.073 0 .147 0 .22.007.044 0 .095 0 .132.008.11 0 .212.014.315.022.036 0 .073 0 .109.007a43.726 43.726 0 0 1 .645.066h-.015.059l.308.044c.08.014.154.022.234.036.176.03.322.059.418.074.476.095.945.205 1.413.344.279.073.528.153.828.263a16.39 16.39 0 0 1 3.633 1.786l.337.227c.015.007.03.022.044.03.191.13.389.27.572.416.014.015.029.022.044.037l.014.015.015.014c.007 0 .015.015.022.015 0 0 .015.007.015.014.051.037.102.08.153.125.103.08.206.168.301.249l.161.139c.11.095.212.19.315.278l.015.015.014.014.066.066c.513.468.828.812.85.834.161.169.315.344.476.527.11.125.227.264.337.403.007.007.015.022.022.03" fill="#fff"/></mask><g mask="url('#mask3_4446_108')"><path d="M606.282 10.798a5.91 5.91 0 0 0-.125-.315c.037.103.081.205.125.315Z" fill="url('#paint9_linear_4446_108')"/><path d="M574.732 19.889a3.396 3.396 0 0 0 0 0Z" fill="url('#paint10_linear_4446_108')"/><path d="M603.059 19.713c1.391-3.301-1.385-13.453-9.282-11.696-6.871 2.723-5.222 13.291-3.01 14.133.351.132.608.08.835.03a28.967 28.967 0 0 1 5.355-1.347c1.941-.293 3.633-.322 4.988-.132.176-.007.703-.037 1.106-.988m-6.534-15.985c-.872-1.244-3.34-2.313-5.809-1.88-2.666.658-2.608 2.934-.615 4.142 2.732 1.668 7.164.695 6.768-1.479a2.234 2.234 0 0 0-.344-.783Z" fill="#fff"/></g><g filter="url('#filter2_f_4446_108')"><path d="m55.852 72.686.052-.017c.092-.03.656-.253 1.468-.644.076-.033.143-.07.217-.109.1-.047.205-.104.316-.162a21.902 21.902 0 0 0 6.674-5.315s.01-.01.009-.017c.198-.232.392-.477.58-.72a21.922 21.922 0 0 0 2.344-3.753 20.02 20.02 0 0 0 .867-2.003c.161-.43.302-.86.438-1.304.006-.024.015-.041.021-.065l.018-.056c.026-.074.044-.153.064-.224.08-.28.162-.583.243-.907 0 0 .007-.024.009-.039.035-.156.075-.322.108-.484.017-.079.028-.155.046-.233.015-.063.024-.124.037-.194l.029-.154a22.428 22.428 0 0 0 .37-3.526l.006-.177v-.174s-.004-.013-.002-.028l.003-.037c0-.087-.002-.202 0-.282v-.044s-.002-.028 0-.044l-.005-.193c-.005-.078-.002-.18-.006-.259l-.008-.222c0-.043-.007-.085-.005-.121a.062.062 0 0 1-.004-.035c-.004-.013-.002-.029 0-.044-.006-.02-.002-.05-.002-.072l-.014-.241c-.007-.063-.009-.135-.017-.204a2.662 2.662 0 0 1-.015-.198l-.002-.007c0-.044-.007-.085-.01-.12a2.187 2.187 0 0 1-.02-.232l-.017-.161c-.01-.077-.013-.148-.023-.224a.086.086 0 0 1-.007-.042c-.004-.056-.015-.11-.019-.167l-.01-.098-.018-.118-.006-.02-.013-.038-.002-.072a1.589 1.589 0 0 0-.03-.178c-.013-.04-.013-.083-.017-.118a1.968 1.968 0 0 0-.037-.198l-.028-.172s-.015-.067-.019-.102l-.028-.15c-.015-.046-.017-.096-.025-.144a3.037 3.037 0 0 0-.052-.243l-.045-.225s-.015-.045-.017-.074l-.005-.013-.045-.202c-.026-.1-.045-.202-.071-.303-.024-.071-.032-.14-.054-.206a2.514 2.514 0 0 1-.06-.227c-.026-.078-.046-.158-.065-.239a95.081 95.081 0 0 1-.047-.144l-.044-.13a.515.515 0 0 0-.025-.1l-.037-.111c-.132-.42-.277-.836-.428-1.25a3.669 3.669 0 0 0-.102-.263 4.206 4.206 0 0 0-.105-.276 1.24 1.24 0 0 0-.067-.16c-.052-.134-.109-.26-.167-.393-.015-.046-.037-.09-.058-.133-.082-.183-.165-.366-.25-.534-.04-.08-.075-.163-.116-.243-.006-.02-.01-.033-.024-.05-.065-.131-.127-.255-.188-.373a5.116 5.116 0 0 0-.152-.283 12.784 12.784 0 0 0-.27-.49c-.323-.56-.672-1.11-1.043-1.64-.214-.32-.422-.599-.687-.939a22.118 22.118 0 0 0-3.823-3.828c-.145-.111-.29-.222-.434-.327a.386.386 0 0 0-.056-.04c-.256-.183-.513-.366-.775-.547a.372.372 0 0 0-.065-.044l-.02-.015s-.017-.009-.02-.015c-.008-.005-.019-.015-.028-.02-.002-.006-.017-.009-.026-.013l-.221-.144c-.148-.096-.296-.192-.439-.275-.082-.052-.163-.098-.245-.15-.17-.097-.333-.195-.485-.282 0 0-.017-.01-.02-.016l-.017-.008s-.071-.042-.106-.06a16.738 16.738 0 0 0-1.423-.71 20.814 20.814 0 0 0-.869-.371c-.208-.083-.426-.17-.656-.254-.017-.009-.032-.011-.05-.02l-.039-.009c-.46-.166-.974-.337-1.582-.512l-.013.004s-.01-.01-.017-.009c-.007.003-.016-.002-.024-.006a18.224 18.224 0 0 0-.904-.216l-.783-.175-.9-.137a16.845 16.845 0 0 0-2.633-.252 28.62 28.62 0 0 0-1.781.024l-.02.006s-.015-.002-.024-.006c-.757.033-1.466.1-1.992.195-2.017.363-2.182.388-3.469.792-1.614.505-2.708 1.055-3.23 1.315A20.35 20.35 0 0 0 35 34.448c-1.27.913-1.961 1.583-2.63 2.232-.419.4-.702.703-1.016 1.068-.39.44-.764.911-1.123 1.4-.046.058-.086.115-.138.175a14.632 14.632 0 0 0-1.15 1.735c-.22.406-.537.938-.74 1.353-.206.409-.473.96-.641 1.393-.197.478-.278.671-.425 1.104a19.831 19.831 0 0 0-.508 1.595c-.044.174-.09.34-.134.515-.048.204-.092.4-.127.578-.02.093-.042.224-.073.372-.007.024-.007.045-.013.07-.029.154-.064.332-.1.532-.006.045-.015.085-.021.13-.095.59-.197 1.333-.247 2.124l-.038.694c-.003.08-.005.161-.01.235l-.007.415v.283l.003.1.007.02v.152c.003.078.001.18.005.259l.01.25.007.02c.041.978.148 1.892.296 2.755l.013.083c.01.076.03.157.043.24l.008.026c.017.074.028.15.041.21l.099.475c.05.215.12.496.17.712.05.193.114.432.181.657.037.11.067.224.1.322l.317.96c.097.293.26.674.37.964.265.607.638 1.404.947 1.99.238.457.583 1.06.875 1.485.072.107.152.218.234.336.235.335.48.681.677.971l.268.331c.204.266.415.53.636.783l.108.13c.245.303.586.654.9.97.133.138.263.268.4.397.364.357.835.796 1.217 1.097.011.01.028.02.04.03.346.284.696.552 1.059.816.076.055.154.116.223.172l.426.28c.11.072.223.15.34.22l.639.42c.248.157.71.438 1.494.816.009.005.026.013.037.024l.078.04a27.146 27.146 0 0 0 1.506.675c.571.239 1.588.62 2.944.953.007-.002.024.007.033.011.315.077.643.15.985.218.148.03.293.055.447.084.21.04.416.072.605.097l.183.026c.32.047.65.082.993.113.465.05.94.081 1.34.086.68.021 1.4.008 2.137-.04.455-.028.905-.068 1.312-.13.453-.055.905-.133 1.368-.22l.307-.059a22.318 22.318 0 0 0 1.902-.491l.066-.022.045-.015c.505-.16 1.019-.337 1.539-.537l.013-.027Z" fill="url('#paint11_radial_4446_108')"/><mask id="mask4_4446_108" style="mask-type:luminance" maskUnits="userSpaceOnUse" x="25" y="30" width="45" height="45"><path d="m65.28 65.556-.014.004s-.002.016-.009.018a13.008 13.008 0 0 1-.604.736c-.183.212-.366.425-.515.612l-.632.65c-.205.213-.405.417-.59.602-.354.355-.833.767-1.36 1.188-.46.362-.95.72-1.434 1.053l-.02.007s-.008.017-.015.02c-.627.424-1.228.797-1.712 1.044-1.828.93-1.979 1.002-3.241 1.456-1.593.57-2.794.793-3.369.896-1.658.31-2.995.339-3.434.347-1.56.037-2.519-.08-3.447-.193-.574-.071-.978-.133-1.454-.236a21.646 21.646 0 0 1-1.748-.444c-.072-.02-.135-.035-.215-.06a14.766 14.766 0 0 1-1.96-.691c-.424-.186-.988-.427-1.406-.636-.414-.204-.955-.481-1.355-.725-.447-.258-.63-.372-1.003-.625a17.735 17.735 0 0 1-1.364-.969c-.136-.107-.282-.218-.414-.333a17.27 17.27 0 0 1-.452-.38l-.286-.253c-.02-.015-.033-.032-.052-.048-.115-.107-.25-.229-.397-.368l-.096-.092a21.806 21.806 0 0 1-1.92-2.081c-.05-.064-.106-.125-.153-.181l-.252-.323c-.052-.07-.12-.163-.169-.226l-.063-.08-.006-.02-.091-.122c-.044-.066-.107-.146-.15-.212l-.14-.207-.007-.02c-.557-.807-1.03-1.6-1.424-2.375l-.038-.074c-.037-.068-.07-.144-.109-.218l-.008-.026c-.037-.068-.067-.137-.093-.194l-.204-.44-.294-.67c-.082-.183-.166-.416-.253-.634-.037-.11-.08-.22-.119-.315-.101-.285-.222-.673-.317-.96-.097-.294-.2-.694-.285-.992a33.274 33.274 0 0 1-.445-2.157 17.39 17.39 0 0 1-.196-1.71c-.006-.128-.008-.265-.019-.406-.018-.407-.028-.831-.045-1.188l.012-.424c.005-.335.017-.672.038-1.004l.002-.168c.014-.396.072-.878.136-1.32.024-.189.05-.371.082-.563.073-.502.183-1.132.314-1.61.003-.016.011-.033.014-.048.103-.433.221-.863.355-1.291.026-.096.055-.185.077-.272l.168-.476c.044-.13.09-.254.136-.378l.26-.723c.097-.279.307-.783.696-1.556a.151.151 0 0 0 .015-.041l.04-.078c.207-.402.458-.87.77-1.414.005-.009.014-.026.024-.037.308-.537.89-1.453 1.777-2.536.006-.002.015-.02.02-.028.2-.248.42-.502.658-.769.1-.113.2-.225.31-.334.144-.156.288-.312.42-.436l.131-.13c.23-.228.471-.46.728-.69a15.44 15.44 0 0 1 1.022-.874 21.58 21.58 0 0 1 1.734-1.261c.38-.256.765-.492 1.126-.692a27.03 27.03 0 0 1 1.507-.788c.577-.27 1.182-.52 1.813-.759l.066-.021.046-.015a25.92 25.92 0 0 1 1.551-.5l.053-.016c.09-.03.674-.195 1.558-.37.08-.02.156-.03.239-.044.109-.021.226-.038.348-.064a21.892 21.892 0 0 1 8.524.216s.016.002.018.009c.298.068-2.685-.474-2.392-.398l3.292.622c1.423.384 2.81.918 4.13 1.582.623.308 1.336.71 1.898 1.074.385.242.76.502 1.134.777.02.015.037.024.056.04l.048.034c.065.044.124.09.19.14a17.168 17.168 0 0 1 .774.606c.121.105.25.208.382.323.06.053.115.107.173.153.05.041.1.083.146.133.04.037.073.07.115.107.727.665 1.412 1.38 2.056 2.145.167.198.29.352.365.444l.11.137.11.137s.005.014.016.024l.024.029c.052.07.119.163.169.226l.026.035s.015.024.026.035l.117.157c.043.065.106.146.15.211l.125.183c.026.035.046.072.07.1.004.014.006.02.017.03a.097.097 0 0 0 .026.036c.006.02.028.041.041.059l.132.202c.033.055.074.113.115.172.033.055.072.107.104.161l.002.007c.026.035.046.072.07.1.043.066.089.137.123.198l.082.14c.037.067.078.126.115.194.004.013.009.026.02.037.03.047.054.098.084.145l.05.085.056.105.007.02.013.039.04.059c.033.054.057.104.09.158l.056.105c.035.061.06.118.095.179l.08.154s.029.063.046.094l.067.137.065.13c.039.075.071.15.11.225l.098.207s.015.045.03.07l.004.012.085.19c.038.096.084.19.123.285.024.072.058.133.086.196.026.078.056.148.087.218.026.078.065.152.09.23l.048.144.043.13c.018.031.028.064.04.096l.036.111c.151.414.29.832.415 1.254.03.091.06.183.082.27.03.091.056.191.08.285.019.059.038.117.047.165.039.14.069.275.101.416.015.046.024.093.032.141l.125.575c.015.089.037.176.052.265l-.007-.02.007.02a18.817 18.817 0 0 1 .082.465c.018.103.033.214.053.316a22.267 22.267 0 0 1 .255 3.66 22.251 22.251 0 0 1-.742 5.36c-.05.176-.094.35-.145.526l-.02.072c-.087.304-.184.604-.289.9-.006.023-.013.047-.026.073l-.007.024s-.008.018-.006.024c-.005.009-.007.024-.011.033.002.006-.009.017-.013.026l-.092.247c-.061.165-.123.33-.186.49-.035.09-.072.175-.107.267-.07.182-.145.352-.221.514 0 0-.009.018-.007.024l-.009.018s-.032.076-.05.11c-.378.85-.684 1.393-.701 1.428-.149.273-.306.543-.474.823-.116.197-.238.397-.367.6-.009.016-.02.027-.028.045" fill="#fff"/></mask><g mask="url('#mask4_4446_108')"><path d="M62.3 68.837a13.548 13.548 0 0 1 0 0Z" fill="url('#paint12_linear_4446_108')"/><path d="M37.53 32.634c.115-.067.226-.126.33-.182-.11.058-.222.117-.33.182Z" fill="url('#paint13_linear_4446_108')"/><path d="M34.94 65.216c.04-.013.098-.032.146-.04a47.063 47.063 0 0 1-2.434-3.527c-1.303.923.21 3.35 1.827 3.575.174.022.359.012.468-.01m8.297 5.97c.496-.034 2.11-.43.879-1.725-.091-.078-.176-.159-.267-.237 1.565-.569 3.206-1.365 4.883-2.405.92-.572 1.824-1.19 2.697-1.855 5.485-4.617 3.861-10.556 3.23-12.267.107-.093.214-.186.323-.273.515-.525 1.586-1.886.414-3.215-1.011-.716-1.91-.412-2.66-.026l-.359.227c-1.393-1.212-6.438-4.926-12.955-1.807a53.372 53.372 0 0 0-2.846 1.644c-1.684 1.042-3.156 2.086-4.398 3.105-.054-.12-.104-.248-.152-.37-.976-1.9-2.294-.892-2.636.373-.255.938-.006 1.711.104 2.044 1.154 2.813 2.744 5.778 4.705 8.643 2.044 2.982 4.225 5.462 6.322 7.311a4.122 4.122 0 0 0 2.71.835" fill="#fff"/></g></g><defs><linearGradient id="paint1_linear_4446_108" x1="601.023" y1="263.75" x2="601.006" y2="263.776" gradientUnits="userSpaceOnUse"><stop stop-color="#19B79C"/><stop offset=".4" stop-color="#1DBB9D"/><stop offset=".82" stop-color="#29C7A2"/><stop offset="1" stop-color="#31CFA6"/></linearGradient><linearGradient id="paint3_linear_4446_108" x1="30.764" y1="137.473" x2="30.882" y2="137.473" gradientUnits="userSpaceOnUse"><stop stop-color="#19B79C"/><stop offset=".4" stop-color="#1DBB9D"/><stop offset=".82" stop-color="#29C7A2"/><stop offset="1" stop-color="#31CFA6"/></linearGradient><linearGradient id="paint4_linear_4446_108" x1=".925" y1="146.093" x2=".974" y2="146.093" gradientUnits="userSpaceOnUse"><stop stop-color="#19B79C"/><stop offset=".4" stop-color="#1DBB9D"/><stop offset=".82" stop-color="#29C7A2"/><stop offset="1" stop-color="#31CFA6"/></linearGradient><linearGradient id="paint6_linear_4446_108" x1="83.272" y1="172.944" x2="83.445" y2="172.944" gradientUnits="userSpaceOnUse"><stop stop-color="#19B79C"/><stop offset=".4" stop-color="#1DBB9D"/><stop offset=".82" stop-color="#29C7A2"/><stop offset="1" stop-color="#31CFA6"/></linearGradient><linearGradient id="paint7_linear_4446_108" x1="39.588" y1="185.563" x2="39.66" y2="185.564" gradientUnits="userSpaceOnUse"><stop stop-color="#19B79C"/><stop offset=".4" stop-color="#1DBB9D"/><stop offset=".82" stop-color="#29C7A2"/><stop offset="1" stop-color="#31CFA6"/></linearGradient><linearGradient id="paint9_linear_4446_108" x1="606.16" y1="10.651" x2="606.285" y2="10.651" gradientUnits="userSpaceOnUse"><stop stop-color="#19B79C"/><stop offset=".4" stop-color="#1DBB9D"/><stop offset=".82" stop-color="#29C7A2"/><stop offset="1" stop-color="#31CFA6"/></linearGradient><linearGradient id="paint10_linear_4446_108" x1="574.685" y1="19.758" x2="574.736" y2="19.758" gradientUnits="userSpaceOnUse"><stop stop-color="#19B79C"/><stop offset=".4" stop-color="#1DBB9D"/><stop offset=".82" stop-color="#29C7A2"/><stop offset="1" stop-color="#31CFA6"/></linearGradient><linearGradient id="paint12_linear_4446_108" x1="62.445" y1="68.619" x2="62.496" y2="68.776" gradientUnits="userSpaceOnUse"><stop stop-color="#19B79C"/><stop offset=".4" stop-color="#1DBB9D"/><stop offset=".82" stop-color="#29C7A2"/><stop offset="1" stop-color="#31CFA6"/></linearGradient><linearGradient id="paint13_linear_4446_108" x1="37.677" y1="32.516" x2="37.698" y2="32.581" gradientUnits="userSpaceOnUse"><stop stop-color="#19B79C"/><stop offset=".4" stop-color="#1DBB9D"/><stop offset=".82" stop-color="#29C7A2"/><stop offset="1" stop-color="#31CFA6"/></linearGradient><radialGradient id="paint0_radial_4446_108" cx="0" cy="0" r="1" gradientUnits="userSpaceOnUse" gradientTransform="matrix(-6.37548 10.0819 -10.0022 -6.32508 595.097 272.96)"><stop offset=".01" stop-color="#33CAFF"/><stop offset=".68" stop-color="#33CAFF"/><stop offset=".73" stop-color="#42CDFF"/><stop offset=".83" stop-color="#6AD6FF"/><stop offset=".97" stop-color="#AAE6FF"/><stop offset="1" stop-color="#BBEAFF"/></radialGradient><radialGradient id="paint2_radial_4446_108" cx="0" cy="0" r="1" gradientUnits="userSpaceOnUse" gradientTransform="matrix(17.90956 -.07172 .07155 17.86646 17.367 146.154)"><stop offset=".01" stop-color="#33CAFF"/><stop offset=".68" stop-color="#33CAFF"/><stop offset=".73" stop-color="#42CDFF"/><stop offset=".83" stop-color="#6AD6FF"/><stop offset=".97" stop-color="#AAE6FF"/><stop offset="1" stop-color="#BBEAFF"/></radialGradient><radialGradient id="paint5_radial_4446_108" cx="0" cy="0" r="1" gradientUnits="userSpaceOnUse" gradientTransform="matrix(26.21709 -.10499 .10474 26.15389 63.665 185.651)"><stop offset=".01" stop-color="#33CAFF"/><stop offset=".68" stop-color="#33CAFF"/><stop offset=".73" stop-color="#42CDFF"/><stop offset=".83" stop-color="#6AD6FF"/><stop offset=".97" stop-color="#AAE6FF"/><stop offset="1" stop-color="#BBEAFF"/></radialGradient><radialGradient id="paint8_radial_4446_108" cx="0" cy="0" r="1" gradientUnits="userSpaceOnUse" gradientTransform="rotate(-.23 5238 -147594.975) scale(18.8918 18.8758)"><stop offset=".01" stop-color="#33CAFF"/><stop offset=".68" stop-color="#33CAFF"/><stop offset=".73" stop-color="#42CDFF"/><stop offset=".83" stop-color="#6AD6FF"/><stop offset=".97" stop-color="#AAE6FF"/><stop offset="1" stop-color="#BBEAFF"/></radialGradient><radialGradient id="paint11_radial_4446_108" cx="0" cy="0" r="1" gradientUnits="userSpaceOnUse" gradientTransform="rotate(71.471 -15.47 58.452) scale(25.2391)"><stop offset=".01" stop-color="#33CAFF"/><stop offset=".68" stop-color="#33CAFF"/><stop offset=".73" stop-color="#42CDFF"/><stop offset=".83" stop-color="#6AD6FF"/><stop offset=".97" stop-color="#AAE6FF"/><stop offset="1" stop-color="#BBEAFF"/></radialGradient><filter id="filter0_f_4446_108" x="582.445" y="259.028" width="28.641" height="28.686" filterUnits="userSpaceOnUse" color-interpolation-filters="sRGB"><feFlood flood-opacity="0" result="BackgroundImageFix"/><feBlend in="SourceGraphic" in2="BackgroundImageFix" result="shape"/><feGaussianBlur stdDeviation="2" result="effect1_foregroundBlur_4446_108"/></filter><filter id="filter1_d_4446_108" x="35.563" y="159.271" width="53.62" height="53.471" filterUnits="userSpaceOnUse" color-interpolation-filters="sRGB"><feFlood flood-opacity="0" result="BackgroundImageFix"/><feColorMatrix in="SourceAlpha" values="0 0 0 0 0 0 0 0 0 0 0 0 0 0 0 0 0 0 127 0" result="hardAlpha"/><feOffset dy="4"/><feGaussianBlur stdDeviation="2"/><feComposite in2="hardAlpha" operator="out"/><feColorMatrix values="0 0 0 0 0 0 0 0 0 0 0 0 0 0 0 0 0 0 0.25 0"/><feBlend in2="BackgroundImageFix" result="effect1_dropShadow_4446_108"/><feBlend in="SourceGraphic" in2="effect1_dropShadow_4446_108" result="shape"/></filter><filter id="filter2_f_4446_108" x="21.858" y="26.324" width="51.911" height="51.913" filterUnits="userSpaceOnUse" color-interpolation-filters="sRGB"><feFlood flood-opacity="0" result="BackgroundImageFix"/><feBlend in="SourceGraphic" in2="BackgroundImageFix" result="shape"/><feGaussianBlur stdDeviation="2" result="effect1_foregroundBlur_4446_108"/></filter></defs></svg>